<mxfile host="app.diagrams.net" agent="Mozilla/5.0 (Macintosh; Intel Mac OS X 10_15_7) AppleWebKit/537.36 (KHTML, like Gecko) Chrome/133.0.0.0 Safari/537.36" version="26.1.0">
  <diagram name="Страница — 1" id="-s2ECc7xKo9RADAwQVmQ">
    <mxGraphModel dx="1298" dy="1032" grid="1" gridSize="10" guides="1" tooltips="1" connect="1" arrows="1" fold="1" page="1" pageScale="1" pageWidth="827" pageHeight="1169" math="0" shadow="0">
      <root>
        <mxCell id="0" />
        <mxCell id="1" parent="0" />
        <mxCell id="1g3YXqRjLpghrbz_frLY-7" value="" style="rounded=0;whiteSpace=wrap;html=1;labelBorderColor=#FF7700;textShadow=0;labelBackgroundColor=none;strokeWidth=2;" parent="1" vertex="1">
          <mxGeometry x="120" y="200" width="470" height="360" as="geometry" />
        </mxCell>
        <mxCell id="1g3YXqRjLpghrbz_frLY-8" value="" style="outlineConnect=0;dashed=0;verticalLabelPosition=bottom;verticalAlign=top;align=center;html=1;shape=mxgraph.aws3.cloud_2;fillColor=#F58534;gradientColor=none;strokeWidth=2;" parent="1" vertex="1">
          <mxGeometry x="120" y="200" width="40" height="40" as="geometry" />
        </mxCell>
        <mxCell id="1g3YXqRjLpghrbz_frLY-9" value="" style="rounded=0;whiteSpace=wrap;html=1;strokeWidth=2;" parent="1" vertex="1">
          <mxGeometry x="650" y="200" width="420" height="360" as="geometry" />
        </mxCell>
        <mxCell id="1g3YXqRjLpghrbz_frLY-10" value="" style="outlineConnect=0;dashed=0;verticalLabelPosition=bottom;verticalAlign=top;align=center;html=1;shape=mxgraph.aws3.cloud_2;fillColor=#F58534;gradientColor=none;strokeWidth=2;" parent="1" vertex="1">
          <mxGeometry x="650" y="200" width="40" height="40" as="geometry" />
        </mxCell>
        <mxCell id="1g3YXqRjLpghrbz_frLY-19" style="edgeStyle=orthogonalEdgeStyle;rounded=0;orthogonalLoop=1;jettySize=auto;html=1;startArrow=classic;startFill=1;fillColor=#ffe6cc;strokeColor=#d79b00;dashed=1;strokeWidth=2;" parent="1" source="KNtzJvYzham_NG5R33nQ-13" target="1g3YXqRjLpghrbz_frLY-13" edge="1">
          <mxGeometry relative="1" as="geometry">
            <mxPoint x="533.9366748079713" y="271" as="sourcePoint" />
          </mxGeometry>
        </mxCell>
        <mxCell id="1g3YXqRjLpghrbz_frLY-18" style="edgeStyle=orthogonalEdgeStyle;rounded=0;orthogonalLoop=1;jettySize=auto;html=1;strokeColor=#FF8000;dashed=1;startArrow=classic;startFill=1;strokeWidth=2;" parent="1" source="1g3YXqRjLpghrbz_frLY-12" target="KNtzJvYzham_NG5R33nQ-13" edge="1">
          <mxGeometry relative="1" as="geometry">
            <Array as="points">
              <mxPoint x="308" y="215" />
              <mxPoint x="501" y="215" />
            </Array>
            <mxPoint x="495.0999999999999" y="246" as="targetPoint" />
          </mxGeometry>
        </mxCell>
        <mxCell id="1g3YXqRjLpghrbz_frLY-12" value="&lt;div style=&quot;font-family: Menlo, Monaco, &amp;quot;Courier New&amp;quot;, monospace; line-height: 18px; white-space-collapse: preserve;&quot;&gt;&lt;br&gt;&lt;/div&gt;" style="sketch=0;outlineConnect=0;fontColor=#232F3E;gradientColor=none;fillColor=#DD344C;strokeColor=none;dashed=0;verticalLabelPosition=bottom;verticalAlign=top;align=center;html=1;fontSize=12;fontStyle=0;aspect=fixed;pointerEvents=1;shape=mxgraph.aws4.role;strokeWidth=2;" parent="1" vertex="1">
          <mxGeometry x="270" y="254.5" width="76.22" height="43" as="geometry" />
        </mxCell>
        <mxCell id="1g3YXqRjLpghrbz_frLY-13" value="&lt;div style=&quot;font-family: Menlo, Monaco, &amp;quot;Courier New&amp;quot;, monospace; line-height: 18px; white-space-collapse: preserve;&quot;&gt;&lt;br&gt;&lt;/div&gt;" style="sketch=0;outlineConnect=0;fontColor=#232F3E;gradientColor=none;fillColor=#DD344C;strokeColor=none;dashed=0;verticalLabelPosition=bottom;verticalAlign=top;align=center;html=1;fontSize=12;fontStyle=0;aspect=fixed;pointerEvents=1;shape=mxgraph.aws4.role;strokeWidth=2;" parent="1" vertex="1">
          <mxGeometry x="770" y="253.5" width="78" height="44" as="geometry" />
        </mxCell>
        <mxCell id="1g3YXqRjLpghrbz_frLY-33" value="" style="rounded=1;whiteSpace=wrap;html=1;labelBorderColor=#FF7F00;strokeColor=#FF9307;dashed=1;dashPattern=12 12;align=left;strokeWidth=2;" parent="1" vertex="1">
          <mxGeometry x="130" y="350.5" width="450" height="200" as="geometry" />
        </mxCell>
        <mxCell id="KNtzJvYzham_NG5R33nQ-36" style="edgeStyle=orthogonalEdgeStyle;rounded=0;orthogonalLoop=1;jettySize=auto;html=1;exitX=0.5;exitY=0;exitDx=0;exitDy=0;exitPerimeter=0;dashed=1;strokeColor=#FF9933;strokeWidth=2;" parent="1" source="1g3YXqRjLpghrbz_frLY-15" target="1g3YXqRjLpghrbz_frLY-12" edge="1">
          <mxGeometry relative="1" as="geometry" />
        </mxCell>
        <mxCell id="1g3YXqRjLpghrbz_frLY-15" value="argocd-k8s-auth&lt;br style=&quot;padding: 0px; margin: 0px;&quot;&gt;secret&lt;div style=&quot;padding: 0px; margin: 0px;&quot;&gt;&lt;br style=&quot;padding: 0px; margin: 0px;&quot;&gt;&lt;/div&gt;" style="aspect=fixed;sketch=0;html=1;dashed=0;whitespace=wrap;verticalLabelPosition=bottom;verticalAlign=top;fillColor=#2875E2;strokeColor=#ffffff;points=[[0.005,0.63,0],[0.1,0.2,0],[0.9,0.2,0],[0.5,0,0],[0.995,0.63,0],[0.72,0.99,0],[0.5,1,0],[0.28,0.99,0]];shape=mxgraph.kubernetes.icon2;prIcon=secret;strokeWidth=2;" parent="1" vertex="1">
          <mxGeometry x="379.37" y="364.5" width="31.25" height="30" as="geometry" />
        </mxCell>
        <mxCell id="1g3YXqRjLpghrbz_frLY-25" value="" style="shape=image;verticalLabelPosition=bottom;labelBackgroundColor=default;verticalAlign=top;aspect=fixed;imageAspect=0;image=data:image/png,iVBORw0KGgoAAAANSUhEUgAAAlgAAAJYCAYAAAC+ZpjcAAAAAXNSR0IArs4c6QAAQABJREFUeAHsvQmAJFWVLnwi96y9unqnF/YGWZpNFgUBBVT2RRG3GZ/jNjPOmzfOOJu+Ecdx9Hc29bnrKDqOQI+sDSig0gqiQkN3A7I2dNN7Vy+1V+We//dFVlRnZWXkGpEZWXUOVGdmRNztuxH3fnHOueeKqCgCioAioAgoAoqAIqAIKAKKgCKgCCgCioAioAgoAoqAIqAIKAKKgCKgCCgCioAioAgoAoqAIqAIKAKKgCKgCCgCioAioAgoAoqAIqAIKAKKgCKgCCgCioAioAgoAoqAIqAIKAKKgCKgCCgCioAioAgoAoqAIqAIKAKKgCKgCCgCioAioAgoAoqAIqAIKAKKgCKgCCgCioAioAgoAoqAIqAIKAKKgCKgCCgCioAioAgoAoqAIqAIKAKKgCKgCCgCioAioAgoAoqAIqAIKAKKgCKgCCgCioAioAgoAoqAIqAIKAKKgCKgCCgCioAioAgoAoqAIqAIKAKKgCKgCCgCioAioAgoAoqAIqAIKAKKgCKgCCgCioAioAgoAoqAIqAIKAKKgCKgCCgCioAioAgoAoqAIqAIKAKKgCKgCCgCioAioAgoAoqAIqAIKAKKgCKgCCgCioAioAgoAoqAIqAIKAKKgCKgCCgCioAioAgoAoqAIqAIKAKKgCKgCCgCioAioAgoAoqAIqAIKAKKgCKgCCgCioAioAgoAoqAIqAIKAKKgCKgCCgCioAioAgoAoqAIqAIKAKKgCKgCCgCioAioAgoAoqAIqAIKAKKgCKgCCgCioAioAgoAoqAIqAIKAKKgCKgCCgCioAioAgoAoqAIqAIKAKKgCKgCCgCioAioAgoAoqAIqAIKAKKgCKgCCgCioAioAgoAoqAIqAIKAKKgCKgCCgCioAioAgoAoqAIqAIKAKKgCKgCCgCioAioAgoAoqAIqAIKAKKgCKgCCgCioAioAgoAoqAIqAIKAKKgCKgCCgCioAioAgoAoqAIqAIKAKKgCKgCCgCioAioAgoAoqAIqAIKAKKgCKgCCgCioAioAgoAoqAIqAIKAKKgCKgCCgCioAioAgoAoqAIqAIKAKKgCKgCCgCioAiUDECRsVX6oWKgCKgCDiAwJpHt0c7Ij0dmUC600gYCzJBY6FkZLFhGMuyRnaJkcFvn/RmRbqMbLY9K0a7GBJF0Tg0TQwMYGM4PI5rRnF2GBccxLF+wye70qnUzlAgtCctyb3+dPjARCQ5Egl0jl56jBGflov+UAQUAUXABQSUYLkAqmapCMx1BNZsz0Y7Dk70pbPJpUbWtzLryx4uWWMFcFkGQrQUn/OyhtEFhhQ1shIRwwiCYAk+c9Blszk2ZVKqQl5ViC7T8f/cp5Uwm8nwawKHY/gyjnKHkfIAju3C1dv92cy2jBhbxci8mkkH9wQ72w4o+SrEVn8rAopArQhMjma1Jtd0ioAiMNcRuGPDQE/Ql10m2eCxwOKETFaO9/mMI0GRDgOx6fP5fdFAMGTClCVxmvrLgPNYv3m6HJEys6j8H5A1DnAWcfNBrUUCx9/mMZSdTCZQhQy0YMYBfNkBzdlLRsb3XNbIPIvavSjhzl1XHWeMVF6oXqkIKAKKQA4BJVh6JygCikDFCNx4Y9Z35jUTS7OZxPEZw3c6mMpp4EWvESN7mGH4eoIgUqRJJomCBimThRYJRAb/VFxGIy+0yBbqLoYPf5MatGQijnZkD/iyxna04BnUfoP4jPUBv/HiZSd07GlkHbUsRUARaE0ElGC1Zr9prRWBhiFw2/p9SyL+4Ini878OpONs+DudiMKXBENhPytBU1xmkkxVSqRMulXAufJ/cmDib2PyX5ZTXFAjXGVdb10zY2DDgRnHrIuLfJrEC4TLZ5IuNhParkQiIZLZidKeAmn8rd9n/GY0Nfrs9act2VckCz2kCCgCcxyBasacOQ6VNl8RmBsI3PdSNpydGDsWJOI8tPhCEJjTQZxWhMJhP0lPJp0GoUrnNFMlIMlXWuXIUu5icBYogwzx8xN/0Arh05j8FBzHb4xMPGda9UCNeH2hZFCA+R9seeB30JaJpPEPv6fS/Mzik+eyOM7zuXPMJ78+/F0kex6eJiRdPr8f9TJ5paTAuIDRVqT+nZE11qWN9K/jJ3duvt4wUKqKIqAIzHUEZo5acx0Rbb8iMAcRWPNQf0e0O3JS1mdcDFJzESA4KRAI9ZBUkEyRVJmmPhtsLDKVIy5ZkzCRKAUCIqGAD3+GhIL4w2cQvwPgKCRVJFkkN6bGaHI0qmdQYvkU1if3d4hcpVIiSTCtRBKe76ksPjOSTPHPImaHtGHMoxzpolmRhMsPJpimBi+V2o9CNyDhA+mA8fNgqO1ZdZonkiqKwNxEoJ6xbG4ipq1WBGYJAve99FI4PXbYasmmLwUpwJ+cGAyFoiRSlpaqWFNNEkMCg5M04ZEoBUGcwkGfREL8w3f8kVjltFOTJGoyMzO99T3/R7HCHDiWT5SsAY/FkoDltF0kWVmJJ7MSi2dlIpHB99wxar8sEyRtjFb6YtUyyZYfjBIpoNwawbUbEHbiXviq/TR+YvvvVbNVDDU9pgjMXgRKjRezt9XaMkVgDiNw+8bhYwPp7GVGwHcVNEdnYIVfO0lVOp0y/amKQWNqg3CCAwZJUxjaqGjEJ234i4JUUTvlp6kPF/AaizcxndfFImDWYAjrIrCghgtkK56WcZIu/MVBvFIkXDjPa610xdpH3y0/yRYuTCaTgwhF8VuEpbgd6q77rzghuq1YGj2mCCgCswsBa0yZXa3S1igCisA0BB5cf7A7FgpcCKPW26GVuTgQCi3gw09SRQf1QjF50SQ5ghXM1E6RTHVEQajCNPmRQLQemSpsp91vc2DEP/wkDLCSShzmRBKtsYm0jMWo5SIpnQQJ19gRLvps+WEr5WKAVDK5E5n+BFq/NZn48K+vOGMp4nOpKAKKwGxEwBxHZmPDtE2KgCIgct/TsaPS6cTbMfvDQmWcgpV/RiqVNE2Ahfjka6lo8rMIVUebXyIw/+UTqlbQTBW2r97fJFAW4aLTfAwarbHxtIxMZKDlypkUy2m3qNUi2UrG4/AEMx5DDK5bErHEnded3bej3vppekVAEfAWAkqwvNUfWhtFoG4E1qxZ4+887vIzM9n0HyBS+dXwq1psmgBBrAod1ac0VRgJ6IDeDg1VFwhVR9Rvmv1o8uM1c5FQlesIi3DBamiaE8diaRkag3YLhItO9CbZAn7FBlk69QcCQbM/UqnUq1Bv/RjO///1lhM7NpUrV88rAopAayBQ7NlvjZprLRUBRWAaAt97aEtkXs/CN8Ei9QE4n18MbVV7KW0VE1NTRbNfdztIFYgVfyupmgZrRT/yyRYd5kdhRiTZGh3PabaYCa8pJtRo+aEeTMTjg7hqbTad/c/Y5o5Hrr9ewz0Uw0uPKQKtgoDNI98q1dd6KgKKwKPY9+/g/tHLxW98GGicD6f1QJpmwALfKmpUqI1iaASa/3o6/Ka2KgwndSVVzt1H+WSLjvLD4ykZHM1ptmha5KBbjGzRVysQDHIF4gQ0Wg/g7+vtA10/v/BCA4EkVBQBRaDVEFCC1Wo9pvVVBCYRWLt+V5sR6rwM0/WfYNZ+A+JW+RD8cqYZkKwKwpV/XdBU9XT6pT3C+E1q/ssh496/FtkisZqAY/zAaEqGQLbi0HKR7RYjWtyyh+ZDaB+5X8/96WTq612ndf3sQkOJlns9pTkrAs4joATLeUw1R0XAVQTWr88Gd/lHLkUogD+H6ul8TMZFiRV9g6iZorZqXmdAuqGxYjgFivpUudpFRTO3yJSp1YL58OBwylyNaPVTYSIGMqVGCysPwZozP5Vs6ouXre5dh3wmKXNhCv2tCCgCXkJACZaXekProgiUQWDthpELsMT/Y4ip9FZMvoFiGitO2NROdcKnqq/bL53RgBk5nbOyEqsyADfgtKXV4jY+oxMpEK20DINwIQqEqdEqHJRJtIIgWtgKcQJpb8NGQF+8/OSeJxpQVS1CEVAE6kCg8FmuIytNqggoAm4hcOeTB14T8Ic/BvPRDXCKbi8kVhZ5YhDQ7nafzO8OYEUg9s3DE07CpeJNBKz+YVytA0MwH46lzK17LBKWX2uaDoPBEJzhY4Ngyt9NZNJfvu603lfzr9HvioAi4B0ElGB5py+0JorADATWrh+eLwHjI/Cx+mgoHFmUsxZB1ZEn3MQ4CJUVndb7SKxgEqQntWqr8kDy+FcSKhr+GE+LRGsAflpcjUgCVijmljxmLK3EFnTyv3cEJ2668ISFo4XX6W9FQBFoLgJFHt/mVkhLVwQUAZE1a7L+6KrRa3yG7+99gcCpjALOqOv5Qs0UN03uaQ/Igp6A6WulxCofodb7bhGtCRCtfUNJGRiB6RCmxGJEyw9HeLLobDb9S2xk/dmrTu14sPVarDVWBGYvAkqwZm/fastaFIH7nxo+Lim+T8L35npoK4I0B+YLNVOwFpmxqxb2UmOV27NGNVb5KLX2d4to0XTYP5g0Vx4y6oZ5PL9pOECzIRzhx+EEf1Mqnvr81Wf2bc+/RL8rAopAcxBQgtUc3LVURWAGAmsezUajbaN/ZPiMv0WQ0MMQDwnaiUPmQItAdcLHamFv0IxhxQnXOj4jQz3Q8ghY/TuCLXn6B5KIqYX7AQS7kGhxc2mE6QDRir+AW+Izoye134K9kaD7UlEEFIFmIaAEq1nIa7mKQB4C9/5+4JRsOvhPcGS+jNuopGHzyReSqEjIkEUgVr1diPwNDZY6r+cjNLu/k1BRgzUIk+HegYS56TTNwYUDOMM6ZNKZNMzJN/t8mU9hteErsxsZbZ0i4F0ECp9P79ZUa6YIzEIE7nspG86MjX4o65NPBoPhhTNWB4JY+bEycD7CLSzsCZpxrJRYzcIbocIm0ReL+xzug9lw/yD9s7DbZIE6i7+hAYU2K/EyFkB86vKT2m/GsUOq0ArL0ssUAUWgPgSUYNWHn6ZWBGpG4PbfDR8biBifC/j819Lmk+/Ebpn9GHl9SV9QVwbWjPLsS2gO2vhnHJtK7z4IsyFWHIKHzzAbMhp8JpNO4e+mRDL+D9edsWD37ENDW6QIeBcBJVje7Rut2SxG4O6NI9djheDng+HQEckEdkSxGBXazK+MuL4IDux93UHToT3v9CxGRZtWDQKm2RD3CiPC7wXRiieyM0iWFaQU4T02gcB//KpTe3SlYTUg67WKQB0IKMGqAzxNqghUi8CD6w92xwKBfzB8/o/6/f4Q9pubysLUQuAX9wpcDK1VGzZhVnPgFDz6xQYBmg0nEhnZcwDxs0ZSJkEvsBrCZBgSkKxRyRif7ehu/+KFRxgxm+z0sCKgCDiEgBIsh4DUbBSBcgjcu/7gSZlg6ItYVv/GdDoJ880htxhqsEJBn0ms+uDEzglStVblENXzFgLW/TKAbXd2H0hIPDlTm8UApbkFFJkf+9KJv7pMo8Bb8OmnIuAKAkqwXIFVM1UEpiNwx6bB64K+4L8FA8GV2FMOJ6mvygmJFDdiXjofWqtw47VWh2pi1Wjm6rRDZ/SblxGwtFm79ifNFYeFKw2nHOAT8aezmeyfX35K50Nebo/WTRFoZQSUYLVy72ndPY8AVwmmxkf/ymcYn8QeghEEhJyqM4kVVwgumsdI7EEz9EIjtVYkVghRKhHUAbzO9JKmJg1BxCWezgqDKOkAARBaTEzfLPThfkSC3w2zYRp9OcNkiOCkyWRyEP39t1es7vgWiFcxnt1iLdfqKgLeQkDHT2/1h9ZmFiGw9gXsIxjz/bs/4H8vtAVc0TXVOvpWtUcMOWx+SDqxUrCRxIqV4GzKLQt7YJbE/zOEJGsQfj3wm3aFZBUOPNbsbn7iH2wAk6fjK24uzScNzM+YVNfkvs9o0rT8Zp6dfUeIzygCk+7YF5ex2Mx9Df3+gOC+RKCH1JdC2c5/ePNqY2z2oaAtUgSah0DhONe8mmjJisAsQuCeJ0aOl6DxDcS2ekMyeWiVoEUg5nX5TXIVxGrBZpAraqz64EQP5ZWtINyS7AfT4metkp89s+HG1PQ8o/sZgwuYxBO/0zw+CQ7x4DX5kr/K0jpOc1e+5JRwhuQ+uX8fvuMSfvonvzMFf+enrKN5+cV78juaam4avWt/AqsNJ8M55NUUgW2hRQ1IKpG4M5Px/elVp7XvyjutXxUBRaAOBPLHmTqy0aSKgCJgIXD3kwPn+4PBb2LrklUJhGCwhMTBB5vcYkRjZ0R2A0yAxxotfOjnh2kWLP/4j4NdHYTDdCWSn5tJotA4qEdA0LBRNdgTiVqOYHGD4pwWrVi++fkUO1/qWLGaMj/zb5JY+dHuwCThCqATGBXfJGN5GRfLJ+90S30lySLeDE66+0ASJkPgkQcyiWogiMCkicRj6VT2g1ed3vFUSzVQK6sIeBSBvMfMozXUaikCLYTA2k0jb8O+cF+Fv9VC7iVoCSe4MLRVyxaEpBthGGivasYkzjJpGpwPFVYlDz+1SvugxSpmKrTSM08SJ7j6CKJa4i8rSfxmWh7neUusNNbvZnwW1sfScAWAS5B7+oFwkIThpyn51zejvk6UaeKOf4bG0rKjnzGz0uaKwvy8Gf09nUy+nM1kPqjO7/nI6HdFoDYEvDDe1VZzTaUIeAyBtRtHPgJy9a9YDt+eH9+KRKMj6pMVi0JNWSWYDxPJQifsgj3Y17BS2R/PygQawRRWKmqoqJVKglAlzU8Sqpz5j/la1/F7K4hFoqw20qQYBMkKQr3FT/7mOeu6VmhTsTqiKTIOwry9PyEj8M/i73xBCBHuKNAPovUnV57Wc1v+Of2uCCgC1SFQ8HhVl1ivVgQUAZE1a7L+9lVjf42Q65+GWiCI3UmmYAHnkN7OgCxbGJRgoPH+VlMVmfxCgtCFenRDm1apHID6agLqKaZN4jMBUsU/EizLV6ry3CottfnXsb1sFzVcgMzUboVAuAJgJdRu8XwrCppj9uPOfUk5OJSaZi5ke7jFTjqbGcGO439x+equ/2zFNmqdFQEvIDAbx0Uv4Kp1mCMIrF+fDe4KjHzGHwh+HB7bPit4KIkVJ7IFPQHEtwp5ZrsbkoI2EIQ++GBVKjsn0jKcpKbqEKmqPHWlpXj7OotMkVjRfBiGKbGVyRbvTXSnGZS0f2Bm9Hc6vuNeTsB5628uX93xRW/3jtZOEfAmAnNtnPRmL2itWhKB723JRvqGhr+AN/4/M32NOGNBSK4w/5qbNC+kMzueMh7zinDl4AL4YFErU07o5P7iSMJc5VfB5eWymzXn2Z0kW9RmhaHV4l+rmRGt/uyH8zsDk/L25b1qCSO/Q02HNQqpT62/o/PzN95oWApL6xL9VAQUgRIIMM6giiKgCFSJwEMgV76h4f8IhcJ/msGyLCuMAIkU56XlMAkuALnyonCW5DzKAKOlhG3ZMZGSsdRMX51S6ebCOQs5OvYnYCqNM5oUPin5DvKtgEVH1G9uLj4KTWU+yeI9jc2ifXhbuHDpsROZYxd/7pF16z6da2QrNEzrqAg0GQFrnGhyNbR4RaB1ECC5Gia5CoY/AofgaeSKflbLF4bMDZubobXKn/1KPdw81wU/rE4bNRa5wi6Qq70x+Oi0Ttc0tabEnljRKT6CJYk0I1Krld8nTa1gicKpuRoaTcs2OL8nC/Yx9DG2iIE1DKn0jZfd2fFZQzVZJZDUU4rAIQR07DyEhX5TBMoiQHI1Ojz6HzALziBXIZCVFYtD0tWkyOxUR1MrRc5EzUoMLImxpwofcv7mpM/Vf4ghL90IOBpFOvACM27VOLQx++M5v6vCtGUB0gtMbIkbyVUEpkOSLYZ+8DrRIskaGQfJ2jNzs2gDJAvncyRrNUiWoeZCvdUVgXII6PhZDiE9rwhMIrDm978PRRPLvhAIRf48nU5O01wxxtVKkKuOtsZue8NJm75AJEhcHchYTpbAsieDcE6foG+NdRCfJFYTqbRp1iIR4yo5bpfDpPydguqN+eanyUuuX6tAgDjSEhuB3TjaAkSLJHsUN8zW3SRZmWk+WYdIVurvL1/d+QWcZPNUFAFFwAYBHUNtgNHDikA+AgzFED1m7DP+oP/vuKdgvs9VGDGlDge5aocvS6PNglA+mcTKzp+KhImBQqnJoo/Q+CSxsvywrDbmz5Q6KFioOPdJfFuFaFGTNUaSRU0W9qPkb0tMcyEUo5lU8i+vOK37y9Zx/VQEFIGZCOS97848qUcUAUUgh0D02JGP+4K+v8lg25dmkytO1nxwu6GxYkR2O3LFmnNSZ0zR4WRKBuJJxLNC/XE8b87kZeZvHis8bp7Uf+pGgLiC32LBQNrsh9EkHMrpRF53zs5nwJeEdgTG5UtDGAw+/6XB3LCcocCCgf/v7qeG3+d86ZqjIjB7EFCCNXv6UlviEgJ3PzH4Yby5/yOy92EbEbMUTjqhSbNgozVX1lY3nSi/kgeYGymPw9xTjFi5BJlma4OARbRGSbQSKaG/mxf7pSTJwqpZLC4Er/d/6e6nxq6yaaoeVgTmPAKVjM9zHiQFYO4icNfGkWv94dC/YEJBhHbskgvh5MPVgiux9Q2XuPO328Ii+LBaWiuaBisV7guo4i0ESLQYCX8EJGsQmsX4JHH3Ui2nSNaioPkykX8bpVMpbFzu74KG9Bv3bRh+vZfqrXVRBLyCQBXDtFeqrPVQBBqDwH3PjL/e7/d9DfsLdjIcA4WTTADL9VZg0uls0GpB0iNYAmEORFgFaK2qMSvRB2uowFnZbIj+4xkEGEdrKJ6SEZhxqW2spn/dboRJsrBwg/toBgK5+98qM5VMCjY1X5zxGd+954mR463j+qkIKAI5BJRg6Z2gCBRB4N6Nw8diq5DvBAKBRZxIKJxsGKF9GeJcdXcEGqK5YrmMVTUfKqsQl3hVIZyst48lTfNgdSmrKEQvrRsB9g1J9DiWfQ5Omg3rztTBDHjfd+NlgvHdEHVi2n2fTCQEq2qPzfjl23c9PbrIwWI1K0Wg5RFQgtXyXagNcBqBnz2X7cPaqW8GQuHjOIFYwtVU3FdwXpf75IoTLh3U58FDvYe+VlUyJGqtXhpJyoEE/GWqTGu1Vz8biwC7yTIbDoFoeUmbRQd9blp+2ILQjPspmYhJKBJ5vT+T/SLjxDUWNS1NEfAuAlD6qigCioCFwJrfZ0Ox+Mi/hsLRCxLxmHXYfGtf3BeUhb2NIVc0CfYiOBXjU1UjMdgE92DLEzpQF4ZiqCYfvba5CMTMrXcy0h4MmMFKm1ubXOnUZM3H5uVJ3GO7DySnmTJTibj4g8EbRoZHX8Eq208iECnfEVQUgTmNQJXD95zGShs/BxBoS478hS8QeF8yeUhzxYmlrzsgi+cFp5lH3ICDsxKsMaZJsBpyRQ1DfywNrVVCDsCfh/mo4sqNHmpMnqY2C504DKJMR3ivhHTgs8DnYD6eB95zljB0CReB+H2+j9/z1Nh7reP6qQjMZQR0DJ7Lva9tn4bAXU8OXxkIBn4EZtKev2Kws80nRywNI/iP+9udMBp7tY7s44giyn0DhxBbiaIP9bRunRU/eO91BP3m/oZ5vKYpbTPJH9jVlj1xGR6dHogUTu+STmf6JWNcccUpbY81pYJaqCLgEQRUg+WRjtBqNBeB27EKCisGv4Sl59PIVQQ+UMu5ggoOUW5NbMyXD+I8+FpxA+ZKCRLT7YPWavNoAlviwNcKvytNi0tVWggBbm/ElYaMxN9s4X3nx/OwfGFY2mDLplbLEoZvCAaDC8XIfO229fuWWMf1UxGYiwjoeDwXe13bPA2Bu57Pdvpjo7cFI5GLLb8rzhnc1+/wJWFXN282y8FT2AtiVSoi+7QK40cCfjA7oLUagBM7ZVY8yPDGzxoA3fTK53e2ioQzbwY3W3voH/Ma8zTCG3CmN/+gVWGa/Jn/UJKW/8Y9DduhKap24YPTDWf3jIxnZMvumIBXTXN+D4YjkoxPfH9XsvODHz7DyC3DdboCmp8i4HEE1Mnd4x2k1XMfAV9s7O8DoRDIVXyqME7tS7BisMvFWFfkBQwYSs1VsIrZcgikiuRqAqbBKpJNtc0LX0wihZgX/DRpFOKM+ZIxCcRGJDA+LMGJIQngzz8xLr7YqPjj4yBMJJO8OjeZZwJhSYfaJB1pl3S0XZJtvZJu65JktFvS4TbJBELIHw5tIFoG0hrY5mg2kK4JhHNIZZLQdgYaYrY2AS/yD/krzedcWbt97yGfRV5Kp3efL/AHSwOj6/HzK0WS6yFFYNYjkButZn0ztYGKQHEE1m4YvtoX8N+MKTti7rOGyzhxcLUU4/64JSRXiBsq82BigdtVRcJ67Y2lZDf+6GBcYbKK8nb9ImqnfIh6D8Ljy6RMIhUa3CPRA9sk2r9VIvgMDe0V/+ggyNQYyBbILq6DQw8+QYwYMZX8isAVNpzByfzIOxCUTDgKstUlqa4+ifUtldjCIyS24HCZ6Fsmic75kglGcllgw24Df60sfmDaBb+sIINTNVHYHTv2JaR/IDVNi0V/LDxTB4IZ32VvXt32uyZWUYtWBJqCQOFQ1ZRKaKGKQDMQuH/T4BGJrP8BaK+OTk2uGiSJ6cBGt3RqD7rkd0WOwP0E50F9xVhXlQh9cHaMp+RgK5kETVIFJTk+SZoiB3dIx47npGP7MxLdu1mCQ/2mdsokUmRNlnkQ15ssysQmDyCySmjtzPgThaCx4yj8NP8YpAJ/zCsUllRHjyQWLJexZcfL6PITZWzJMZLoWgDSh/q1KNlii0mtOkMBiYJkTSKAI40V9hDjd72yC07vMBnma1WDwB5xsn4TDGQvf8sJ3QcbWzMtTRFoLgJ5o1dzK6KlKwKNRGB9NhvcvWn0B6Fw5IYEAiVSOEGRVB0FctUGkmXN2eZJh/5hGchaeqsgVxOIifTqWErGYBpqhQeWpCULrVIgMS7tezZL1yvr8feEhPdtER/MfyawJFPUPFlkqhp8qc0i0SKYlYhFuCwTYSgoyZ5FMr7yNTJ8zFkyvGK1xHsWmxo2ganSNCVWkq+HruEKwzbu4dQkYTdOxDLy8q6YIKrEtPvUJFnx2L9dvrrz4xofq0kdpMU2BYFWGK+bAowWOrsRuHvjyIf8fv83stkMfKMPzdTcBmcBzIN5hxwDgqVUS64YemE7yFUMGgJqKzwrmGFNbRC0RtEDO6Tnpd9Iz/OPSHT3S2LAh8okUjARmloqJxpRSptVLn+LcNFECFKSAtkaOeoUGTzhAhleuVpSMDG2olaLBItEq1lCknVgKCXbCvyxsJcnuLAxAUb89stPar+3WfXTchWBRiOgBKvRiGt5TUfgzidHXoOwCw8ioOjSdCq3wInzdR+2wFm52B2/q1rI1f54WnaOJ01ljWcfVMyqGX9Q/PCZ6tzxjMx76kHp2vxbCQzvQz+j1k6SqmJ3ThLIUqNVq+STrVBI4ocdLQdPepMcfM35EutdamrbDPqCtYAQBZNkgWiR7DRLtvcnZN8gFi3k1SEQDAnM8E/7AsYll53QsadZddNyFYFGItC8151GtlLLUgQmEeBWOKFs/GswDZ6Z73cVhbM5yRXjXTktnPgsh/ZKsuf1/djuhuSKbtjO18iJFoJYYZWeP5WQHhCq5T/7hix++IfStv33OQd1kK4cuXK59hagdLmqRchETHMlhkKw7MBAv3S+9JjMe+ERCY8dkAS0W8mOecgZ4SLcUGvWUmebNESavnqsZghao2aQLJbJ2Fgj42lJ5oVu4AKSYDi8KJ1IRFYtjty/bt063uYqisCsRsDl0W9WY6eNa0EE1m4a/gCWj38r3zTISeFwkCtuZktNlpPC7BCrVPoqXC3IyZFR2fdgpSDFiw9oFuTJSCelZ8t6Wfi726Rjy5OY2bFMn6SqGbM6garWL4tpSgnNhwjtkJ63SA6eeon0n34FViIuR7u976PFe64NqyppLmxGd1BzNTiWli1wes/npAZJH0yF2MT6uitPbv9JKfj1nCIwGxDw4vg9G3DVNngQgXueGjwSjkK/8AVCK/NNgwsnQzI4zK1yTvMkV2BYlcS54n5zO0GuuKegFx9Mhlmgtqdj57Oy+De3StcLj4qRgGtNM4lV/n3mNMli3pNEK7VgqfSffY3sP/UySbT3is80LTt9x+Q3pr7vzSZZJHY7Ebph78HpoRuCMMMmE4knkrHsm689q+tAfa3U1IqAtxFQE6G3+0dr5xACa9Zk/YF5yX8JhaMX5psGac7gVjjc+sNJ4QTHLOeBXIXynVFsCiG5YhgGbn3TDK2DTbUmD+fMgeHRA7L0kf+S5fd/VaIIt2Bu6uPPhWEonb5BZ4kzu9FJ3jNpPvSNjUjni49J96sbJI2QD7H5K8xVh15dcUgYkrinqEEKIYQDfzdSeA+3IRbJDFMh4poFg6GlWSMVu/kbn1/XyDppWYpAoxFo9HPX6PZpeYqAicDaDUOX+oLB27BiMJJl4EoIJ4GVi8Myr9PvuGmQD1YvyFVbBcSN5Go7yNV+D5Iraq3MtsAnaem6myS8+0X4VoFUMcSCV4WaLDq/uyEwjUo4LAOnXSK73vBeic1bJoaHtVlEob1JqwtNU+EoTIW7p5sKsd+n4Bk8mM0aF1+xuh32ZRVFYHYioARrdvartioPgQdfPtgdGwncHwxFzkoyQjiEb/Z9XX5ZAYLlhnRj+5vOCkK00+drB5zZvai5yvpDEjK1Vj+QeU/cI4bpZwVy1QrCOFn8c0N484BoJZYcLrsu+aAcPP4NDEPg6cjw7fDHItFqtHCC2VZkVWEIJDURi925JNV5/Rm6V2Gju0XLaxACHn4NbRACWsysRyA2EvojfzB0iFyhxSEQoEV9cNZ2+BWDUzq2L6yIXPFaOrTvQzgGp+tRV6eiMlwh2LVtoxx9y99J329+bDp3C82BrSIktxVoD2tqDjsL+IT2bJOVt3xGVtz/FXPrHxiha8quEYnGEE+Nexg6fLuXrzoKXNQblAi0ueSllsAPC0pQ/xW7A6PXWsf0UxGYbQg0/HmbbQBqe7yNAB3bsxn/L/3BwLJ0KrcyjwM9A4ou6nV21SDnD26B04co7RW4XclukCsSLC89hKZJEAAtevJuWfLQd8U3OmCSCW/3sk3t2CFJmINrDeFgk+20w4wOjzhZY6tOl22X/rmMLT4GDvDTNz6edn0Tf/A+60IU+wiIZx7Xcb1G5KP7EIB0+9449XxT5cEXiw7vG5Px7EXq8D4Fi36ZRQioBmsWdaY2ZSYCmYz//4QikWnkinsN0jyY/0Y9M2V1RzhhQSkmPfinEnJFrRUJ1qHpprry3LiaGhh/fFxWPvAVOey+L+e2tYGmpmWF4AYwxLkJMp3gYUptf/4JOfqHfy99zz8sDGPhLZVkrgd5j44gOFUCdmk3ISm8X/ic0c+xs236DglJmJyxD+gp2H/7/YVp9LciMBsQaORzNhvw0ja0EAJ3bxh6LbbDeRChBboZ6JDCt+kjloSlp8NZx3Y+SFwxGK3ALDUIrcrW0SQc6xupRzCbb/sPSUF4uF9W3vcf0vncw94JvWBb4ypOuOmPlV8NxMjKtrfLrrd8WPaecTUIPIgMNVwekwDeAHqwQbSPD0ODhEUNj2WwIXRs2ouNPxDA9o/pbamM//xrTo1ubVB1tBhFoCEIqAarITBrIY1GgGEZDMP3l4FQeIpckc+QWHXBScrJgKKkSZ3QXFVCrrhh87YxRGj3ELnKQAPTho2Yj/rxp0CufpUzCTZw8nX93qA/ViNGOmgAjfFxOWztl2XZuu+JD+SKm157TRjtfQQ+WY2k97zdu9p8M4L50mwfCoVWBIzkR72Gk9ZHEagXAe89/fW2SNMrAkAgumrsAp/fdyXNEJYEMNEuhMOtk9yBkxQ3cO6oQHNF0wzJFSe4xukOrNYX/yS56tj9vBx126cl+urTIFfurKosXnoDj9JU2AhhMFaQ6IU/u0lWPPh1bCUErRaPeUh478XTGRkHyWqooOCF8HsMFayuTUPzh4fyffdsGjmxofXRwhQBlxFo0Kjjcis0e0UgD4H167NBIyt/4Q8Eo1bMK2qs6HfF4IdOKo/IqxiSoZzfFcvfPpaScZirPEOu4F/Vsfs5OfL2z0ho9+bWdWbP63vbrxzpCiZ222vrPUG/rCz8/H51q7nC0I84WVnDWySLTRxLpSXWwJWFfO6452df93T/xzSCj4ZCkT6o1KjF8srjUe9doOkVgYYozhVmRaChCOwNjr3J8PsuTiURFBJCLVMYJGh+t8PL6JFxNybtSrbB4d6Cg9AYOKk9MxtX4z8Mw9C56wWQq3+SUP/W2U2uLIzIcRo1fZsdHZB5j94hKx74qviw0jBL4uUxGQXJYsT3Rsr8bvj7FYRtSCGuGGrxjrVPDpzcyLpoWYqAmwh474l3s7Wa96xHgNqrdCbzv+E8G8KGzrn2YuTu6wpgUHdOe8UpqQ0TdlsFWpGBREb2THhnf8EMHNrpc3X4XZ+rn1xxcjZDFTBcweRfgyfsim9qkp4KTLkV51fuQpNk+U2StXzdf5rcLusVhj1Zd/oCjjbQH4u3hvWyw2fIkgy1WOFIDzR9f4JjjaLBVvH6qQi4goASLFdg1UybhQC1VyBXb8rfb5BBDvsc1l5RF9YFrVi5mSCGbVt2IlI7doVrFiTTys1im5vIyD45Yu2/YNubl2rXXHGmJKEKICRBV4/IgkVwsFkMJrsArLOdPjU54jWtdA/8IMEq12lOVtPEAdrTX94iS397K5ztG6lGK98QQpFosD8Wn4R5eOGJFtFiGT7j+ns3DKwuX3O9QhHwPgIO20y832Ct4exF4KGHsoExGflIMBAOJRKxqYaa2iuQIfpBOSHkFl2YHLjcvZSwPG7gHAfJ8oLigs7WgcS4rLjvixLdshGBu2p0aCcAIcTHMgnVfKgkItP3JuTefKNjIv17RAYOgGjhei8AwM5il5FkubWNTrEbgqZB+DotfvC7kuicL/tOfjP2Lzy0+KJYkkYfG+cmzNgUupKNyeutm3n7QPM7vycg2/uTU3zX0mLFJ8Y/iDL+tN5yNL0i0GwEVIPV7B7Q8h1DYGzeyDli+C9OTU5eHMjp69HbiQCHDpXCfKIVmgb74Xc15BW/KxAcA4Ac9svvSdezv6qdXFFr1dUtctwJIstXAoy2SW0VkCHg/KNWq7dX5JhVIkcchd94j+Nxr0gzlEgM1xCLI4DrV6Tr1Y3C1ZteEr4MjCIIaaO6iXcDn8tCLVYa5BzhVd5+73OxY72Ej9ZFEagFASVYtaCmaTyHwI03Zn1Z8X0AkaHbMiQBkzIPg3iowBRhnavlk3NzJabBUWgs9sQavAy+RIMYSHThxvtk/u9uhwanRsW1Ra6OBnFq78iZCIvNyDxm9cGipSBZR6NMIucRoTatjPbRlZpCg+iHRm/FvV+UyNBuLDSssR9cqBwVewwfwpWFjRDeIgzXQO1yvnBFYTAcXpBNJP8g/7h+VwRaEQElWK3Ya1rnGQicesUAYuhkr+AbMIVvyNzQeR5CMzglzLMdk0I5MwosgvC7SpnBRDlxNVuoLenc/rQs+fl3QHwwgdZkruOMCK3L4UfiE6ZFi0CVaxzLmw+/rCUgWtaig3JpGnHeuduiutoyYv6rL8jyn31TfGmYCWvqi+qKrPRq3qsTIDiM19YIYSk9eAGi03s+T+euC4iC/66fPju2pBH10DIUAbcQUILlFrKab0MR8PkD78YqpF76cVA4YDNqu5MrBzEPSGcFqwZpGqQGywvkin5XofEBWf7g18Q/Cn8o08m6hq7hpEufq47O6okSO2Mh5soonN/zZ9IaquFYElOL5Vhu1WXkC0r3hp/JovV3wlQIc6qHhN08RlNhA+rEW4Em/B7sU5hfHqO7B4KhI5KJ1HUNqIYWoQi4hoASLNeg1YwbhQDfdA3DeJsZEXqy0AA0FFyp5JRwMiC5KmdZYiDRfg+ZBqEikaW//m9EaX+q9hWDBJF+VfP6aiNI5kwKrVfvvNrSO9WJ+fmQ/ZbrzPzrnfxOcpcxZNG6H0oXNIteIlmEhabCCZgKG/WCwOc0WPCo4nlGTYz33r8pC1auogi0JgJKsFqz37TWeQikUpkrELX9SGwaax7lWzj3G2xD1GgnFCZ8u45gMm4rE0OJ5e6aSGLBmDeitTOYaO/Lv5O+9XeDTBTMYHn4lf1KEKNYKRiJlr205AWdcI730t58zRz9sLLQP3hQlsFsG4yPgks0szIze20cGtiUEw/PzKynHTFvLcSn6y7YHzQFU7/P5z8tYYyfPy2B/lAEWggBbz3VLQScVtUbCCA0QySTzr7bMCduUqHcHE7ndqfcW/iQdEKBUy6/gUQaqwZhGmzUq7/ZWpt/aBocG5Cl2HTYiI/XOYEDV/pdEeNaJ12mow+XaaLM9ZNNzRt3mBqsZvYVA76+tF4WPrEWWqw6CLALiDEA6XijtFjog3l4wBAlYkrggyX+YCiAYMHv4QKWqRP6RRFoIQT0xm2hztKqzkRgom/0LH/Af2Z+YNF2aK46sQMzNUr1CrOIwNwYLqO9olmF2+F4Reh7tfDxOyWy4/dYwVennw9ByJls6mse8yChcaBf6qtIXuoy/Zp3pTtf04YseHSNtPdvlqyHSBa7KYYApIlKFzPUgQ65d3vUkPaCfULT2D4H7u+XnH7tiIZsqANfTdo8BJRgNQ97LdkBBODydD0cYiN846XwXzrN+h2aOPmAdMD3ihNOKdkHv6uYRzZy5kTdvvtFWQAnasQFK1Xtys6x8dzXsd5VgFzhyQnbEyq+yaY3ewQEEQ4c2CtLfn2rGCaZKXenVdZlTlzFF5RxaGQbIX5oE3vx3CJY21RxXLASDEb6fJnM1VMH9Ysi0EIINHt4aSGotKpeQ+CuJ/cthcnqUsu5nUMzl3zTn+PQMF17rZmHqb0q4wzN7XD2xxn+oPaynEsJMoiJevHv/kf8w/snTXL15o6GxREZnySrVnLEdOMwVTZAI1JVay2tWlWJHL7YCEj30w9Jz9YnJMPFBB4R3s5x9Fccmiy3b20+a13tiFkXnO43yS2mMj7fters7pGbQqtRFQJKsKqCSy/2EgI+f+iiQCBweH5ohk7swBwuGKRrrbOlvSqXfi+0V4wd5PYkVK4ePM8JumvbJul+9pe1BxQtLIgkJB4XGR6qnWAxHhacumv24Sqsk1O/2WnN7jg4uBtjY7IQpkJ/cgL18c6wTOJDh3cnXlhKdRkV0Ixb143nN7+sXGR3/+qEjJ1dKr2eUwS8iIB3nmQvoqN18iwCa9Zk/Vjqfg3iX2HOzg3JtArSPFirkiW/scyR2qtyQUXHMPkchHO7E2Xml1/bd4SRwDZBCx+7XYwY9gJ0dKIGItxbEDGKqm4sneMHB3MEzUurCC2Qy2gorctc/URsrI6XnpDel37rKYd3cs8ktFj0x2oED2XsuvxbhM92MIjVEdmsmgldvQE1czcQUILlBqqap+sIdK4aOdrwGecyKCGFHCscNqSjwFG21opwMmkHYys1qZCEMeZV2ivaKzizd726STo3P1a/Y3shcCRrI8OIQ7Gj8Ezp30wXg3lx+6veMw9aNS/VydY1bn+aWsKELHj8LvEnvKfFmmiAFouqqzY8v4XhVbh9Dp7wS9auH8bO4iqKQOsgoASrdfpKa5qHAGJNXYRl3PO5rQaFZKcbPhwBkCJ+r0eYnpqrcBnNBrVXg14JywAq6MukZMGGeyfDMrjAGkgCSLBMkoXv5dR2VEXQd+uVl2BnYqwnF+pUT0dbab1SL8Qqa98C8+7WJ+ekFovPHZ/fQh/KTDqFtRr+o8Uv51pdpp+KQCsgoASrFXpJ6zgNgRsfeiiQ9RmX5aI9504FcCcXDszTElXxgzQAXK0sH+DKQe9orzA573lxUnvlZkwlTIPURr38Ys5pneSERIp/1FZZ37kEbf8+kRcQJmJwIHeuij5o6KXscP41W4gltH3zN/wEpl4sKPBEpXKgkPw0QovFcrrgh8WdGCyZNBP6AM/l1jH9VARaAQE3R+JWaL/WsQUROL3v9KMx+Zw5tbEzRuUoTAtRmAgn3bHqahWiMki0jPaKW+IMe0Z7heaizn3P/Fx84/B1CiAoqGsyyUT27RUZAnHq7kEUVkRoDyPSO0/RnMPVgjw3OpKz3ZJ0eVkmm+SJKmJFYcfm9dIBsjx82GuwITSJVvOFEKXgi5WAL1YYEUFJhNwQPr9RxLFrC/tlZPyQbyPNhFlDLrjvpZEFlx7TCeauogh4HwElWN7vI61hIQIZ/wWBkL8vxbABEA72nQjNwFg6VJzUI0wehZmiDL+SA/GUuWdbuevqqUulaRlUNDy0V7pf+LVDYRkqKJmkifjv689pqqh94R/DMHCW5IxMjRaPtYKwnk6w83rbCsx8I0PSi1WgJFheEkbEorN7KD/kugsV5K3V1e6TYRKsyfxpJsTWOYdnx9Jn4dA9LhSrWSoCjiPg8VdLx9urGbY4AjdmsW2GL32Jwcl7UmgepFmhTm5l5sZckVVJiYPFecf3CrwABKvn5fUSPLALBKuB70wkJZwNLRJlEivr2KH+KQmmV05aM7kn6uOTnud/LZHRA9DalLkZG1hfQsS4WNxr001h7h3RmWZCBBT2ZwzjYjfL1rwVAScRaLFR0Mmma16tiMDpTwwsQ3iGM/NjX0VChkRgHqyXYXFgh2VCgmXUUgMIKppAcFFvzMmG+BGaoef5h9H+nMN/K/Zr0+vsjc7MwQBSFezfLp2IZ+al7XNYOXIrt0M25MyEhkSxCXS+UjH3zGcvuO+32a6m3y9aAUWgAgSUYFUAkl7iHQSyvuBrfX7f0vzVg3zbpXmw3vdq7tLRBvNgKQGvQtwrbvdS6qrGnaP2KnJgu7TtfLax2qvGNXHulUSNIMyvPTD5GlgZ6iXhbc/I7nwO3BQ+zwwanF9M7pn3HSPRYW/ZTt0EQvNuaQSUYLV09829ysMyeAFMBYYVXJTKJg7ETvAdmhojZbRXI8m0TDQo6GIlvZuFia5r6wbxj8KpnOY6ldoQcOIGqq3k4qmgxWrb+rSEh/tNE3Dxi5pzNA21EjeBdhMyEquONp/kv+9kUCZijkbTGeMNzWm5lqoIVIeAjsjV4aVXNxGBNQ/1d2BUf92U9gqjMLfX4ArC/DfdWqrI9Ix7VYZfmdqrfLNFLWU5lwb1xSqzrlce94aDtnMNa3xObrKFWlqDN4ngwF7p2Pmc5wgWn5VYAwKP0kQYgvm/8HmDgu8N5k4OteCqaRSBBiKgBKuBYGtR9SHQ0dt+DJjEsZb/FXNj1GczuGidDIvzK7fGKSXc1HnUQ6EZqL0KD+6R6K6XoL0qU/lSDdNzQMBjDGvSTNi55UmButZTPUSkklk4u7tYL2bN57odD2V+6/nsZw3jlI5VE0s8BYpWRhEogoASrCKg6CFvIpCW5FmBYLiDpgJLOqJYVFjn3MgBHIqwspHbh0CukvDyrbM4q+p1f9L/qn3vZglgtZmz+w7WXbXWy8ArnZqPHBbMtu94TgIxxBPLWzWbf0mzvtPZnb5YbsJGjtkenb5dFbXXWEG8OJ1Jntystmu5ikClCCjBqhQpva7pCBhG4Oz88AwMx9NW8IZbayW5NU4pokZKNwT/K1dnlGorj0muY/szCO5ZwwbM1Zal1zceAZCq8IGdEhnYCa2N94ZqrqQ99KrjPDx88WnHsl5qsiwxo7qHQnC69J1tHdNPRcCrCHjvqfUqUlqvpiJw328PdGUle2p2MhQBTQhBqJ3CVD1xJK5DOHyXMw/SsX0M0ds9I3i99ycnpG03tqzxFOvzDEKtXxGQKmNsRNr2bIYflreGaj4zKZoJ3YyJhceNPpbh4HQXQ5IsnDpL/bBa/xaf7S3w1lM729HW9tWMQDoUPgLD7BGW/xWpDrfT8OPttl7awxfkchs7c1scr+w7SBCp0QjBNBg6uFNXD9Z8V+UnxF1E1uAlYX1gDieJ9pofFmEit3JzNSGfaz7fUTzn+c+4OQYYcnz02InFrIeKIuBVBBoY9tmrEGi9vILAXc/v62zPhkPDqJARS6evPqVnCBs6m2Nr1pc+ORAIdaZpDpuUtkjOrFfPSzQzL7d6kGaQEcS+ok+IZwQEKzKwWwJj2HvQg+Yjz+DU6hXBBnzR/q3iS8ZyQUdddCyvBSrTTIhZxK1Hg/nyOTeGDtWOPpjQ7cEPK30Uju68Y8NATzbi9zP66NiBeOKqcxfAaU1FEWg+Akqwmt8Hc74Ga58cfJPh938gG5eTJrLZMG9Kwx9M3ff0+Mtrn5r40cTzkVsNGVrt9wfgbpQjWKb/VcGbba1AYjV4SYnD12Tc7ciKJWsw8yQ1WJH9r8JOk8BrPmwoKrMTAfRzcGCPBCeGJN65AJos70TrJ/mhmZBxsQIuvX3wBYgaLL8/aW5zyU7Ookyfzxf0S+Zj92wa+RiuOS4bz/oncM7fGY3ds3FkUzKb+s41p/au4/UqikCzEFCC1SzktVwTgXs3jnzYCPj/zR8Itee0U6bCyjyHzV2Pk1Tq0ugxw+eCcZ04ZR7EJaGAYfpn1Asjgxsg0kNJYWgG0zzo1mt6ydJtTmKSYQR3wafKLEYAxCUwNiShkX0S71rouYaaZkL4JwYD0814TlaUfpZBPO+xOFbwTj6D1GJBo32VAd80Ky5erkz4JgYCJ/oSiavu3jjyl1ee0vktJ+uieSkC1SBQZmqpJiu9VhGoDoG1G0YuyEj2C3gdbU/EJ6CdSpoaKmqp+JdMxPm2avgCwT9GzuemcN6SMAIQ4hV2RhBC63wln6RyGLfLvn2PgGAdon2V5Oz2NQwwmpIwTITuGWfcboPmXxkCMI/h2QgN7fPkSkK2gaFL3Ho+aBGlH5a5mKUAMI4HHCOs8SL3mZREDLosv68D3gVfuGfTwfMKkulPRaBhCCjBahjUWtAMBHzyz/5AsCuNfdfshCuGJt9Qp/RHHMwjsOsZpeIq2GVYcJwbO1tvxQWnzJ+cPMYZ72eq9GJXNfYYAi2aKwg1/pWTuHuog/ObxRsPwTUZUNaLZJqocSVhxkXfMD7mUURmqIbEcUzB2NIt2eA/5sOp3xWBRiKgBKuRaGtZhQick++0XnjS7jcH9Wh4egBCu2tLHseIXc48OIHQDB7a2znXHBKs+Lj4J7AcwEvMryTYerJmBEBggsP7kLwailFzaVUnpA8Wo7rzuXRLIjU879RoQbemGiy3OkXzLYuAEqyyEOkFXkOAIYHCsA/WO90wPEOwzBMwBu2Vm2/ntWELv5zYsEmylGDVhmCrpQqNHRQfoph7UfgcUtPrljBnaqy5sKVqgSNn1Wk0gSLgEAK13LIOFa3ZKALVI0BLBCM7h+pcOMdBmwTLX0IDxGs8FVzUgmtSg+VLxXHETb2BVaB+NhcBaCwRcNQgwSpxvzazjm76YbFdQSzHCsBhsmpLZNUJmomilj3bEFCCNdt6dA60hyuKzACjZEB1CJeWl3Ljom9JzGP+V2yu6YMFEyF9c1TmBgI+9LeRFwPOS60mxecqW7c0veRIfjyofO5VFIFWQkAJViv1ltbVNAty+4xSmqdKYSpnHoxj0khicPfisB6Ij4Jp1aDRYGOsv0KgrONebHBhXefUb/gbJmIgWAnc/97snJwflnvPig8EK4wHts53qjl112hjm4+AxsFqfh9oDapEgAMtLSX1av/LESw6uPOt3ItTmpHGyksCUKpyPMcZyfrL4ADDZvEPEcJnzFa8noHz+dpl/k1+x0+zHOajUhwBE5tJTPO/W1cTV+JLyf+eO1L2Xx/626s+WFblU4hNFXbJ5YnQFQvVYJWtn4qAFxFQguXFXtE62SLAgTbkwF1L/lDO4jCB6O0mh7EmRttaNfoENBqM4F6MYbKunODT+MKg9ym0lJ8kVzxu/eGrrTAP68+PBHQTDoCVEXf+5jnmM5uEbapGTLKKRNanSVjxuxwuZjm4yFfkz658vE0YyQQ0WKHfbpgAAEAASURBVCDV5puF3YXNO85mu73ZAf0uq+2m5iGiJSsCuSFTcVAEWgYBzi+hQP2mAjq4+5iZjXDCiOONvMQlNikbdLjYqi26ZCVAqJJoVwp/bAT/CptZ+LtYla20JBDgcoikn8sngBNB/IVAuOba+ixikQa+JK8ZfBKjasVMw3z4l5eYhMtPTPHH7zg9Tehvh/vRy2LGw0IFC6vuRJ0JWxDPPVcQF3uvcKIMzUMRcBoBB3QBTldJ81ME7BGgU3oQPlj1CAdr+nCVc3DnHoSelfwNnkmo4ph5EvgsrHJ9UOWab+XBvFkW/yZQXggHwpj0Sbhmq7BpJFXUBNZKqirBxtSEgbEm8ecDpiSyFtliejILl8xvlVSv3DW8RWhOZ2BgbNBe7vKazgfxVsSXIrdjbtVUOU2kCBRBQAlWEVD0kDcR4JurnysIMdfUKzQPlpoG6NwOFyxPShYTTSYUntRWcVJGS1jXUg1yuiUsL4YC4yifBCs6y4gW22eaV9E+kp9GComcpTUMQHMFwpXFht4ZbHbuZSHB4jsJtcOEz2nhymE/uiNFzV+Du8Tptmh+cwMBB6aquQGUttIbCGBP2dwKwjpHcE4CpSSBmcJrDu5ZajAwyXa/uEH6fvlTkVFMuCRXlDLtyV3k8L9WmdScDaNuI/ij6atVxao6iVUMDj8J4NtocpWPHe9xarRQF99IUkKD+0G0UCeXNET5RdfyndXlakI3hNlSiRcopXZ2o2DNUxGoAwFvvxLV0TBNOjsRYJBR7kFY7zBezsE9Ycb1waBuTbpNhjMbCEpwZEAW/+JWmf/IveIbH8Ns45HH18Ioji8kBNRmRfBnHW8ydhUXT81RDH80CXpJ4P8WODAgR37n07L3outl/5lvkUww5Lm4WG4SLHYHzYNeueW9dHtoXbyLgEdGaO8CpDXzDgIcwBlwsN4XeM77ZTVYxZzImwEFGkutRefmjbLszm9J25ZnMdPgsa12pqEKgJHApzlK4xh9uUytA9GdZEQEmOoCnqsGbCZnNuNIR81aG8prhRGGdSaxol8Zv9csSMz0xHMKU2YGLIij9VdL/uiL0P49svzWL0vX80/Kjiv+SGKLV5qrC2vJzq00brotEj6+YBFifFVRBDyPQCsMf54HUSvYOARMDRZGV3P+qrFYDs7lNFPUYDVdzCVTIoseuUuWrP2e+EeHMMOEKqwW6m+tPKPjSlu7SE+fyLyFIr347OqFlqkNjurw5WKE8Di23RnH5tFDAyIHsbEw/4YHYSaLoTwgRvMk61OpkGANY3hphyaLjvBeFVZtDG2jmbNa4U1IjLPU1iE9tEoSAZ6RKPoJnyTB1jVJ4BibyOGcmoxhRjyJK9NWIuxH5Nf95C8lunOz7LjmIzJw8nk5TVY9D0QlZVd4TQbPjZtPTsB0wKQTlooi4H0ElGB5v4+0hnkI0NGV01E9gzjJVckQDcice6tVOu/lVc+xr/S38ifjsuQnN8mih27HRI5JHGbCskINFQlTCJP9YStFjj1JZNXJIiuOArlanCNV5YgSYi4Jydye7SKvPCfy/CaRrS+IDIJ8EX1O9JWAw04aBYkgiaHZ0EvCm4gkcAz1Y0iLSsUkTAwsBmnvFFm8XGQlsCW+i5aBxM7PkdkwSBbJE4Wawxi2NhpH9P2D/cB1h8i2zbm/vbtwHOZeagsrwXWSyIX27ZbDf/A5CV+2W/a+4VrEjUXwXRK9Jgvc8V3TMLGXCJGKItAqCCjBapWe0nqaCCAUTl3COZ8DdakpldOUW866lVTeJFeYkFfe9v+k97cPYFbBY1puZrGIVc88kZNfK3LmhSLHgFy1d1VS5PRrqInpXZD7O/40kbe+U6QfpGDTb0R+t05kC8gWtTCVOlzTZEhn8XYPaR6osRrFbF0pJ7HwjULrtwq4nnqOyGtOzxGsUGQ6fsV+sR+gOJTlR4usnrwgBmK1a6vIM+tFNgDbV0G6EvEckS5HYIG9D1rHw+74pgSHDsjOy96PVYbB3IbQxcpvwDEgairs3AzVQAUWy1FRBFoBASVYrdBLWkcTAXpflOMZlUBFDVap+Yvkyk1fklJ1JLkKYOI9/NZ/l+7HHyo/2VKjQrJDs9/rLxY571Joro4oVUT156jxWrwi93fhVSJPPybysztEnoNmKwVtTiX+YAzpwMik9Mtq9gxpkSuy7XJi4dvVI3L660XOfYvIUSdUpk0sl3cEZtsjkRf/3vIOaAo3ijx8H4gs8DUXMTB0eQmwqCFD/Rb+bI34cA9su+rDpr+eMc3PrlwlnD1P/VUlsNZaqq4irBU5TdcMBJRgNQN1LbM2BDDZlDLtVZoplWAlpi2EZ4Biw81ZwqaiWRAZmgVXQHNlkitqkkoJyQ1Nga+/CFqmG0SWHVnqamfOUVtz+hughTlbZP06kXtuhvkQmheaL0uRAZZukaxmarKqIVckrmG093VvEnnz22AKXOUMhsVyIa4nA9OTzxJ5AcT1J7fmiBbNvdQU2gkxx6KH+evuNPHfdiVIFohXs8yFuWcni22o6l/pW9hkPpLc9LncbVaYTn8rAs1CoMST26wqabmKQHEESIo4wNbLfXJeXMXL4FFqr2g5KkXC7FPXeAazBifFw+79T5gFHyytIbG0KitAqN72AZHTzqux0DqS0dn+7EtgJjtD5N4fifz87px5qxQZYHEkWdSINdoni51p+lxR61Om3Ra+x7xG5Nr/JXISiE/DBBVddUrOvPvYL0Tu+IHIzq2lCaxJsvwy/6E7JBVtl11veR9qi3zYjiYInx23pJz7oFvlar6KQC0IKMGqBTVN0xwEMGfQvFevlMvD9L9q8OTEUAyL190mCx6CJoIkxe41nY7MNAFRa3X9R+DXs6heOOpL3wWfr3d+FITgRJGbvy5Cp+1ymjf6ZBmY/CMNJAB0/7Ic7ku1mKsCafK89HqRK98r0tFT6mr3ztH8dzZMvkcD1x9/R+Q3IFu8J+0YhkmyfLLogVsk2bNI+l93eW5DcPdqaJuzm48ONdhsqptl2DZMTygCVSKgBKtKwPTy5iFAbuWIibAMSTP3VGtgMxk0svv59bL4vu/nSrUjVyRWdEK7ChP/Fe8BEYAWyStyxgU5H63v/ovIi89UQLLQDm4Dw212GsGz6NDO1YKl+p7muE4QqneBuL7+rd5Adv4SkQ/9XW6VIrVZ8VjuHihWO64kBEFcuvY7MrFouQwfdbLpm1XsUreOsSv5/LglpbrPrTI1X0WgVgTwKqmiCLQQAg0YYUFjGjLnE3X6y4QH98myu74p/rERew0Fl/rTz+ldfyJyzfu9Ra6s24c+YH/2aZFTYFJjqIdSQpDN1YWlLnLgHO8XBhCl71Wpe4f+VgsXi3z0U94hV1bzGVj20neJfODjIIBYjUgiaCe4n/yIX7b8jq9LaPigeX/ZXerWcffoFboQXcmXLDfLcAsXzXfuIYDbVUURaA0E6DvFAbZeKTXPMm/zBbxRIzgqs+TBH0l064s5AlWscdRc0ez2HpCri64tdoV3jvUuFPnwJxDGoAzJYifQJ4rkp1yH1NO6SsoguVq0VOQj/1eEYSm8Kme9Cdqsv0WQWGjZaMq0ExDxKOKXLfk5FiDYaUPt0jpx3MVnx8WsnWi55qEITEPAgelqWn76QxFwF4EGjLAuWjimYZOBia/7hSdk3m9+ar9SjJUhAXnb+0UuvHpaes/+oJnt/X+dC3KaBHkpJdyihiTIDeG9Uk5LRm3QfPixfQSkkP5OXpfVrwO20GQxMj+1mnYCP74+7FlJ0zPvs0ZKAx7RRjZHy1IEakZACVbN0GlCRaAOBKCKC8RGZfEDN4tvYtzeNEgCcBGI1Zuvr6OwJiRloFISgcXQDJUyadFUSC2W00LOZm4+jS92/I2aQRKV9/0FyBWCh7aKnHauyA3wE6M/nt3bAJzhfQhWu+SB/5bABCLIO6H6bRV8tJ6KgEcQcGFk80jLtBqKgIcRyEDD0Lvxl9Lx0lP2pkH6MZ2IaOHX/VFrTpDLjoDP2J8illQYRIBMqoiQ/NA/in9OCpU71I7ZiWUHZhgGaoVaTS64XOTia3JBZu3qjsju7ZuflnkbHoIWq3HrmajBUi2WXafo8bmEQIkRaC7BoG1VBBqIALQJwbEhWfjw2pyZp5ifDH1sGJ2dmopoRwMr53BRjNF1EYhAKS0WZ+NSZKjaKpGrMb9SewzS7+qsC0Te2CJm1xkYoJFX/SHikJ0CE6uNGZb3FSJ/LnxkrYRGBhpH0pVdzegtPTA3EVCCNTf7vXVbPQsGb2oTep79rUS3vVjC9woan7e+w93o4Y26Cy57p8gRiIJOUlNMSIjoh+WUFovaK5oHmW8xIdmjUzs1g5VsoF0sDy8ca8Nm02//UG5lIc2dxQRmxMj2l6TnqUewV2HjtFjFqqLHFIG5hoASrLnW4y3cXnOfMwcIlt282xhoDPEnYjLv8Z/lVoIV016RiBxzApzar3CtSoODg/LCCy/Ipk2bZPPmzTIyghARbgmDdV757hyZsfMZYr/GHRiO2LkJ5JMu08skr4gV5ZbEYjHZunWrie+zzz4r+/btc6cobuh94WX2GsJJLVbfYw+ae1w2ZVWhgy3n7cNbpUzvOliiZqUI1I6AvtLUjp2mbAICTuwRWI6jmcGyXRrBGbG9Y8tz0v7K70E4bB4/Oi+/9e2OmwbTMDv+4qGH5JZbbpHfPvaY9O/dC+tSUkLwkTps6VI579xz5Z033CDnnHOO8z17ChyzT8K2Ok8+WjwIKfGmFovEyF+uh0pUj4ocaq/shOT1WJASbtrsgrz44ovyo5tvlgcefNAkWOMTE+LHDTVv3jxZvXq1XHfttXLl5ZdLe4eDZt+LrxN5/OFcFH3eO4WCe67t1edx3z0jg8ef6XrwUXI69kAdvVjYgqnfJsGyI+lTV+kXRcAbCNiM8N6onNZCEchHgONqxoFhu9zAz3hbbkkWs0/PU4+Kb3ysONEgAaBfjcOO19u2bZNPfOITsubHP5YEtCvccsXgH+qThfZqX3+/bHzySfneTTfJH73//fJJXDt//nznYKAp7k3wd3rmCXQiWBBn4UIhOaKZsA09VK6TCtNav+l3RZJWJHvzEhIQOodH2qwUjnwm4nH56te+Jv/67/8uu3bsMNtnoCziSzk4MCCbQb5uv/12Of/88+Xzn/ucnHXmmY6ULYw9dv6lIrd+C/kVIViog4EI8DQTDh33WmfKbFIuWQwCyq+aBL4WWzUCDujkqy5TEygCNSOQgQrLbu6sNNNyA7S/xPxcaRlFr6Nz+/iwdCL2le2eclSfnYdtWkKRolnUcvC5556Ta6A5+eEPfygpaLEC0FgFgkGs8vejGj7zk795nBqXL33xi/Lu97xHdu/eVUtx9mkYxPNomD5LObyDX9ZMrnhjkKDZuCNJCr5Xhx+LSPPOaugmgNn/+djH5GN/+Zeya/fuHL6h0BS+xDgAbSXx9QHzdb/4hVxzzTVy77332mNV7ZlzLhJZsBjY0gGtiCAafNeLGxHd/QCiu7s77Nf7fBap/dQhO1ezqQv0iyLgIQTcfdI81FCtSusjwLdXJwZYu/nXQsgkWMU0LNYFNX5yW5y2Xa9IZC80HMUmORKPxYeJnHxWjSXMTEbfnw988IPy5BNP5Cb4YuXmJTMJF4jAA/ffLx/9s/8t4+OI0eWUhBCu4ewL7XPjzJzCkFRq9Z996hyxopnRdoaHWuzsN0J71V4ql6rPff7zn5evQ3vlI4myM/tO5kqNFonW7l275MN//MeycePGqssrmqAP5Oq01wMDO4IFcr9/t7SZCyuKaLmKZlrjQVv8a8xvMhmz5QtWrcrN+krX1IpA9QgowaoeM03RNAQMSTvghFUuC+515sYckfUZ0r7192IgAGTRwI9kjyfBhNM1zzGE/wPaqEd//WtzUq80U7bdDw3M7XfcId///vcrTVbZdSfBLDYPpkc7pkz2W25TZruSmC5j03Msrwe4Oqy9euThh+U/vvQlk1yRnFYqJFk7t2+X//upT0kc5kVH5LVvAHmMQgNYhILwnoa/XefLTxU97Uj5k5lUjkL1pabZtCLNqz4nTaEIuI+Am8+C+7XXEuYUAhxX05yA6xRzNWKJPMCDhFosp8dxHzRU7XA2thXuN+ig9mrLli3yXzAL0heoWjF9hzBRf/Pb35YB+A85JtS0HP0ae1MWC4Iir2ohr6Lvld39QdPZUcdjQ+dlVWdtl4CLBr72jW/IyNCQafqzu87uOEnsAw88IOvWrbO7pLrjKxEKY9nhwMBGiwWSxfsvEJ8wfcSqy7yyq9kNlt9ZZSmquyoFhuX0c1ldDfRqRaByBJRgVY6VXukBBFKp+odXarCKveRbzSMdcfrBoN9LYGxYInu2FzcPclLsg7PySvgIOSS/gK/PDmhJaLqqRXzwy3r22efksccfryV58TTU8hwHJ37OxMWkHFEqlsY6VoqYMd8T4ANWhZbJytbukwsHfvmrX4lRI74kIlxwcPdaBJx1Qui4f+zJ9tpBtD28f5cE6Yfl4tY5aJZrYudi5lqBmrEiUAcCTs8jdVRFkyoC5RHgAFsPxeLYTyVHqTxoIgw4/WTQwX1ovwSGDtqYB9GwZYfDPNhbHoQKr1j/xHqTSdY63xGHJFafPQH/LUflSGiS7ExZLIhmvlIdVKwy7FS72Fdk0yQfR0Fz5qAwjlg/Vl9WYxosVvxGxCKjo7wjwvhpdgFFcQ/6R4clfGCPo0SzsN5OPzpW/rwlqMFSUQRaBQG3noVWab/Ws4UQIFFIwpfGblu7SpvCIbrUME0TYZBv+KUuqrQw6zrkFx7oF3+c/ldFKA/VaiuOLk6+rDyq+OSCgF27dleRwv7SnTt32p+s5cx8mAl7sA2QXUcSdztfKrvymIZ/RaA1/b3o97UA0dsdlN1YMZiCX1NdJjFolQ7s3y+jTgV6XXaESEdncWxx3xnY3zJ8YBc0WMWAqh8cPjsk5uwKp4U8WQmW06hqfm4ioATLTXQ1b8cRoAYrU8q+V0GJTJ4uk0cQTlhOThKc0IKD+zFDwI5VbHKjn9TSFRXUvvJLnKo/yZqj0tktMn8ROtLGYYrFkWBVwwF4vR0pI5FjCIP2LkebkbGrfzWlTN4LjiHcDeJKZ367lRyoc+jAXtSwGnCrapBrOfM+JMFyq+bVtFKvVQQqQUAJViUo6TWeQYADrBkLq45RlpNZOUtDqI78i4OVhe8LCFYxssJjDGEwDz5YDgm1KosXOpPfksUgJ04KYjKZ/mZ2BMUkWFUUyL5iGv4VE5KNBUugWqne2b9YdtaxRcCF/m11EVBg0NPbK+3tDoWOiCIf3kd22AIk3oeGnSO81bgaPzmhuLEGl13MBS7pcg9ujfXWZIqAGwgowXIDVc3THQQwynLeSNkoPiotlPNwudWIYT+jnFeaYwXXgUQFxkeKX0iChWX70gHNjoNy6qmnFteWVVgGiQNXupn5VJim4su6y4SisCNLdgVkS3UWMutxMCr9ZB1WHXusGe2+Lk0WMD7xxBOdI1g0bVODZcc2cVMHxkYmCVYpzOyAtj/OLjNDnDibba5A5Mlntt5n3772ekYRcB4BJVjOY6o5uoQAx22aB5MOrCQsl0UITwYnC6eEOfngMF5cMDUFQbDCiGHkoLzpjW+UhdCypGmWrEGY7thjjpGzznIu8OlUNdqgaSmFb9UEayrnmV/oGNQOvySH5YgjjpDXnX22ZGvElwQ2AAJ7xaWXOlszEnXkXVwM3IdxECycd+72nirKX6pPp66q7QtXEDMOnotF1FYxTaUI2CCgBMsGGD3sTQSowUriNbbeuaGcpSGISTmIQuymqarRwYRnmGabIjnyEJf61xCvqlQ9jl21Sm64/nrJ1rC23TR7ob7/633vkwULFpQqprZzdivdrNyKwGSdKvrJ623TYJiLOLf1kFU+o7b/8Uc+ggWKbdCsVq9WTScSct5558lFF19sZenMJ8JrlHpAfOkE3lRqI93lKkguW++zWawM5pnAc2/LG4sl0mOKQJMRUILV5A7Q4qtDgHNoHPNDvZLCSG3nB8y8A3hNDnG2aHH5+F/9lZx8yimSqjJaOCf/iy+5RD6MbXZcEcajahS8LMfB+Ff5eFx00UXyIWCUwWrCanyxuPqwD8T1H2+80TnzoFUxbqxtBy7ua/pfGeYKTmc7gLn5XXxmEknd6NnqYv1sDQSUYLVGP2kt8xCIw1Rgq6zIu87uKycC6huwINFWaIagH5ajb8ylJnlqQBwtLNe0ZcuWybe/+U05Gv5CJFnlSADP87qzYPr6xte/Ll3dzvqFTQHOfRfr6cSpjCr84pZTN/r0Hz/9aXnHDTcISSmju5cT4tsLx/avffWrcu6555a7vPrzqRI7ZqN/04EwNnwmCXO2A/hc8cXEDTFfrECwVBSBVkJACVYr9ZbW1XwvTyQz5krCeuCg9qrcvoZRJxedYeJJh2mmKjIB8RA0GoIYRW7ImWeeKXfefru8Fb4+WRA5TvAkAubGuZhwad5KwY+Ixxk0813vepf8z623ypFHHulGdXJ5oqySUgSmstfbpSF5nbDzfyuZa0Unu0FCv/Otb8nf/t3fSVdnp4kjNVTElYSVf8Sb+PLvFCw+uOVHP5Lr3/72ivKv+iIQvVLcKUsNlwuaJq5cZbZu0CAq3Pjc23Vx1RhpAkWgAQjA8UNFEWgtBOjknoKiIIR5AnNXTcJkGK8lUoJERaHBcmpPQpaXarOLw4RpIwECYLfKsKYWTk90wgknyB233SZ33Hmn/OiWW4TRww8ePGg6wAfhaD2/r09ee8YZ8gfvfa+89a1vrTs6+fTSi/waGSzdedXOpKWu502CbYrclA4Qq8/98z/L1VddJTdhg+xfYRPonbt2mRs5k7R2dnTIKvjEXXvNNfLud75T5rvh12Y1kNja4gFCHW3LbZVT68NjlZP3yfubDu51BV3Nyy//K5uSxBtRotzKlPxE+l0R8AACSrA80AlahcoRoAWCS7U52IbohV6HlLM4hMGu6Owe58qlOsoxk2L5fKoTy+fZgELhsQQ0OkMDhWcc/R2Go/cNMGW94x3vEEYh34EI7aPDw6a5aulhh8miRQj+2Sg5uK84Flb51erWDU7xNkJ8WV4DhCsu+Tc4OCDbt++Q/fv2SzgSliVLl8ph+AuBzLoqNIUOYjsmu900QaqSHT2SxYIKwzQlOlcbPivsthI9UVthfDwmX6rqfxBrq4KmUgRqQUAJVi2oaZqmIkDTVjyRkc4ofKTqqEkSkw2NDnZzOScMkiwSrHrFQFmJXsRi4mrBQjFZI8w63Ah69TmFZx3/TS3DUkz2/GuKxMZEDvSDYNkgTw7qqwJzXsqsmM4u2X5sG0S/r3KrF5GFE9LT0yv8a7hMANsBkEna6ooK9pfsXWBqsOyuKJqsgoPU9rolcaibzRANbhWg+SoCLiBgM8K5UJJmqQg4hAAtG7E41Fh1COcChmooFa6B17Q75egOJ5J470L4YSHWFRtQKDy245XCo7Pz9wAi2h8gCbAZfgg8TxWByRYQEjI7UsYI7vuwwfHokG3yWXOC5GrggD15heYq3oeo9lWBWx4ddlnAltSVT1/qCuYdi+sKwlIY6TlvImAzwnmzslorRYAIcMCdSNA5uz48qJiib0cpaQ/47JUBpRIWngOBSnbPlxQjmJtL5AsuoDZnOwhWDJtBz3YhkRyFT5TdhEy/ODuyZIdNKVJGIkfSsXeHXerZc5zYjo8CvyJDO+7BTKRNYn1LEaah9H1fLSD0v+Kfs7nmasFHdAIaaxVFoNUQKPIUtloTtL5zEQGaDOrd+JWTQblxOxrI+WHVO3EwyGiqrVtii5ZDbVZkKT+1LHt2zg0S8OLTcKRjKAGyogIh0H5MptWOTMwqYNNLNMHGJkQ2P1tQ2Cz8aWJb5P5iU3EPkuQn5pXYaLsGSIg6tVdO7nxgVYPdmgLDoktAkbvFukw/FQFPIlDtMObJRmilWhOBWlcccb5Mwp2G8bDqHXUTGLxtpmUTVPphtUGLVeqaytCH9gD+V2Mrjy9eZ2ocRrFX4XMbKsuuVa+ij9DzT4FAUU1lIwzRVIvQvc12FsaJ3z+R88OqJe9WSMNVqCRYxbRXrD8c4CeWHi7J9q7JXQWcaxSfE1vo6ykGmSagrWYUk1oKqHWMqafKmlYRsBBQgmUhoZ8NRwDxgRJFV9UVqQmXuucPlnR4nYjV91bLCYErEkut/uY1nSBYDjAs0ywzesQJko3Y+GGxsE2/mdTuFAFhNhx6BVqknVuhpbIhWByRqImqltHy+lKaL5a35QWR3dtmA4rF2/DKcyK7tttjizeT0aNOwgpCMtFqAS5eJI/ytnXX/wraXzzvLKca4XgBS6h7AdCqqYxeOycR4HCmogg0B4Gs3Oe3m2jzauTDNdlMeitGyyEjb+XZOAhWvdMEPTuoxSolHTAT4v/6hRqEJUdIfNEKU5swI0Ni8fLzIlvxN1vldw8BcISkoBqyUNgNJFf+0v1RmGzqNzkb0xZLTq3OMOJDPfnw1OWz7svj60pgi+C82PB69MgTHNde0fcqgOeyGOxOYDxW44IWjhsYM+5yog6ahyJQCwJKsGpBTdM4goA/GPpEOpXeFgyFbfPzw6yG6OOxbCb7CQzgm81BE1dzeh6HXwYCkNclnBTiNi4rVsYRrCSMOmAmNP2w2rtleNWppj+Mlf/UJ8kjHZQfeWDq0Kz6sne7yMbfggQVCVVhNTSIHinCvazTJT+ZLlRimifJemyd60FHS9bRrZN04N/4O3ts4fc3vuxomVi0sji5r7FeRNuMf1Vrn5Upl36WfJEqzN6Pe4habTsJYUxBNP0tmWT2U3bX6HFFwG0E7O9Qt0vW/Oc8ApeeEH42m05/JJ1KvRIMRSSErWQK//AKOpDNpv/milO7f4S30Wf9lu8ORtwECBad3YspQ6oBlxqsUkosLnbrDDq1L2FWBk88B9G02/l2PbOafjggrYeWZdfWmeda/cgv78sF/LSbGDkakWAVgaWipjMd00NxUVR472zbIkJNz2yTR36aiy1mhy3aO4T7jmFCnF5BGESZhQTICXj5XHODZ26Rk18ATX8YMzZi+6H9heMFf/OFLZlMvgwC9qGrXtsFu7CKItAcBEq8SjanQlrq3ELgytO6f3L3pomLsonEu0BzTqW1gcQjmzWyht/YnEml11x5avfjRAUD628y2fR7ze/4J41xdxzmg446Ao5yYmAsrATKjJRgal0gWHtxMefwugTBLseWHyfjR75GOp5dD5NYgUc3J8hBhBR48DaRP/wYinJj6qqrBbUlpu8TNXPltFd2KwErLZUmQpKsGHArhM7sX5z7OaxGrz0fQc5c2si60ro6dV0/tFcPg2DZmdthmk71zJehE85y3DxIThziG4gLwlz5fCehYZ4qAn2I/9JZn/EJIyF7Uon4u9PZzFGsh/mmBX94eGs9mcokb77m1N6tPKyiCDQLASVYzUJey51C4MrV0S348dmpAzZfsuL7XSqVGDV8/g5uWoypUkYn0rKgp77bmH5YMQziEXOULl54G8yEXE04Cq/4eqYTag+46fPB114kHc/brBgk6Xr0ZyJnXySyanXxCrXSUcb9+ukt0F4henuwxFYx4UlNBTu2VmHnMJ+4jRqLBG/rSyLr7hG57N21luKhdADrp/8jsn+vPbYg9UMnnSUTC5eDmtRpU89rObuJ2is/2E89XZaX5bSvzHN0gk/nIaEGO51O7Un7/E9ffUbbdpx58tBZ/aYIeAuBElOKtyqqtVEEMuG2l7DHx2bLMd58w4V/RpLvrHXCE4caa/pQPj1DvkF300w4/XBNvzjJDZxwjkwsP7p42ABqWsbgi3XnTbMj8OhGrIz8NQhjobYuHz1qneg/VS/ATE8tGPOzE2oJ7/8xArtutruidY4/81hOe2WHLV5EMh1dsv+st6BN9T4lM2HhVlLO55orh/5XYwX+V6YPppHddNWJ0V0za6NHFAFvIaAEy1v9obUpgcBVxxkjhs/3qG/SD4s8hD4aEzAjmNafEmlLneIEgWzKribsDvklWE9Bk5Wgs3uyo1v2nXcF5jybR5AT5jNPiDwA7UQrywC0Vj/+NjRKsZwJx64tkUntld35ao4TUuZnJ7x/DmK7nv/5FuqFAKStKkPY1HkNsJ1AG+zuS5D5wZNfL6OIv2ZknNNeETLCHHJpA0I2h881/a9mNC0jD8NdoMzSlFbtVK33bELAZnSfTU3UtswqBFKZdWmqrCaFzukjMBPWK8wwVmb+iWAy6YCZsJRDfKX1MBDJ/OApF8jY0SeC3SVnJuOsQiJwD0xrmx6deb4VjqQSIrd+Q+TVl+21VwTeKe2VhQnzpDaslEaMBHYDVjTed7OVqrU+aeq7DeTqFfhwB9GWYgIin+7qkf7zrgYBw71UbFFFsXQVHCPEAWgC3QrPwJee0fG06WdpVYchWlLJRAzP38PWMf1UBLyMgBIsL/eO1m0GAkY28Fg6k9nNZdoUcyCGn0ax3WdmJC5zgCN3KfLEsnpD2JuwTD6VnKYvVqqtXfZc8k6sKLQJPEpT1sS4yH99qTXNWff8N3zJfm5PrggU9xxsc1B7ZYHPzooiX7vOsgjsvSCwv2nBsBj3rxH55U9KYwuN1YFz3ipjK1Y56ntlQcwXDsLshnABywie6/z86RoA38uX2tKpZ9woU/NUBJxGwG74cboczU8RcASBsc2RHVhj+LgVD4sjcAymBG4GO8OUUEWJHMgZ0T1eimHhGq4m5MTCN/h6xYcgXoOrXisHz77EPno74oDJnt0i3/68SP/OeotsXPqf3yFy9w9zWji7jiGIEfxDDZYTgOa3jvkxX5oK7fImgU1Ay/bD/wdzLGJItYo8fK/I7Tehtrhr7bDFvRVbfozsveC6Sc2VHQi1NRr6MJgHnfFJLKwBmxTD80wTYT7Dyj3zxq8uPmPeUGEa/a0IeBEBJVhe7BWtky0C118P3wu/7wFss2NeYxIjkKJhmBP4vR5hjhNlzITcEqQHvliOTFdsAyq9++J3y8TKY+xJFk1Ar7wo8s3PtgbJeghhEG7+ei6Ohh0BIIAkQNQyOQJmkZ5nvlH8U4rAMbTByLDId74gwrAZXpeHEUvsByCENCuTIBYT3FeZcEh2XfaHEu9ZAN+r+k3o+cUQVpIrRnB3Q5jryPj0zdypK4N5MG0Y2RZUN7qBkubZCgjYPKGtUHWt41xFIJDIrMNgOzDl7I7Bd3hsur9GLdhwYKeZ8JCHV/Fc5oWdcXZn7gZsm4mehbLzqg9Jpq2zeIR3XkiS9QI28v3KpxAs8yUe8Z5wIr/vR9AIfQUEAJohOwLAmnPkaQe5cnsEskyQpcqhuZlO71//DIK8rmPtPCigNdQK/gDmYi4YKIUt/LP2v+FqrFR9vfjg6+e08DkJg2C5Q69ycen4wpSvvvIF/JLJpF8NigHHORVFoDUQoKZXRRFoKQQ+cMM/DyQjifMDodDRGTpfYaRPY0l3Z7tPwjDh1SO0EHLfQS4/txNqsWhKHINN0YmXeGoYYgtXgEQFpOt5rBykFMuY2pYD+0Sefkxk4WKRJStz13rh31FYbdZAa7UWBIsgTq70tK1aB8hVGNfhf9eFoxy7M2nfpyZh4Wq8TZi/SWaPOK40iXG90nkFxOCHd9t/itzxPWg5cb/bBRRlEiwsGDnxLNn2tj+TLMzLTkdtZ3dxJW1HKOcDmVdLR77ytqdpcO9BqJJZ2GSXBRE/LZXK3HXZKZ24wVQUgdZAoL7ZqDXaqLWcZQhceKGRyhqZ+6xVURyD05jUh8emO8XW1GxkNl4mJhbz7YMWCwsKHRMjnZS9510DzcOVaEwJOyUnfwaV/No/YcL9bm7vQsdqUWNGW54V+fInEVsKGhaGnSilXeGkSbMgg4Hye6OEvlilQjewHiQucWxETfPmd+Dztg++b82WHS+LfPVGrCbFakc0oSS20FbFDjtKtl33Z5KOtMM0yATOSwQ3voO3/rQK8lmm9oovTBa54jForDPw+Fo77WL9oQh4HAF3XkM83mitXusjYKR8D6YkftDnC8yD6QBjcc5MuKiXm8BySK5NmDKBsT2GAb6thBarHZNMZ9AvA4m0M5MN/GayICY7Lv+ABMaGpeexn0GVFireCJq0aIKjo/NzG0SueZ/I8acXv9bNo6ODIg/djUjiP8asiO+lorRb9SC54qrBZghNkln0cLzE/UFySN+4h++H39tzIlf/AbbVeWPp1XputGUCgWYf/kmOWNF8SWJdSkCukvMXyavv+hi0oYjYzhAZLggfCZoH3RKuHhwanf6C4YMmDqFZXgkZxiNulav5KgJuIKAmQjdQ1TxdR+Dqb/7zQHBv8pxAMLSKZkKaFlLQYnVE/RJFKIV6lSPYCxFb49gvQ+cUTVPJIAiWU0JzTgakamTVaRId2COR7dBecMJn4wqFx2iG69+FzYt/Ba0WPuctEMGec65LbCy3YfL3v4gI7Q/mHK4nw2aULJsmQZoGmyl0eE/zZsFfEVjNqhFbarNIGp/8NbbWQawpxJOS+TDL2gWGdapNSWjQNqJMhub4xT1g+/C34krSUgLtZ7IP5Oo9fy3DR50Cvyt3yBWfqSheLKLApt7nq1hz+F7E2Ff9g9MJFs2D6WT61ktP6URsChVFoHUQsBtiWqcFWtM5i8C9G4bfZwSD38PeZCYGdP1Z0OOXFYvClvWwLmwWhIySvlicZF4ZScoAdqN18p0+C+IUAIlZ+eMv5zRZPkywxUiW1TpqXOjM3Nklcvp5IudeIoLNpCUUsa5w5vMgTJP0UeLGwq88n3PIr4RYsXSa56hB8oKw48ZoDqxg+CO2vL9CYZGTzhA5760ix52CtgBrJ4VR2Z95PKe1euEp9CfKtNv+Jr9caq5ArraCXA0de7pr5IpFEq2ecNDc3JkQOi28xbfvTZgEy1JCI2I7y01KWi677NQOsHkVRaB1EKhghGmdxmhN5xYCD/z/7H0JgBxVtfat3mafbCSBEAIEWSSQsKNIMHmiKBAQn+BzX0GfihvoU1yIC+64Pv15PldcHoIPF/SpoBJBQJQdEpZAFgjZ19m7u5b/+6q7Zmp6eqZr7anuOTe5U9XVt+4997vVfb8+59xz7+ufV0hbdyA+ziEOyeKP/SPmt6oWarFCzAK8tR1z8CzUM1Hqw1Yea3sLkf+iJ8lK63k17w/Xqjl/hgmO/jS1HMdZhmQAm0mrBQtBCE5WahFIwUE4bw9ACFjXLpCqp+Bj9dDdSj32ADRlcLJnqqVVKZUqzco0CzInLfVjbIcmHt9hkW0SS9KDB+yA+cD1BKUWn6rUwUdik8oZKObzq5QbYO+B6W8dscWihTX3wedr6whpnYhQO0LBTDyE8B4bX32Z6ltwFMyC0a8YdJri54Gaq26EKIklkUVh+e7aZ4ZUnotHyo1kYBo1ivl7snO7l521vwbVqSRBoHEQcJ7jxpFYJBUEXAj89sHeb2VbWt9Z4NJ1JM6DB83JqjkzshNGZXdVMe4pPxyzW1L4xT5uEZtYbegrql15aLGi/jSVncVn3/V/at5N31PpXqzU86LVsLUuMF1yEm9rB0uco9SBhyg1/1Cl5oIczIAZsaOzRMTS8O1heZqihpB7YRbbiYl+ywaoE5C3PgOnGFwj2aLZrBbJU65EPDohB7esSWoaxOAyexWRWDEcBckstVrEct6CErYH4DgLZtqOadDYgeQ6Y1WA2Y/PJ8ePhHXL00pt2lA67tlV0j4SV+LrJXFcYRbvWXKaevoV71b5/Q6IlVxRJA7lNGivWvCQe4XKS1ecMvzs7IBp8GlosNzcMpttgTKv8OFzF3d+wSkrR0GgURDg50aSINCwCNx0/55lKp39AwwJLRYmHs5/nW0p9Rxosdxf1EE6yImkA3PezIkYFsoMwDN3bU8RkeBHfnkHaa/qPeiEBRLUte4hNf9X16j2J1eXtChefYFsQoAJmaSAiZM4J346TdOJvkzioCaACgEkis7z1ITwPgLIid8pU6rB21/6OtGZPUMUE54YvoHaLPpm+UnEqEx27NuIE7HNAVceHTJKckpMbWxxTnJGymITVrbpo13UY7W2qe3L/1VtedG/YbVgeyzb4Lhh4Ai2wrF9WkyhGdgWoXzq2SGsIDSHf6gwcjv8K3ch1sTpKxZ3P+aWSc4FgUZAAPpuSYJA4yLQuXfv33tnzrobv3TPKGICIyfoHzJtZ9lpnfiCDjG/c9rjPtLYtWNCLVY7Jp9Z0HRtY2Efc6Un1DHzcEVY78Jj1ZOXfEbNvfV/1ezbfq1S/b3eVu0REE7kzE5i7DBma9C5UjqyLJOjeSm98veXVdAcSJ+rqLHwJ4n30iSD3ZB3AALnQZK8JuLFTZQdIsX7SJ6oCRwPW/qsuYbCa1N2vSDJjPi/+Zy3qH1Hn8p9+WInV5SPiNC5Pa5E7RVDM/Bz69YCZ4BV0TBvvufGzifialvqFQTiRKBRvgLjxEDqbnAEfvNQ79uz6ew1Oh2DYcAgqZrZlVaHHAATTshEfubFF6uARp+AFivPSS9km+PdzjAOXMXWtf5htf8t16mux+7DBEtSF1eL40lScZ0gUQSuEiSxagStVUUXhl8W0BGaDLnKMCkJxMro7FY7Tl+hti99uSp0zypHaCfw8Sa2ELf2io/vxq15tXPfiJnddm7XUvDKKl5w7rHTfhdvL6V2QSAeBOL7WRKPvFKrIDAGAUsfuqmoF9ansZ0GE38F9+IXMSNCh+UenGaHwGHyDHw4Qcqh0bkIERGLg0q5XQaO1GBu6l24WD31litV/5Il0IaUl+RPLN4Ekod4y2mTPlbdAIn+Vo1MrgiF05cO9CXtdDAERmFuZfOmrgYXHqGeePeX1LNnv0UVO6eXVwrWRzZuiNOOz1VcdJOfT35O92GrK7f2Kg0TtmkU78+a3avCQCj3CgKTiYAQrMlEX9qOBIHzT5i9Ga4wv0i7QgYgcoLa3aNHMjFAJ6N6oRyrNaVxxSGDj4YxS3oBhKvFTDj/FmfNAqmBYCQ31B7FNQu6hXJAYFuteMG2mZPsyO6W38u507dp6BeJlkManb57qSNoGacN7qFIU2tXQQ0+Z6HqP+hIkOuiinrj5onEpCitiAXHHw+OWBOVD/Ieod6Dzynd/0YSruJDBIPhj89aIisHR3CRs0ZDQAhWo42YyFsVActI/biQH9w7vAE0vqP3IiL0IByoItFi4Qt/EMvHJ0opNDQPWqwMjhOXnKgWb+/RnV7PdZRIFclNF4gACUE7Mn2KOHMxRSGIUwfrJJEj6WBb7hWCThm70Sb5w/66SSTNnyQ+TFH216nLwZe4TkNbjBsGly0T8czqSaxKHYQCD88xtVdxJX4u8whzsqevFCjYaYeaaF0vrlPm0I3ONTkKAo2IgBCsRhw1kXkMAuef2PEIZr/fMG4OE+eqPBZu7enhNjrhE+fAXhCsWtqpTmw2Pac1nkjXo3uhKSPXhkvonTNB06TVjkyNkkOAqAWhBsYhBk4lvKdadt7nkfeQrLEOe9JHvSRybbjmmM9YR7MnPkAksYxCT1yJgbNC0v1wEQsnV2LiXOfRSbyXOJLEOaSVdfO1a7z0lk5U627IqSC+I8WkY3ucPxbYI34+h7A3lbt3/JGEjaOuo2Y6vh5KzYJA/AjIKsL4MZYW6oAAnGKtX9/X+71iIX+hlkq12Sus8K29G7a9WdPSKgfiw6XgQRMnAO5R2AeS1Z11Twdja5zTllE9+GXej/ANE5cce6+fK2YLCBbVAO7k9JETNz/dTqdNlAM/GM52ufI13m//1MJFVsfz4VyukNfLp8NHXJoyyek7caEWzzGJMrQDcQUvsvc5tI/lcxyGE/HTcB+PHBvWQ+UQiZT9Hs5xaifnWH5ptEBTGeuTVG6ofGDzWZgF20GwKkQZXTDEKz62Bbiw78Ln0/0IMzRDsVDYjnavDVG93CoIJAIBIViJGAYRIgoEtpqddx1o9d2M/QnPB9GypyT+Ot7da6gDZkYzWZBgtWHHW/C1cRPcVtS89oy9jY6BKYrzZxypNPFOULN7duRETplHCYNrTplR11HOue5UX/nauT4Vj24sHCJr44A33O+Nh42Dtbus+9x9H1aN0kRYz0TxOmCmo4P7eGKFlYdt7AG5Gsrj8+HggWsZhAjJF4d+cf7x3dgAUpIg0NgITDBNNHbHRPqph8DbT9IQMtJkuIYCl3kz8e+ufbr9a9n9RW6/6fMP66KCohfaqVqpGwxsdqymQpgrbR8snx9hzpju7HTEfS2uWdVpq9mObuy89M0pX7MsCiI0h5lDNP7YqM5oISgawzK0IPM8jsTPIbVXO+Hc7k40DRbzQwjWoP+3+7qcCwKNioDPb+dG7abIPVUQeOrZ7beahv4XaLHsLvPLnFosfpmTIIVNrAPBptVADYd3trM/TIXdNLPENFMZ3HOQQS7jaiAsWHJ/OAT43OABNlpIsOqT6NjegZWwUXxWxpOYddN0P0Z7Bf9J+F5df8HxM7DppSRBoPEREILV+GMoPXAh8J6zD89rlvVNw63Fwjc6tVi2M20EMwfnvR4QrFocC5ZENb89q7I4iZpjoY8I1QAfLHeEdhcOctokCKQyWMyA7XDqRKJJrmJ1bMdnIk/tFT6P7uRor1KZ1Lfd1+VcEGhkBIRgNfLoiexVERjMdf8JWqxbhrVYKGV/qe/FssIIEjka5gjbkb1Wde1wyDoQmizslVirqM/3LXsVoYUJuF7mI58CSvHQCECfg9hujHkWd+IPAJoFaR6M+seAW3Z+CnbuK475scPVv4ZpXX/Oos4H3eXlXBBoZASEYDXy6InsVRG4aJFWMEzza4ZeHNLKmyLTVMgVSwPY74znYROrQLB4T6bCmS1pe8Po2p5bPqTCLGhkW5XJfQPjnBF9iCRFI0YA42pio2+T5u6YNViOaTDOCYGfO37+qL1yfwa5crBQGNqVTmnfAILyNEf8GEl1k4dAnJ+nyeuVtDzlEXhg3/2rTNP8ddbxxQIijBa9fQ+0WBFNVpwJvJgKScZm5LgqK8oE7UYmBw0H437JnBQlssmpqzTGRjZ+J/dOmAazYD2xPkmofAe0yPwcun/jZPAMa5b2w3OXdCGWnSRBoHkQiPY7v3lwkZ40OAIrly/XLTN1dbGY73Giu3Ovs72IGt3Tj0043N/wAfvKKmgq3Ido8bU4WwYNOisbAzZXcRt8sKC9srUbFe/Iy+ZBwCSJppYyJupDQsWAonGbBvl56x007JAp7s9eOpOB9ir/jKnS32qeUZOeCAIlBIRgyZPQtAicd3zHPy3TupaxdZyE2J9q6+6i0rF5s9tM4bzv90iSNYg6GeV9olQEA7NqsbCJKqh4jzErzQxNhFhJGGG9Fc3Iy8lEgM8M/K/ohxUHv+ITy4CiHSA5cSZ+RnRsgcDPHT9/wwkfQPtHh6b+87wlbeuHr8uJINAkCAjBapKBlG5UR0DXja/xFzJ/KTPx13Mf/EB2IdpOlIkEawikrVoi/9mTZ8jRKBMmX0y8VoYO0NHWHKWUUlcYBLhStMX2w4rDeEe/q65sBnsOhpGx9r38IcMtcXoR38StveIPH6NQfCCbNr5buxYpIQg0HgJCsBpvzERiHwhccNL0p6Dt+TpX8Q2b6MBHtsMXZCiCjaAdUfjDfA/shfmKzQpJfXaCXO0pRLMnotOefeSebdyPUPjVKFia5gXG1YT/lZkuxXSLul/0u8qB8cT5+JBc5fE522b7Po70gJ9FyzCo9/38SxdN2z3yjpwJAs2DgBCs5hlL6ck4CLToHd/Vi4V/DG8EjS99RpLeBpNFVNY1KgGowNqFoKa78iaivVtqH/IOnNOEmIt6+TsnXxAsO9horFPkOKDK5TogAA0Wg8lyJWyELIhVtWMrnLj9rmyA0BjJVR6fC5ItJzGEimnqvxvMdv7SuSZHQaDZEBCC1WwjKv0Zg8CLT9L2IVDjpwzdyLvDNuzBHoX7+kYvGR9zs88LVGAx0vte/DbnCkPwK5hgaIqJepUWTIR2EEpuBBzh7Ouzv1I8XgQMaCgtO9RINGPMWkisGFA07kRz4L5+Q+2CedBNrtIIy6AX83uUlv40Q6rELYfULwhMFgJCsCYLeWm3rggMrO3+A4KP/iybGzG3mCA/W3bpqghNk3sCCCsYf6i7Myc1RsfuytHfxfUzPoKGjBaYCEcteg9bqdyfHAQQTLYFBNrtuBRCOD6HdGrvhN9V3F/8fMwL+IGxZVeFYztk4KpeyzT/89zFHfeG6I7cKggkHoG4P2eJB0AEnBoIXHSRZqTT5lXFfH5juryqkJPAIFRMWyv8Q+JAxJncqMmKimOBFtrR3OOQV+pMBgI6NvS2IqJDJPfdIFfYXKAuOk+aBvuxoMTND/kDp1gs3FfMa19PBsIihSAQHwJCsOLDVmpOGAJnHzv9KUszr8KvZ8txeCfZ4T6Fe2HKiIr4TNRtmmc64f8SVTJaOqOqSupJHAJwBLc1lOEF4/PejWC31GCR7MeZSKj2Id7czr2jze9aKqVgph+ET9nHX3Fq9644ZZC6BYEkICAEKwmjIDLUDYH0pq5rsXgJEd5H9nezTYU7C7bje9wki5NbGwhWND4wmtITSLAsDSYgrh6IagVB3Z6OhDWEh9FoYRT3cInPNDWnORCcuMkV2+ICEpoG+bnCy+HEsAymYXz/3GPbfz98UU4EgSZGQAhWEw+udG0sAmefreXxtf8xRHjf4sTG4qQwmLfU5l2FunGCDpAsruQKm6wcVplh4kxMMrHf49zDlHHquSBYmGEbhWSZjIsWN/3wO0okWNRQhpALz3YnYsC1QXNaj8Th3oLPUeWen1w1WMjnV2dzqaugTQvRoXr0QtoQBKJBoD6fumhklVoEgUgQOO+4rtUgWSsR5X2UqZDBEGkuJOGqR2IcolZsUxI8cRk/nNwjXGUWXJbynZg6ob9S6tx/V+qMVyKWBDaeSzrJKmIh26GLlXXwIsTaiDYAbXA8gSFNaoxzFiLRHN2OZ6wejIafmz09+phVgyn0A5qrQc2wPvLSozu2hOiO3CoINBQCYb7dG6qjIqwg4Ebg0HT7D/Gtf302N2IqdH590zG3XiSLTsf0ywqSyAONHExIWJVVlxnUi5AArti7Vw3lsan2incp9eI3lO6ivShpiQNOcnX085T5+pVqoGsucEwIwSIjwria0FAixEgg5GiGppY02N3+muTnZRCfm80wDVaKWzIN6v9vxYndv/VXq5QWBBobgWDf7I3dZ5FeEFCLEH/H0owrCoWhJ90BSItQuDy7vRDZXoVeoO5G+IZAJhzMZMMEy0tD9SgDD+eBvl7V17MXqizsAfmyS5Q6H0SLRNYAuElJJHw0YT5/hVIgV8Wu2ap3N/yu68WsPeDArZDMLEzAARLJFc3Q9UiEjHt7btox1o+RP2CwVdXfs1nrKshSD65Xjy5LG4KAJwSEYHmCSQo1IwLnLp6+TpnWhyzDHKIZg4mTRR9Cr2+G03vlL/E4MWCMrDbf5kJuBpzDnoTczDohcxcAHALB2rrpmRJcNF+e8SqlXnelUrMOKGmM4gTSS906tGutML2d906lLvwgwppPU/09+1Tf7h1lc6uXSuIuUwokq9tO7v7GlqbnepErGwWItxWaK+416OanaRBE7KCwGwFFPyDb4cT9vEj9SURACFYSR0VkqhsCK47r/pVu6F/nZOAkThLcDHpnHf2x2DY33vXl+A4GaGKzZ5MEy98c7HQ1hiO+UvSCenLNI6PrPmapUhd/WalFz4cmCwRnMkyG1FjRJLjgKKXe8jmllr2mpGWDpHugverbtTM5CwYwnhZW3VlpaP68Mn08twwi6usZGj1Kvl/ZnxX4Xe1ASAb3ksFSGBSsJdWNT65Y3H6X74rlBkGgCRAQgtUEgyhdCIWAZbXmr9ILhVsON0hIAABAAElEQVRyXJFXTpzTtuwsqp6B+sTHctr1q30wYEIyM4xOnxSGZWGST6k19/1TFSodxuceotQbP6PUOW+H1gir40h2vJIHB6AgR7YB0qfoMH7m65S6BETvOSeOqmndU0+qfviOJWdFJskz9uvLUjtZO5HodGO1IB3a65UY76oPWitH24uXw4mmQUPXfzLY0n3N8EU5EQSmGAL1+zROMWClu42DwPlHze7VzcL7sIx8Ix1ymThh2X4l8McaqtioNu6e0X+Gmgi3RqBqmyAOZpqTcIIIFrhMV2tOrX/kAbV+w9NjxabJ68w3guRcrdTiM/A+yQ80WnEQRJtYsW6kRaehzS+VHO87Z5auuf7ee/ddKkfNWmJSmWBhfGuR0BQe1mlcLFFHcsXPxxDiXT1Dvysqr1zsKovnsVjI31vQ8/8hew0m5oESQSYBASFYkwC6NJk8BF5+wqw1MGu8B0aNfu6VxmRPIoiP9cy2fF2d3tk2NRGcNDl5TpToCG0xaCp4SlJSDv5k5p7t6uZbbhlfpAVHK/UmaLPesFKpw5bAZFgmWlFotGh+pHaM2B1+PNr4pFJv/pxSh6KdKqmnr1/942+3qRlt3rRFVaqI/hLgsKidxNhO9ARwj8vpwLsl4ErUIIITVgPjtWlbwV45SE2WkxhbTi8Wd5hF493/etLsLc51OQoCUxEBIVhTcdSlz1UROHdJx28wOXyWM1rJh6Q0R9N591n8UscOO1Xvi+siwzdw8uQkWi1x0xM6uHMiThTDwox7cFdW/c9116mhwcFqopeu0XdsyYuUevtXsJLvSjtcgqI2rpgvabXoM+WFOZKUkVTRDMjc0aXUiaj3LZ8tacqWLMdu29TyVU//+Oc/1YbHVqsZ7cAxCoJXvRmfV7mAAfKk6Bs49rnjlRxwntaSqcv2N27hET8On4ei2lexvRS3wgF8BcM0P3jeidP+7r5HzgWBqYgAP72SBAFBoIxApnPb1Ubf3CNyrW1vRAgH+yr5zS4EIc2mdXXAbJCCsfNdLPixGe4dx0m0F3aYPCa2UVQLBejgbmRhdksMMYDQkOvoOd3qqj/eqf54883q/PPPnxgf+kYdfybI1jKlNj2u1Jo7lXr8HqW2w8Q42DsS3qGSaLLPvEYNXucMpeY/R6kjTi7luYdO3Kbr3R9ce63qNIfUjBZoLgl6EhLHFj6BVnl1a6VIdGRnEFF2v54is72tuxFMtHIBCN6g5tfQC1cjkO+1lfLKa0FgKiIgBGsqjrr0eVwEzj788Pyf7u65bDA1dAic3l/okCzesG1PUWUzmpo9A2a5Os1qbCaNyWtaS1b1Fw01oLsDYeJdBqNsoQYrQQngHDmjTWUQxf3qr31NnXnmmaqjo6O2gNTWLFhUyi96A1jtswB9A/JGLPPbqtRAD1gH+49Znn3umoXQD/OUmnMI8kFKTZuNt/wp5e+55x7161/9Sr3q4G5AiXsnY3VjVWRKMc4sYmL3uVSIBIfEivtZ1juxba6sZUgGPpd4OZxycGovDuWvV3rfZzStu06fjuHm5UQQSCQCQrASOSwi1GQicOap3bt+/WDP2xEgEZtC544swp+HkwlJFVdMpdOamtnNDY3rJyXb5wpDmgv7QLIMNG7LpLidCjRYSUqQbX5nTh0yo1Pdfttt6rvf+55673ve409CaqX2X1jK/u70XLpYLKovfPGLqn/vHvXcE+eArOJWWiUTkjiuFggjdiS0CQ21mdxXMIfnr94JTas9vbodhJeWcpItJ9nkqjB0Z2tae8+Zx80bcK7LURCY6gj4+7k31dGS/k8ZBM5f0v24pgoXG4a+Le1aWWhgAt60PW/7n3DSqXfiSjH6ZdH/xuZ3kMHgfoR1NRTV6DUEm9WWUc+dSdOlUp//wufVP+HnlLR0LUyD1F6lW3LqmJnAsJ6M2QMYBoKhWuVnjJH+p3HcJ4lc7esz1DNYUcvn302usjl7xeBaXS9cfOaxnds8dEuKCAJTBgEhWFNmqKWjfhE4d8nM23XDfCfMRn1OIFJOLrTSPb21oHoqnHz91h+0fAbkanouW4rWDR8dPYeYUglLKRCBk/eHXFjluHXLVnXpe9+jtmxJzqKyu+++W338yitVEYM5uy2njpgOk6PNWJMDpA4NFleRdkFzye2UaCqud2KTvYOG2ghyxW2k3CIwpAkWhWxTuvVWrsKtt2zSniCQdASEYCV9hES+SUXg/OO6bjQMA/upWEV3+IaibqmNWKbeh8nHPenUS1i2SZNhdw7OxW00EdZ/8p2wr9AGnbZ/l8pB45bCysC77/q7evs73qF27tw54W31ePOxxx9XF7/9ErVl82abAD5nepua18nFC8liWOm2LhDp1KT4W3Ec+Iz1Y9uojfgxUUTMK/dzznAMlmX0IFrXO849sfv2eoybtCEINBoCQrAabcRE3rojsOK4rmtMQ1/JGZhL0Zk42RQw6XDy4d6F7snHLlCnP63wdc61w4F8sgQYr59w1Dl2Vps6dBpiOYG4ZFpa1E2/+Y1628UXq+3bt493V+zX16xZo17z2teqhx98CJEbELoBsp0KItgKspooDRbGM4to9xRrMhIfpxK5yqt8RaDdVJr+h9aQoRvvW7G4+1eTIZ+0KQg0AgJCsBphlETGSUdgYHHXF6DJ+iI3hdbKK9U4CXHy2bg1P3kkC0oXqwWmuKQRLMi1X0dWnT6vG47jJc0QSZa9Yu/Vr1aPPvpo3cf0L3/5i3rFK1+p7r/3XpvwUWGVhoZt2YGIm5W0hGfMYtT7EnR1lc5Nrip3MbA3RbeUbhbND2Mfzx/UVTBpTBBoMASEYDXYgIm4k4PARZpmDGW7PmEU9W+k7fhDYFdIo0nW5JgLTZtg8aM8CbOxjcL4f845ZDpWXdoBKO1CJFmrQHTOPe88dR0CkUITMv7NEb3T39+vvojVghdedJF6/LHHbHLFqrkS85BpberkudAAJiY8AwQjJgi/YTE+WJ1TTXIF6Uxd/8S5x3V8o86iSXOCQMMhIASr4YZMBJ4sBLiv2uDA3g/rxcJ/c2WhO9o7NVkbthRUb503h7axQAwiOpMnjl+BtJw+r0s9BzGxSGacRJK1bt069cY3v1m97g1vUPfff7/zVqRHaBzVH/7wB3XOihXqPz7yEbVn376SWdBpBZq1ZQd2q7nQtCUOO2hKbeI8ApsjdWxHkis6tG+ARraq5gooGZb56cG1f/ginv06ShZbl6ViQSBWBIRgxQqvVN5sCFx02kGDqtj1Pr2YB8nKjCJZ9MkiydrXp2P1V516jmmOEb/H21KlTlJUbwayzQZ5OW8hNld2ESwWzmQRgR4E7Gc/+Yl6yVlnqXfAAf7vf/87V6VVr8vH1b1796obb7xRvfwVF6gLYBL86623gn9moUkbcWiiOBmYBy9YiAjwdRssr52AcAgwau8x6fWWkOVIrrj1DZ/fMT5XJb9DCyFLPj30WOenLrroIne025Aty+2CQPMiUK9poHkRlJ5NSQRuumdzu5br+mo6k7vE0BHZukwg7Ikb8/iBc3JqVnf8Ed8tmN9yW9erOd95p9IG+jAxJ+w3E8I13Ld1QC2/cbXqw3Y/1TavpqbJ0nXVNX26OuXkk9RLz3qpeuHSperwww9X3dOmoUsT9yk/NKS2btumHnzoIXUryNSfYYJcAx8vo4CgsHBkdzSN7gdVNyx1Apzbb33Fc7ESE/WD0yQmgXha7V1qx8XfVPkDDlMag0/FmEiu9vQizpW9qflodz4be4RcM3SQqye6Qa40IVcxjoVU3VwISCT35hpP6U2dEFhx0rwBkKz3G2ZXPpXNXGpyUkTmZMU4Wc8ghIOOUA5zZsD8FGcCMeCmwBY2My6HHo2zNf91g8gsmd2uXnrwDHX9Y9uhmBn7m87WLEG7RF+pP9/yJzt3glgdNH++OmzhQnXIIYeoObNnq1n77aey0HwR6z179qhdu3apzQi1sH7DBrVh40a1Y8cOpeexUTQIGbWLNEWOnyz1uiP3U92t+AqMmcCML8N472CjZ4ynrZmMmfhxNHbsLarN2Ly5Mogow5Lgh4NhGebKoSf++DnRXI03XnJdEKiOgBCs6rjIVUGgJgIkWdevti5vK/QOaZn0B/lrn5M/SRY1WZt3FlURBGPerJytWCoruWrW66cAJ0iLMYkQayqpiZa5dx47V/12/W6VB/usplGi7MQvVSZFAwMD9krDR1evHt0tgsvkBhPXNDTC+ycmVaVbDfheLZzRri46HHsZYrySmEiwSJzLvY1cRMJoAgfuK7h1j24r8Bxo2RgD65qWWUAohivOP6H76sgFkAoFgSmAwMS69ykAgHRREAiDAB3f79177xWwoXycv/YZI8idtu/WEZA0jyjYVjyuPtRgcTLOQFvjJh1uISb7HCTzBQiFsGLhLGXg3EuyyRK0VSRMozJMfoxfVXmNWrDxiFtlezTnvm3RXHXgNMbBqnw3Aa8hH/2vrJgWLpBI0UT6NLSsW/B8MrmJHCO041nqQ5F3C7lKwPMgIjQsAkKwGnboRPCkILBy+XJ9xXHTPgNjynst0xqwJ6iycJzMdvcYav3mghrIxxGQtGROsrIJ24+wYnAQ2UJ96Pj91cx2OLdPIhEksThmdqd666LZCTQNOqCRYNHsG715mf78Q3gO12/Oq114Lt1aK7aegSbUMo0dulF46/mLO/7bkUiOgoAg4B8BIVj+MZM7BIGqCKw4vutbVrH4FvhibedE5SROatxSZ92zebUXm+ZWTmpOucBHrDhTXEmYRG2M0ykQmxMO6FT/vvgATOCTIyh5XQZO91ecfKCak8TQDA5WhIcbeKdJsKLDis8dVwquA7nqHTDHaFSzCPdhGsY6wyy++rzjpl/viCNHQUAQCIaAEKxguMldgkBVBFacOP3n8Ft5lWkU13LCchIntzy31tmSV9t2c9Xh6NVaTjnfR9Rj2UEpQbAinIx9y+HlBnT6MmixTj1wOkxU9fd9MtDmvx05R72SvleT0L4XiEplsMMforhbKZrqvN81XkmH0G/fU1Tr8fxVxriiaTXX0qqKhfy98CK8YMWS6X8ery65LggIAt4REILlHSspKQh4QgCarFUw8pyPCetvOWiWHN8gTnRU3jyLFVtPwy+roI/VInhqYFQhVAjnbntblVHXE/gCnZ8BE+HVL1igZrXnwHEiYA8eu0lCdzRMg595/nyVbYRvPWok8byEZVjUntL/j/5WfO7o0+8QLtbObZ9o0i4Uhn4Dp6/zX3Zs50O8LkkQEATCI9AIXzXheyk1CAJ1RuDcY7sehZHwX4vFoZ+m4KxMp20ncYLb3aPbJsMemGrcE55Txs/RQtUGt8uZRN8mz/KC6Lxgfpf63GkHqzRm/3pwLB2NkNB9e/mh6uBp0CrWo1HPgFQpiHG0NVg2waryvsdLfK56sRE5TdO79pWc2d23cqUgH5pCsfA1M9f5uhXHtT/rfl/OBQFBIBwCI9/64eqRuwUBQaACgbOWdG3v6Nr5NrNYvBK6mvxo53dNDQxZ8IcZisRkaLbCZyfkhFwhfnwvoUZ52zGz1RWnHASuAzIRoyKL5Kozl1bfXLZQvfAgbDydaNPgCORGCzagDjieJFbk2jQJrnt2SPUPjSXx9BFESJG9KPiu+xZ3Xnb+UVrvSOtyJggIAlEgIHGwokBR6hAExkFg+aGHDuGtT/32/t5HzbS6OpdrOahQQDBMJE6ENNnQdNMHTcOB+2VVWwu8YAIQjpKJMOCMbEtTxz/oH/v+sVPmqYGiqb583yabEKR5McJEctWVy6hvLV+oXn1U0v2uXB0HDvZ4BoCDJsHBgqm2IAYbo7OTpLlhpbk6ixAQ2OppDaLnv2fFCeJv5UJeTgWBSBEQDVakcEplgkB1BM49vusG6BXOKRYLq+j8rlWYDPdhdeGTMOXspCmnTECq11TlKiZRsxUmwkZKULFkIffnXzBfXQVzYQ54MIRCFIm16PBvm9/Von501uHq9Ufv1zCaK7v/IEG2RtIHGA6J2gXTM58jkitew//hxMjsNAsW8oO/Unr6bCFXw9DIiSAQCwJCsGKBVSoVBMYicM7izocx9b9Czw99FSobfbTJUCluFk1nZAYmHYIWgtoIrwk+NKNVFV5vnMxyYEKImoCwCfPUtSBCh05vtYkRzYZBE7VWDGb6okNmqt+ed5S64PDpjUWu2HESLKwi9Jr4nOTxvDy9Fc8OcqFgjdJasR47vpVC8FC9+DGl9732nBPaNnqtX8oJAoJAMATERBgMN7lLEAiEwLmLp+/BjR/4zX19/8Q0+lmsMjykWMyDb41MigxMSpPh/jOzaiY2jKaya0LOQT6CZfYKGgpb/TVKbxFIzPrdRNnRuYuOnKlOnNOhrvrns+q6J3aqwTw0eWAOdISvxTNpUuW2L0yHzWhTlx53gHrr0bNVJ8ytCivoGi/RRAgfrBqiU0PFbu/cq2O7myJIVukZcrRZ7DdNghmYBI1i/mHs2/TBc0+c9sfGw0MkFgQaE4Fa312N2SuRWhBoAAR+/c+eIzMt2ue1VPrlNOYYxshKL5tQ4dM5rT2l9sdehh1tZFnV51wrk1Idj92lZl774dKM655hGwCHYRGpikHH/7a5X3139Xb1x4171Nb+QrlPKOXuFwEiAcEtrdm0Ona/TvWqI2apVx0+U83v5kpBOLfx/UZL7Bf6ueuNX1IDR52iNJg6K5P9pY0/A3Be34qYajQvl28bVZQaUjxTqMD8oWVmPiGrBEfBIy8EgdgREA1W7BBLA4JAdQTOP7n78VtvXf/qvpmz3w5Nw0fhmzVbLxYwWY5os/b1m1gFllf7TUur2TOyKpepEtoAc7KZg0mJGixzhKRVbzXBV8taqNPnd6rT53WqdT15ddeWPvX3rX1q7Z5BtWOoaCuk6NcwHc7rB3Xn1JL9OtTz5naqJbPboLHC1xmZRoOsFBx3JOAnZTFIbRWCSI6pQyu3A1qrHXuBB/3Ycc3NPW1HdtyvFwobNNP4xNlLun+Ka2OZ2rgCyBuCgCAQBQL2j6EoKpI6BAFBIDgCNz3YfwLcsj4HX5mXcGIdpc1itbjW2qKpuSBZM7pGmw2tdEq1bFqr5vz3u+HINYDZlhSkCRI1WrZWC32BImYQxEm3NFyyVBv6nKIDl80sAA7JGf43fLLAg+B/tf3ib6r8gUcorUwW2U0q5fb26QjrocOEihfsfkWH09BaYeNxcvTrsKfglSuOn7a2ooi8FAQEgToh0CTfxHVCS5oRBGJCYMWSjvs0vf8CQy+8z1TW5lER4NEmJ9ihfMkJnrGzerCnHJPDL6wsJlbkpiAZds/wh6SJFi6SDPS/DSHYu3Ka6sCRvMt+n+9x9WEzkCv2m10hScohrhnO7fHF5V5oMjnuG+DETnLF64TASQxky2cG+2CuNXXjTR27O94g5MpBR46CwOQgICbCycFdWhUExiCw4qR5UD+pr//qvt5brJTxCbCIC6HRStFsyORMtj2YbPsG82paR1rNgUarvQO/k2ASMtM5lW4apmF3efSfZiFRo3tV8QqbLGVgHkQgUI73ABY7MGAoNwknl7SJpZtZoVAWZfGM5PXC0A+Ukfn8ihOmbayoVF4KAoLAJCAgBGsSQJcmBYGJEHj5CV1rrres17Y+2HejoetXZHO5JYZhKBOZiRMvXY12I9YRNVnTp+XUXEyy+2G1mK32sEvJn8ZEAAQLmsgBI622bgOx2lfA4j/LJlY2uXJ1Kp2hzxmUfNjzEnG/PvNyWSHoQkdOBYHJR0BMhJM/BiKBIDAGgYs0zTjvuK7rC5b5kqJeWIltTbbnEIrBHaCUE66zTH/dVlPljSYzEY5BZQpcAGEaMlvVk9uU2gHNFeN6VRIrBgzNtkBjaRobQbzflxosnCPkago8G9LFhkNANFgNN2Qi8FRC4BXYzxD9/eRvHuj9BSJwf1DTUq/CasNWZ7UhsdDg9K3DOKinEAuLiwip4kpNCXsau988ycS4QUmpay2qoDL2uGJohxPJdTaTU8XC0D4jb/wQQRi+ftaS6euHC8iJICAIJAoBIViJGg4RRhCojgC0Wavxzpt++0Dvj4qFwuVYdn9WNptN63rRNhOZWNpvZEGwmOCrozhZUz8tRIuIJDuRRHG8eEQ26YMFLZVDrkCq4WeVRYT2fKFQGLoRpuKrzz9h+j3J7pRIJwgIAmIilGdAEGggBM49ruvWwczGC7AE/0Jse/JXik4nZyuVVcUst1fhLF1OJFp6eeJ2rskxOQhwqAyMD/PwsFmqiBWEFrSQTjwrlNILxcLvoJo8+9zFna8RcpWcIRRJBIGJEBAN1kToyHuCQAIRuGjRIi4r/OU9m60/bt3dd55uFN+ltPTpVhu2V6mWOIHjv63N4lHS5CNAjRUJcGXC6gUj064yLR3KyA/AEly4Bb5W3zrQ6L75pJM0qCslCQKCQKMgIASrUUZK5BQEKhA4aZ7GsA7X/fFB66b+rFqRyvd8VKXTx1QUK710tCVCtKrCU7eL4xErRwBoroqZlqG8ad6SNoxrDjC6bxFi5YAjR0GgsRCQ37ONNV4irSAwLgLWpWf8XGXTF3naKoaf/PSwXWrcOuWNiBAg1I6f1URVIjp9QZv2j4e73rb8pJUrSKAlCQKCQIMiID5YDTpwIrYg4EbAevWyo5SRWo5Q3u7L459zwqd/Fid9SfEh4GgOR/lZTdAchi/Xt/eYE9ddfcIEpeQtQUAQaAAEhGA1wCCJiIJATQRy2kVwspo94ixd845SAccRXoiWR8A8FvNLrJxqGUE2BSeslPZm55IcBQFBoDEREILVmOMmUgsCwwhYb146G0vOXlPVaXq4VI0TIVo1APL4NnEcszLQ471OMXuDZ+18643LFzmX5CgICAKNh4AQrMYbM5FYEKhAIP0KEKwjEdq7tFKw4l1fL4Vo+YJruLBDrLz4WQ3fVOXEjltGLVZqFsb0bVVKyCVBQBBoEASEYDXIQImYgkA1BKzXvqxbmamL7TgMFvyp6FIVhfO6EK1qcI+9FhWxYs0cN34jcxxpKlTaa6y3nfFcviVJEBAEGg8BIViNN2YisSAwgkB26JUqnTredm7nnGzPyzhGQbLYiptosW5JJYypqXIWCYTFxSHFPDpjSIKV1uYoPf0ugVwQEAQaEwEhWI05biK1IKCsN7xoFrQc78OsXPocuyd6TtYZXOAxiuRoauhfxPOpmOLAgCZBkmH3ODnjSJOvpr3OesO/nDIV4ZY+CwKNjoAQrEYfQZF/6iKQNi+Br86xynRmZEDhOrWBsc1OlRdDQMaqqL2xiRaOEVYdQqr4bo2zv45J0C29G0+ep1LTVMr8mHXpy7BBoSRBQBBoJASEYDXSaImsgkAZAetNZx6L2fe9JV8d5+I48PBTHpXJ0GnCJh544ayYayatlptUORo7N/FxMAh6pNZqXO0iSatLncUVhVr6bNUz9Magzcl9goAgMDkICMGaHNylVUEgMALW61/SAWbzRcRKmjuKYNHO5J6c3S1wzuakbq9Sc78RwTnJh+OTFAchiUDEmlU4fXATRl6LMnEMqmmt3G2wzcp2NZVWWmql9eZ/keCjbqzkXBBIOAJCsBI+QCKeIOBGwLrkxKxKFz+nUumXjtkSp9rk7L6Z5442y6UkqSwS6jVlcEyINtki6QtVYzw323KiaodQxU0Mq/laVetZNaxoAk5pB6D4f1tvXfacarfJNUFAEEgeAkKwkjcmIpEgUBUB69UvmqsK3d+C4/OlozVX5eLO5FyLPA1rUpwbqjYX/iKrdxzDueLOIVy8FnPTo4R35HATP0cWvhenLI450Ms3LcdlPHnsGGepE7Ad0o1Y3LB8VP/khSAgCCQSAX6kJQkCgkCCEbDe9rL5ysivgDP7OxGS4ZhRTu2VcncZSrVglvZDGkh4SD4mIznNOkcK7pw7Ry9yOf21j7hx1GsvFURchsSK8vvpA8vmwcR6J2BjKfbN6oUp+HqU/pEy0vdpP765P2LppTpBQBCIAAE/H/8ImpMqBAFBoBYC1puWTUfw0CPgeXMKNEAvhHnoVNxzkD1Zu1cMVquoC2ypBdkhGNXKjHdtMonWeDK5r7u/rYL0z11XXOdBiJUjixeCxbIaCpJoGeYQyNYjWGl4B67epTL5+1Ux87T2w1VDTpVyFAQEgclDwP2VNXlSSMuCwBRGwLrwzGmqSz8cpOokwHAaMp2ZF2ISbbMnU5IqO7K3B5A6wZJaAxIsp/qkEy1HziQdwxArpx/8Nh6E9qoP2cs3M8uQbDGXnpFdeFDW4uq9cIr/u9KNB1S2uFH7/h29ThNyFAQEgfoh4OVjXD9ppCVBoMkRsC68MK06dsxGbNAjMImegMwgksdC40RC1W5PliRTdvYJBrU6JFhtIQmW06yp5SGXidzmXJKjCwGb4Kh+rMxMYRzbAmkNXdXZpGoA5KrfI8Fy38tzh2xRLlvTae2DTBtw/UGYFO9BtP8HVUtxrZqX3qGtXKVX3i6vBQFBIFoEhGBFi6fUJgiMQsDeKzBlLFCZwiKQquMw2XFbmyMxGx4IQpUNRahGtYQXJFgdIFftERAsTtaWtR116pBxnj1hT5afVmU/J/u1o62y/aHUs0qzchhPkGYOQIjEb2OSK5KsKL6ZbcKFOktjSdJVxKvNGNgnce0hXHgQvnePqIK1UR25bLe2ciUeHEmCgCAQFQJRfIyjkkXqEQQaGgHrkkuySl+7UBlqCSbIJdAaLEaHqKmaP6ydYg85EdfypQqChE2w8Kcdju4h53rISxnXQXYDkzHMl+UKeWCsrak2FfObUkPn7WN5cEoO52uBdRZ4HTKMUflt3wfWPZAGycIJz+NIlJmEy07oj2EVcLoFg7oejl1rcHwYz+fDKpN7VPveH3eXC8pBEBAEAiCAn0qSBAFBIBIECk9gdkzNhMloBuprxSQ5iLwD55ugtdppOyWX9pdDwEl89Jg54TmTnjPvBRGmNGnSoIdJMrJEE9PgqNooIzU4DFoa9TY8oxpKwAunr+ynEyC0coxMRf+mvZFIa1kwx1r3oi5qDcNVydtZh/N8Oc8br5EsG2YB5GoPCBU0cBqeUQ39oKnT6kastP3UUKo9nABytyAgCIT8FAuAgoAgMBEC1vXwufrVlm7VlpmlrDTMSOpA5AVKMw+GJmgB7p2HvD/ydJAx+mBlRk2uo3yxMDEy8WB/cvGHR3vS5Ioy9Xk103wKBOjHoc1VnJhN6xZMuHC0T51eUztDmeyM+8pi4kpjJRtLCG8fPYhewuhWYKQBo2U1MfJQJQjyq9TuNM3HV4KAT7PrtPHEHwdXyld6AIYPo54ZEihLQTNl9uO4F7JtwwWaBkmmnoa8T4Mx4rWxQ1mtu1Wn6tG++fu8F/GkjCAgCHhHIOO9qJQUBAQBvwhoF90Ae52CpsDOT1beb134/DbV0TINKqHZytDnqgzMiUbqYEyGIF/aQZgg52EunYX7OnDM4TX8tqBjoK5KWYM4bsPrv0FD9gMsz19lXbb0LLxjYYLW8Dd4skmGthd1ZOzo77VqGiYl5UZ5cNqnSdE5r1VPPd+3ZYZgPDI5x9Kr2n9JbC34NVHLl+HNoTuJClK7tR/der31+mW3o7o3oP7lIEULcA7yjbFgMqnhAoHS1JAyzX0QfCcugjBRU5oCebKeAcnerNLp7crI7sRj0iuhG2zk5I8gUFcEhGDVFW5pTBAYjYB2w100wTFvRX7Y/a61EtRm7cs6VWt+Biba6dA6dOF97ENomx+HlK7vUh25p7Vrbt4+fF8m3Y/l+XRmzg1fC3RC8mCCGGowdwYgD7yF2U7gDW7u4ZzXi3jZspQbdWRyjo6IQY+aItbhfZUoD7VOGcM2yWo/XnUPrtxjXYIQHgVoPFPmbGz63Kk03YBjOol1L7SgPdBy7cV47xMCFXQA5T5BID4EhGDFh63ULAiEQkBbSS3V73tQCfNGT5XlVZ9Ka5j0NRAsh8l4unNsIQv+Y5oF82UEbMRdxfC5Sz7XaSixh+tGd9znY3sX1ZU+VAQNUthEYa28MjKsbzhp3/kTNFSjiffwm3IiCAgCiUZACFaih0eEEwR8ImAVod1I5WFWoqYrXNK0XSApNHHGn9xkyH0ef8vhWkhpdEynCTiKVFBpYyCKiqQOQUAQmHwEsIxJkiAgCDQPAjAf0TcnLEmxnethIrRC19Q80FbrCXSM0DPCV82tgqtWsMa10nhBg4WxkyQICAJNgYAQrKYYRumEIFBGIGuvJgw/SXMlWsri1iuMkyRpPAQ0CxqnFBzJxyvg5zrIcUqX1Xx+IJOygkCCERCCleDBEdEEAd8IpPMwD6ZGx67yW0lJm8JYTLuhv5ItVSbCz4LqKmPuhgYrHMUi5iRrnUZ4cjyRvPKeICAI1A0BIVh1g1oaEgTqgEAhV8Bk3x/OsGczrCGEeuhBXWG/I2hES2oCKUJwzzCJMbCMFBchgNiGqoimxgG1a6ZosMLAKPcKAglCIOyXZ4K6IqIIAoKAur+FYQMQlTvEbM9bGdtJSyEUQGgNFslHMrVgGkhRmCjsNk7pPEypjBcGzVMIzCEINFh9atbvOX6SBAFBoAkQEILVBIMoXRAEHAS0VatIZkYt9Xfe83kcVP0GIoGngpusbL6hbYMWjEExk5VscmT7lyHSeQjRNEtXRRCjKBYWKK2nFJojhDxyqyAgCCQGASFYiRkKEUQQiAiBlAUNVsiUUv2qDQ7z3J8uTLKs7fDlqk+oB99yavQz416RwZOJYLADLQytEEF4BZhkJQkCgkDTIBDuy7NpYJCOCAJNhICl7QunlQEWFoKb7h2i2Su4jxLdvrWINkKOfHhstZUOvyfs0xdGhQXz554tDI1BLVbwZN9rhifGwSWQOwUBQSBiBIRgRQyoVCcITDoCVlhNiD3b92jfuRf+QCbJQ4gEE2F4P64Q7U9wqwUaqdl7RE5QqMZbKZXXblhdwKbM4fzeSs0IwaoBt7wtCDQSAkKwGmm0RFZBwBsC4SfqSDRPWKHHaPAWo8GHYmneeu23VIn4IYZViAgLFjdUREphY+ywKTQxDiuA3C8ICAJRIiAEK0o0pS5BIAkIpGBqCsEZ7C5YITU7pB2axpAR9CtK3veMLZ+9DRD2EQwTqsG5N+R2OfZ42Vgl4QkSGQQBQSACBJL3xRdBp6QKQWBKI2Da8auCQ0Dy4RAsSwvuvG0pECyTTuTJC9NAQkMDYQr+agrO7kGTg48JDVZJlxWsJmrRbFmC3S53CQKCQPIQEIKVvDERiQSBcAhoCHzJrW5CJQvEA0mzAq4AtNkGttlBjChSmaSlEhnSoWHDdkCqGIocsW+atTtUFzleZiThNUKJITcLAoJAdAgIwYoOS6lJEEgGApoJsxz9nwKKw8k+rPN3qW1s2ZPqhxRBJQnYAa+3YYWkQaxCBAnVtBJ5JF5BaWQJHSwo0ML7znntupQTBASB2BEQghU7xNKAIFBvBEyQGi34liskCtyH0E6p4PWQuKS0PagmvIaoJEzEfxnjK41gqpAzKAXUyiZUC/0M7CzPxhGwNCMEK+IBluoEgUlFQAjWpMIvjQsCcSCQodYIxCgAa7DnetNUJAx2sqOd+xfSbhrkwzSC+3D5b9XvHSB+MKdqVvBo9QpYMZkwhYYyy5IQkxhLEgQEgWZBQAhWs4yk9EMQcBAwdJKagNvT2MwoD4VKSHMV68FqRi0TjOg5fYnzqMFEmCYB1MITm1Q2uKaOUHGrHZOmSkmCgCDQLAgIwWqWkZR+CALDCORo1mMOmLQhlUmXndzDbHMDk5dFrYwZfJVewB54vE1DoIYhmAhBBG1i6fG2cjGaUu1NnnE0hujLFZxMWlZe6WE0aWWZ5CAICAKJQUAIVmKGQgQRBCJCIGViorfgYB4glXgGorc75iptMLDztsJ2OymdpCOo+3eADni8xe6nVVRmCuQqxOo9TYNzOpKGDZ8tFQzzkshDKi8EqwSF/BUEmgMBIVjNMY7SC0FgBIEumppg9gqglClXMqD2caPnEIltW9iH0OhKqvaK8lkqs5sEqaStC9FdZcHvTbMGAmFewqpfdbQjrIUkQUAQaBYEhGA1y0hKPwQBB4HVOxh/Cqa5AAyLt2han0rlSs7pcHd3qg1w3KvyeZKGZBIHDX1bMKADprJDv88ectWgVQ6iSu2Ts6LQZzX2ONHZfuOzJW2Y7/vlBkFAEEgiAkKwkjgqIpMgEAaBG1ZzdVxfsCrAsLi9zZyyw3UKDvNBww9wP8P2HFhIAk2EJJ806V36JKLNI/J9AC5qU0+tbBZsNeDLBdyC+HJxoEwQYo6bJEFAEGgaBIRgNc1QSkcEgRICNnUwreCrAKnRWbmqFMHdSpXCEPgFl3ovM7VXdbbAEOfs1+e3ktjLm+BDlDT8Rs3T7qKvWfB6UlqvPW6xd1kaEAQEgXohIASrXkhLO4JAfRHgqrZgCb5ToSd7OyYUoqRv3swgo8EDeQbrgbe76INVSnuHz7zdOVLKLGnntJUIshDUl6ukPQs+XiPSyJkgIAgkCAEhWAkaDBFFEIgMAW4cXJq4/VXJe9w+SQxD4NAQPzWVNi/eo+YNaagvSA1+WgtWlsSPSUOQ0CBmUBM3pcyRQKrELQjmlIHmRUmCgCDQVAgIwWqq4ZTOCAJlBKwQoQdMl8lMwzY3flOJZBRBGvapza0kV8HMjH7b9VteK5sudcgZhGCxvbIGy27aCugsz5u1CFYy2kLIH0FAEEgKAkKwkjISIocgECUCFnywguiN7HucbXIgkGUF0MnYt0A7hH3+vnOvDnoVPABnlJhU1mWVne+zWMEXOPK9u1IXbu7LXs5TCHYqSRAQBJoKASFYTTWc0hlBoIxAKqBWxjbtmeWNnlGXhb0Ig2h3aH5LI9zDypUwESZxFSH6pqmSec8AwbJ8kkBySMaBzyAQ60gKth9haQ9DIVgjOMqZINAUCAjBaophlE4IAhUImOlgPj30KzLTI6vhUmn/AUdJPui7VSyW/ZMSuorQ0WBZjBkWaGshUxlWabUl4aeJMKjW0LS1aKxFkiAgCDQJAkKwmmQgpRuCwCgE0thomWTJT7Ite9g+JuvywfJz/6iyGqKa63lt5UoTmh7/JG1UXTG9sBx8UtRCYXugkO1kUruh7WN//aWSs3wwQuyvJSktCAgCdURACFYdwZamBIG6IWDSyR1kyddkz8JaXhnGyGRfioPln6hp8AHrLySTWHEQ7K6WTYRqEOQKhNB/skAiXYsAdJr54G/mI1GOFMYpFWJRgo/mpKggIAjUDwEhWPXDWloSBOqHQJZO0xq2qPHBsOyi2CRaM2gyKyWtCMIQgKhZ2Px43r0lgmXBVymJyTERkggykroPqOzu0AdLS48QqrQOYspNtv1UhLKWhvZTQQheElEVmQQBQaCMgBAseRQEgWZEYNDghB1kD8BBVUyPTPYpOqgHcFLXtH3l4JsgENgEOYkpVfYNm9dFnLDhsx9iVKVD+Sz3f/RvarQd7M0RUlularkkCAgCjYeAEKzGGzORWBCojUAGmw8r+D755gzcwzDtXhlXu61qJRANfvhyyrcQw7fGeqKViJ+2chU2fEZgVl+Jmie6tKdHYnwVbcz9kUlCk4JZUbP9wHxJIIUFAUEg2QgIwUr2+Ih0gkAwBPS2EsHyc3dpo+Ie9Wx+xOylmzzXfWl3SnxqhGAl1kSYGvEt0xDWwi8PtBCE1TRGtIQGiKkF06zveqy86imM1ONnzKSsICAIJBYBIViJHRoRTBAIgUDrXhAs+gP5TIwovogbF5eTlqb/1IiWxrle8wjC4iQrkAO5c3d8x+FVhGjCrXHz2iK3ADJc5tM5XC0J3zPfDAtaw/0NEmJJgoAg0EQICMFqosGUrggCwwi0dYEkaXDc9qlOwfY2w75Tw5X5PKFeyEqNECwtAD/z2WSw4sDHSZrLpOlc83LMjRSyTY0pn9Hc7fGBqXJDm2iwRqCUM0GgKRAQgtUUwyidEATGIAC/Ip9L/0tcbM+omrI0D/pcBWiHl3JFg9e0ZK4idPYitDucGjFpjgJgnBc2VlhdaWVGEyPTJ8Gyq8cKxh/eOqI1HKdJuSwICAKNhYAQrMYaL5FWEPCEgK1NUUH2t7NGtslhS5btY0SS5T2RYHGjZydxFaFPRZpza6xH20m93AI1WKUta3w0CdWcpVeo58y9/vuq9WA/oRF/MB8SSFFBQBBILgJCsJI7NiKZIBAOARPBPv0SG82nJqdSQraHDWRgmhwJVlpZJvhrBk59ALdHQ0bKqwhtcXQQQt8Eq1pHNH+aMLsKvysYq7Ur1wQBQSBpCAjBStqIiDyCQFQI+CU5JBgmNDDuZCEMAZ25/SWGHXARrAicsOirZIEwmuoXkAf1+xOoamkn0CjfTNsaN5pV/SQD8ozW7mnQAPpBy27PcmHlp3kpKwgIAklGQAhWkkdHZBMEwiBg+dSMkBho2LDYnUy9YJMIz8QDBUmAVIHbxjjJ/2pG507nyPY1bTv+3goCAxLoWSCnhrFHN3FMgRBa8KnyVa+lQ+s1mmApjfsRjm1roiuWT1+5ieqS9wQBQSAxCAjBSsxQiCCCQMQI+NFgka9wo+J0BcGiSG4iUkvEEu8ZVBlXNHi3pqjW/eO9X1oNuV5ljIch6LMIzhk+ucNHpEFyNGz4HDaZMI362WTbJrWxmFPD9kTuFwQEgZAIRPE1FVIEuV0QEARiQSDtx/QEZmQh4GUgx/hK6RF/awBbxjjJ7UzuXPN7LBG3NdoX76Bf2aP+NE3jNeYyXQ7oiMDud5sbOKZn05XqKppYC94VYbidQU4lCQKCQNMhIASr6YZUOiQIlBEwDPgsVc7/E6Bja3A0t2kPvkkaQhFU+BlNUEWJWCC+VJs5EjgzHcFehOyHpq0uNa094p3ATCSs6z2ThNDe6sZ1seZpQQ0MwKzoSmmTZAmhG0qM0PVO9VN7eFwxw6qXkquCgCDQgAgIwWrAQRORBQFPCDDYp1dzFfmApeWVQU2OK1lZOrn7iGNFTRjCQ7TPG4nrFNZESPOgCa2YYZYJlvUIzivCI7hk9nJq+0m5I90X8giOSjOh96RBg5Wr0GAZtml0pO+1auP4mKY4udfCSd4XBBoQASFYDThoIrIg4AmBtLUL5byvjKMGKwo/JM3aq668YbRmx5PA4xQqkZ6tysxttEuY1lqQuD0qzCbS1Bxp1ghxnNXHbW5AdPwwrCryZosDkM1b3K9SU4XyCsYqlcklQUAQaGQEhGA18uiJ7ILARAgY2izwhTQm/NqJk72mdquePPbScyUrB02Ry1fJ9da4p5bqgdJppFU6k4+8Gve2cd+gBstS69QMg4RRqaHMZvx9JiwXsusq/9FWri7AcX60edRdoPKceFlWQeUKIySNZQZ1asG8bRxtkzyVVUZ6RmX18loQEAQaHwEhWI0/htIDQWAMAtY7l3XCZ+kdKpXy+BknibE2qe/cO+Kczloz9DGynd/HtFH1AomHqtjXL+XDh6tapTaZUY+Uo9Mr7durSAIfD6VtIrkxx/RrdAywarKMvqartq7RBGvW3ZRtk2fZOD6a9XbrkhPbR1ctrwQBQaDREfD45dvo3RT5BYGpg4D14ecdotrN70Ej8zL4KnnruE2MrEdIs7zdMEGpylhaExT19Jbt4K4eGlXWUg+H1mCltNH7CNLsWCKIo5ry86K0UbYPJ3yOT8o6V3V1fs+67F8O9tOWlBUEBIFkI5BJtnginSAgCHhFwLr8JXOUOfgaVdQuxeq/hcrwyJVIKkxTV6nMHV7bmrBc5XY71BQFJS62bFjdl9IRmsGVUtpDSreXSAat2VWZc+ozXMK44Se0O33JRg6cVv+mDOMk67Kl31Ca8XPty3cyqKokQUAQaGAEhGA18OCJ6IIATEtZ1dlxDAjMKxBl4CKVTh1ho+KVXLGw7eMEx3Ej/48xiDJSueYjrhM5nQUfJHdK0xQXkAfZspnb4NC+0V0lVjyuRUPQOGkzYdoc9Za3F7hnTPgJP+ES0J8UViFu2FARyR2ta7k7lTW4DubZwzyHyeB4pbTn4M83sJrxXdYHzvgF7r0RYSAe1r5zb3QLBryBI6UEAUEgAgSEYEUAolQhCNQTAWvlsowaLB6p9PSZaPcc5FNVJtVtT+Z+4l45QnM1nq5u0L56127n0vCxfaah+nrGkojhAhUnbN+q0AQx0ENQZwSbYGnr1N6hHaNa6hrcrHpbGNF9pp8gEsN12NonY7S/GX3H/OBngdl1ZcawO+3LN2+3CVJK+w9f9Tltp7QjMZ4fhXn3UtXVcbd12QtvwkrDP6n21FrHD224H3IiCAgCiUVACFZih0YEEwRGELBWwgm6t+250G4sV73mS5SWPglmQKw+AznixKx79LUaqbJ0lia5sp4CKfpu5Vu+X6MqZSE+VbbCyZ30LWhinZq5plKLo628u8e6/IzH8OaxVEVFkkyElyChiyKl1H+povlqjNECXySLbdtEC33StG5otV6M/r0YJHK36jXusy5fejPG6i+qa8aj2sqbRscsi0JuqUMQEAQiQ0AIVmRQSkWCQLQIWJefNkdZ6eMxyS5DAIHlqH0RNBuddiuchG0zYAhyQc2ViVADlvqo9pXbnolGek1X+TF761Vqirw3RfOflsL+g9WSRkf3C6u94+maUfH1Z0LzxvASGllruKR9+bb10Dx9DLV9H0QpE8iMyb47pl6aQlMpaizPhGarT/XuWw1/rb/i9V+UnntA+/qft4WTWO4WBASBqBGo+IaJunqpTxAQBLwiANNfq+pNL8Sseho0QcvhZ3QKtBeHYmJN21O+TaoCaqoqhSgF6aRm6RPqK7ddX/n28Ou+fIlyDF+Y6IS8BH5JmjU6ltZEt0z0Hqsz6L/lRHCvKGxZq6EbI8P0R4hY2sS/bGq0Biib6gERokN+q11rRXNjXpKKTZS+/NefqMuWHoLxuxIkOe1bk+WuexTZUp2o71T4a50KsnWZyugbQLb+Ae3mrejTnarNegqmxJGtitz1yLkgIAjUDQEhWHWDWhoSBMYiYL3/+QeqdOY4cISlMP0thTnsudB4zIDWBlwF3IF8Kqj5b2xzdKQuZcPcgrc/rr582/dxhSSlehoodGFfwf0weVd/332VdMNCNHhl9rsvBz4vOd/vAD4bqtZhGo+rVBpaJ226bw2RHQi1crsd7sPI/Qi11okgsWWxNWvabGUeDI3ikyCBYxPEt6yVt1+lepfuAFn+JLSPWOXJMR0f7rG1VLnC20e0l2n4oR0Gk/FhaO3VSjf2Qtu5xvrgC/+GVYm3q0zmAfXFVc9OOMZVmpBLgoAgEB4BIVjhMZQaBAHPCFiXLdsPq8/gS2VBS6Wdjon8eNx8oMqkcVqefDmB8pyJJIPEJUxy6ihN7ttR9y8x+X5T++od5b39Jqi8VZ0EsnegD1IwhEl9tGZIg1bItEmcv56UCNZ61b6jesgCK/ssgNoEfECwJuiD57dsYlgKKVGrPnt8tINVW3EJqv/LeE2U4mLdfo313qV3Qs73AMfz4Jc12ya67nEer4Ja1+06UMh5XlIgmyntNLSF5yv9IRCxZ9XlSx+0LO12ZabvUrq+Rvvm7aMXDNRqQ94XBASBQAgIwQoEm9wkCHhDwA6jML17oSoazwOxOh0aqhNANhbg7g7MiqzEwGEf3q82pZOQkJoEXabPKOPQJlmYULXHcX4XtB23al+6DSEOaifr0pe1qNTAuzBhZ4Z9gSa6zaZP9GMqjtZgaVoRfSj5NlXr5Xh1sj5Nrba3salW5mur9qnLzngCBPCYMpbVSlW/pgHXlGsvQpbKw7SZoxZLza1+k+sq+5HWWrBA4N0Y49srnfBdJe1T7eu3M1Dq26wPnH6EMlLL0frzIPNRuLYfMp4FRMIKlrK4jerFErL8O6IhI4LTQOSX47hcpYwB9O9prHC8T6XMO5Se+rt6bv+T2tslDATwkSQIRI6AEKzIIZUKBQEXAvO60mrASEHD8CR8cdZh37kfwEcJJiXdm+O3oVkqmxkdcdxV/YSnRdOApgpkp7NH++bvq5qxxrvfWrkSO/P95WPQoJ3lPRq8zbDWqC/eEY0PFskCA4qOk9CaZaWsR0DCXjFOkXEu23cWEeZiNCZb99+tDt4GwsZ4VCW+Mk4FpcuMwp5W5yMK+wdR+nOsdcLyeFP7yt+ewIH5v2yfu11Gl0qnO+A7FYxgFfUcQjjYwNdqG+K1KSvXoiwDPn3YX5L39ec4BwQl8LWblBKCwBRGQAjWFB586Xr8CJSdjR+Nv6XoWrA+snS26vnLJ0Bu/h0UxuPkjfZtzYn2xzFEw2QsiNFb9tWUlq0aZhEav4mxM7FlDuNRhTekKu2GGwys/PsD6jq7pnxOAQvaI02thBlulmXoV1WNJeaUrTiWnw06o4vJrgIbeSkINAMCHjxXm6Gb0gdBQBCohQD9wxBb6q2qoP0JDtnvhsYjXVsnU66Ve0qb1hqVs/5vTDtakZoifwyL/ldKbYeGaN2Y+twXTJg+LavH9lVzXw96ntbgn2ZtALn0VoOts7Ky0E5+QKVzNwPDN1ofOWWWt5ullCAgCDQzAqLBaubRlb4JAhMgYEeEH1D7IyTEYhCpF+P4UiiCjrI9erxuEs36yUWoRTLNL2uf+9tYbUzJBwv2NB+p5OC+QQ10TRzfqcXcBF+izZABvkY+6h+nqPbFVZus95/xNRCsr41TZOxltksXunTqRJDMH6pCyxrrsjN+j4t/VmbLQ2qauQ3aquDBVse2KFcEAUGgARAQgtUAgyQiCgJhEbDJVD8cqi3E1VLqGJCRYxEWAs7h6nDkeSAH9BMrmfn8EpU0tFdF8/uqf/AnYeWsuP+xmr5jn/vbXnX5GWtBiJ7rwQXKVT0CoppGdd+2aan/AjbPhxbvVb5CZDikNJU6Ghq1o6Gzez82qX4WYRPWgnAxKOrDykytVq3p9WrtzJ00SboEklNBQBBoMgSEYDXZgEp3BAEiYF0KP6pcBtu0GMfAmXmx6kVW1mF46wCQkdaSCQyqJ4dUOeTAD3zUMtGUpps/V9ncZdp3bhvHWdq2H6Ig/vtK5rgO7k41EMGyPgDioqnznGvejgjspZlVXSToG2W947T3qM5MF0jW2baTvx/Safui2TekgM9BIFsHQaZ/sbHWzCGVNzerBduesi47/SHEF3sIMaxWq4L+tIRP8DZyUkoQaBQEhGA1ykiJnILAOAhAOzVd9an5MNEtssmUqS0B4TgCq8XmqYzWYQct5b2c8x1CFcaeRp5U8rkaRJvfUoOpT2rf/tP4KwcNax7K5+y2KUetxPoNU0dssHG2yBlTwcOewkg4txEDhkbQtP1xfNC57D5q19y53XrfstfCbHoVsHwbNHw59LWEobtgrfMRslUqySjxmrbQzioFsyxkMbHSM6dthpYLqwutB/EeZEqtQZT6TdrXVu2t1YS8LwgIAslEQAhWMsdFpBIEqiJgvXNZp2rV58H//EjEcUKQS5CpPsRTsqyDoC2ZZhMfEhSbRHDytllV1bp8XWSdjsaKq/sMaxUqv1q7+vY/1qxHg/aGmq6qob6q3F3yv9oJZ/v1Vd4deymdehyErA9tdHomcTSJ6tiOSKlx5Se5AXrvVh84A2WwJY3SXgDCWtryhvgSWr+J9zhj49yr2WTvcOCLrM6xcbLMfYiz9QxWNT42TLoYuX4os1n79qrxyaxTpxwFAUFg0hHg16YkQUAQSBgCmIc19aEXdKqh9P6qBX5Shq2VwpY6Fv2mFsB01QmtSklqe7IvT/g1J31XAdfpqO7b3wrlrwYeWM4w4a9kPQMSsAqBMn+h9LZba/pH8dbLl0Fe88/oDjauHq/BUa3TWZzt3a3M4nKEPagZL8x614tmqdbinSBYR5QIZUV91V6S8Jnsj3ohN2auVsR9zbp8cYcyZy6HWfGVuL4UeQHkzOD+Ej52RFrUsQAAMX9JREFUYfRvvC6W4bSL2TeVzqr+ZVk74w/JJhNNuDpIpFJPo43VuP4AZKG26wk1lN+mvnl3L0qO17pdhfwRBASB+iJQ/vTWt1FpTRAQBCZGwLoQAQoWLD0SQSgR+dt2TO8CI2jBXYzcjYkUUcS5Lo8mJ6Uw0XOzQK3dXgFo4j1lteA9rOxTbXgvi4kYsdQ13stcThbMdrzXNTHb8da1gr1hs6V2oSBJFYJvYjK3jEe1L99Zfdsap0rXESa26SptXgci4j1YKe/PoCtF83vaV257m6u6cU+tleh17xm/RDvn2URk3JIVb5DI6eb/qqHUm/xohawPLuPKy6NBGKlBfA5qnY+8H84RkR1Yu1NpQ2gdGI441DMyf8pCdHvEGLMQ5T6F/RvtctxoGuUY9V5ZA3iPI8ztrIfscVUMUIvRMnl/iue9eLVBpfUn1Lo7HtNu8BkKwy2nnAsCgkDkCAjBihxSqVAQmHwEoCwqfbYvujClduzQ1OzZltq/L6NajBG3gLSZUYX+sRHEdfg/zeobGneLGg/ds65YeoAa0r4Fk9oFnk2DTr0kg4b1Ou2rt/3MuVTrCP+l94Jgfc0XwWKljIGqWz9T+aH3aN/6BwlloGStvDCndj3dCnI4gq9TU64DEfVTI2Ea8mldbe3Uh8fl+htIpMCtSKwkCQKCQLMgIASrWUZS+iEIJAQB67KlZ4EtfBZalhN8Ex6a7iwLeyXqp/vSln3wtMOUkbkDhGmuZzOhg1fJJAkTY/oK7Uu3/tW5LEdBQBAQBMIgIAQrDHpyryAgCAwjYL3vtONUOvsumBdfA3+odt+aK9Zkm+2MK7Sv3P654Yo9nmAT469iT7/3wezn8Q5XsRLJ6oUO6VrI/204769xvSungoAgIAj4RkAIlm/I5AZBQBBwELDe/3z4eOWeBx+h10Pz9HIQpBmBwhmwwhLJuR8hCl6iXb1qp9OG16N12WkHKyvzF2ixFvrWYrERZ5Wkbu5Af25EjKqfqK7Z/9BW3jDiP+VVGCknCAgCUx4BIVhT/hEQAAQBfwhYF14IB/ytR4IIwRRoXQBn7FPga9Via6y8rhSsbLJkGoQGSftX7eq/3lL5ttfX2EvxIpT9MTId+IMlEi3bN8vkCsa/w2b5S2jFblYzXrxWW7kygHosmBhylyAgCDQ2AkKwGnv8RHpBoC4I2PG32vQjsdXLMmh3XgzScTJWOM60Gw8SgNMtdSkUQRFap/dj5eC33G/5PefySvWBpR+D/9cncS/cxoOyLPtucEisNCRTM60dOPwDL27Btb+qjt4ntJX3DuC1JEFAEBAEqiIgBKsqLHJREJjaCFiXnJhVHTMQvDR/AmjKC8A0TgdZOQpmvE4bGQYwDUNeHHhtzZXKI/TAFeorf/0qvpBCMKJSpaV9F80roQ37CGQvBQZ12gt6dMyHvN8we/D3MWjv/gZckK0HVGfqGdnQOSi4cp8g0JwICMFqznGVXgkCvhCwzX4Ltxyo8tqxoCSnQfnzPFSwCARlru0bRTJF41gUpIqS8Zun5HO1GZTqQ9rVt/2Ul6NK1sqVKdV/69tR96dh7ptlr2YMTd3K0tlkC+c8lhzqt+DFaoADc6J2J9p7WLUv2yzmxKhGU+oRBBoTASFYjTluIrUgEAoBm1DNA6HKglCp1KkgTiBUGoNnzsNKvFJEJptURcVKyuKSlNC/idvtKO3X8Nv6FOJded1z0HefrcuXnwpm+AnceBbaTYfyExuvdWrh2C/8B+EiDd2MjGjr8N+ytLuB6SPqmbmbtRtuMMarQq4LAoJA8yHArwRJgoAg0OQIWP8Fk9/aDmwIrY6FD9UpOJ4CUnA0tC7YEDpOQgVgbfJR/qqheU1Tt8KX67uqW/2hHmY169KXtahc/zmQ42JotE6HQz72LIRcJJB2jnjwqxEuTTHswz8RER+kK7Va9fRv0r5zL0imJEFAEGhWBIRgNevISr+mNALWh16ArXXS87HRymIQmpMBxskgFUfifK69FU3UBGP4m6R8wkOpjSGc0UH8UZtYpVJ/UB2rHtJW2gbHuo5Rya+s/Xg4qb8UxOoMyIOVkGo2iBe3FSrJa0tEwZHKh9KLgH9Zr0MweV4yKW5Fe4+j/ntw/AfG6GE13fbhkk2cA8IstwkCSUSAH3lJgoAg0CQIWBcuyqkFs85Fd87D5L0Ik/gsHFtw7AKpwAY6Gs1UI9SB29Ioqw1X2n1AgD3wuGce9tIrGcaG0EYfXpswifUgyOg+1LkRWqpHEBPrIaVlHlebZm1NkonMuh6hJh7cNk8NGUeBiC5GN+hvdhD6MA3O693oB7YQ0kBSsV8j8bL3crTPcc1j0hRWGWrYZ9DGybmJKxvTqE9Dewxsyj0Fd+L1I2jzN6qw6ffaN5/kNUmCgCAgCAgCgoAgIAgIAoKAICAICAKCgCAgCAgCgoAgIAgIAoKAICAICAKCgCAgCAgCgoAgIAgIAoKAICAICAKCgCAgCAgCgoAgIAgIAoKAICAICAKCgCAgCAgCgoAgIAgIAoKAICAICAKCgCAgCAgCgoAgIAgIAoKAICAICAKCgCAgCAgCgoAgIAgIAoKAICAICAKCgCAgCAgCgoAgIAgIAoKAICAICAKCgCAgCAgCgoAgIAgIAoKAICAICAKCgCAgCAgCgoAgIAgIAoKAICAICAKCgCAgCAgCgoAgIAgIAoKAICAICAKCgCAgCAgCgoAgIAgIAoKAICAICAKCgCAgCAgCgoAgIAgIAoKAICAICAKCgCAgCAgCgoAgIAgIAoKAICAICAKCgCAgCAgCgoAgIAgIAoKAICAICAKCgCAgCAgCgoAgIAgIAk2OgNbk/ZPuNRcCLehOB3IbMs8zyHyGdeQ88iDyQPmIg6SIEciivmnI08vHThxbkXmd2G9BXl8+xyHRiTLPRJ5TzrNwZL/ay6+LOO5G7kPei7wTeXs578HRRJYUDQJ8ppxxmI1zjkNXOc/AcTMyn68e5F3IzjjwfAhZkiCQSASEYCVyWKa8UCRRhyI/F3kR8hHIByHzy5dfxpzUc8hpZCZOdgVkftn2Iu9A3oT8BPJq5DXITyFzspTkDQFi/BzkxcjHIR+NfDAyx6Abme9Xfn9wDEiwfof8XeRHkZOSDoAg7MspyEuQ+UzNQ+bzRKLuJbF/JF3PIrNv9yHfg8xnjNcl1UaAn21+rk8qZ54vQCbB5Q8nL4mfd5Ktbcj8XD+I/A/kB5A3IEsSBAQBQUAQcCHAL9p3IP8ceS0yJzMrokxtxDrkXyC/E5lkoZIc4NKUTyQhFyF/H5mklFrBoGNArc/HkL2SFxSNPB2LGj+IfAsyNVBB+1LrPpL5/0W+GJk/DCSNRmAuXr4K+UfI/GwbyLUwDfI+SdedyJ9Gfj4yf4RJEgQEAUFgSiJADcllyH9DHkAO8qUa5J7BcpsfwHEh8lROnej8BcgkttuRg+A50T0/RZ3UdtUrUSv1LuTbkKnRnEi2ON4jsfw1MglFN/JUTSQ3ZyFfi7wVOQ6sJ6qTWq77kUnyqa2UJAgIAoJA0yNAjcZLkalN4i/Oib4k6/EeJ8SfIS9HnkqJJtePIj+GHDfO/68OwC5GG/+JTLNR3P3xWj+1NR9HJtZTJdFn6t+R70X2ilPc5fg98z/IL0SWJAgIAoJA0yFAp+J/Q74DOe4v1CD18xfvn5DPRm7mdDA69wXkOLRVE+H+8phAJbGi6ameGtCJ+lntPZK+zyIfiNysidq69yE/iVwNgyRco2ny/5Cn2o8pdFmSICAINCsC56BjSSVW1b746aT9vCYbjOnoD80lk6Xh+SfaptkoqkRT4NeRuXCh2hgm8dqzkJUm8XbkZkkaOvJaZDr6JxHzajLpkPU65EXIkgQBQUAQaEgEjoLUNyBX+5JL+jX6aX0VeT/kRk/UHj2CPJmYU0N4egRAckJ/C/JG5MnsT5i2STZfhNzoiYsI+GMkDBaTee9eyM4fHc1EeNEdSYKAINDMCDB8wnuRdyFP5hdoFG0/ij68DLkR0/4Q+gfIUeAQRR2czMKkQ3HzjchRyDLZdXCV7NXIXciNllIQmObAPciTjWMU7d+FfpyCLEkQEAQEgUQjcAikuwk5ii++pNRRRH/oQ9OC3CjpTAj6OHJSMKQcXFEWNFEL9wxykvoThSx3o0/HBwVlEu6bjzZ/iRxF35NUBx3hL50EPKVJQUAQEAQ8IcDVgY1suqn1hU8H2UZwVL4ccg4h1+pPvd+n9slvorbkSmQdud7y1qs9anpfjZz0dDoEfAK5XrhMRjuMAdeIWsWkPzsinyAgCIRA4D24N4mTetRf0nTmXRICpzhvbUPl30GOus9R1fcjn51njK4fJ7g/UeHCerjC7aPISU2vgWD7kKPsc1Lr+iv6OZVCayT1mRO5BIEpjwA1DF9ATuqXZRxybUZ/lyZs5GdCnt8mfBz8EAguLvhjwvsTx7P1TfSZseKSlOhv1cwaxGrjyB9Sz03SIIgsgoAgMLUQYGyra5CrfUE1+zVuvfLChAz3bMjBX91JxtzPKsK56Auj+ye5P3HK9l30PSkki6Q4zr4mue516HtStdUQTZIgIAg0KwKcADgRJPkLMm7ZSLJOm+QBpqbntgYYh3sho5c4WLNQbiqTK+eZ5WeLq3EnM/0HGnfkmarH9cDg6MkcBGlbEBAEph4C30CXp+qXrrvfm4DDZH0B00fp5gYZh1dCzlqpAwWmolnQ/Ty5z79aC7AY338H6qbW0S3PVD1nqJYFMWItVQsCgoAgMIzAx3A2Vb9sq/X7IeAxZxid+pxQu/FT5GryJO0andu1GrDQl4/lkib7ZMvzwRq4xfH2eag0L2Mx6lnkThTdcYAtdQoCgoAg4CDA5eRc8TTZE0/S2v81MKFPWr3Sp9BQ0jCoJs/vIKeXZe9XNEh/qvUxzmsF4ELCU690LBragRxnnxq1bq5o5Q8BSYKAICAIRI4AAyLuQW7UL8i45aZmrx7pX9GIjhx3f8LUT/m4Io5mv1rpZShAIhGmvWa+dyuwOaIWiBG8Pw110FeumbEM27f3R4CzVCEICAKCwCgEqB6/DznsF1Qz3884YGeMQi36F4ehSk64ScWRBPxG5GXIXhIDt25ETmp/kiLXKmDUihxn+i9UnpT+JlWOfmD0vDgHQepuHgRq+UU0T0+lJ2ERoFP7pWErCXE/v9g4EXPp9NPINGPwGr+IuVkrV9MxOCAJyCHIXsxSKBZ5ehg1vgC5N/KaS0v3b0K9L42hbq9VktytR+Y4bEEmoaK/zgAyx4X959FL4vfPdcgXeSkcQxnK/CTyGuS1yM8g70YeRGai9o3PFR2cj0LmYoZDketpCkZzw+njOPvM8KtoT16B6n6BzDGpd+JneAMyx+Gx8rnz+aY7QisytWvzkZ+DzHGgRo/XJiPdj0b5Q6pvMhqXNgUBQaC5EHgxulNErvevSk5430d+FTKJk5dl/pz8DkHmqrXvIbOOessd1yT475PQF5ru7kD+KPLpyLOQo0r/horqPTaMRv4r5Dcjc5L2Q5baUH4J8geQVyHX26zJCZ1m+qjTbFS4HrmeY2GivbuRr0A+FdnPDyKSQJLeC5GvRSbpr6fsbOvTyJIEAUFAEAiFAEMBcJVcPb/A/or2XoccxWRODQQnU36Z16sPvWjrGOQoEyeU7cj16gM1CF9HPhGZE1rUiWO7Drle/aFWbSUyNSBRpZNR0TXIe5Hr1Y8/oa0McpSJ2ul6yU+t4Y+RlyKnkaNIB6CSdyM/jFyvfpDsLkaWJAgIAoJAYAQ+jDvr9aVFTckK5FRgace/kdqv1yLTDFGP/tDcEmWiNq4ecpMcfhn54CiFr1LXZ3GtHv3Zg3Y+iTy3igxRXaL58PvIOnI9+vSaqARHPSTQNInWQ25+Jk5AjivRpEst70bkevTnN2gnjh8fqFaSICAINDsC89HBemhNqC3hL1CSoLjTDDRwNXLckyHrPyOizpyCeujnFPekcTPaiMMEVQnDYbhQD63P/6GdYyobj/H1S1B3PbQoj6Kdzgj6QXJAkhD3c0VNJU329Urz0NB3kePuF/3DOOaSBAFBQBDwjQCJSNxfUreijef6liz8Deejis3Icfbvd6g/il+49BmKU06SN/pY+fFHQvHA6du4M87+FFD/FchRm9K8dHgmCv0AOc7+se53eRGmRplleD/uHxq/Rhvza8gR19uvQ8W7kOMci1WoPypTJ6qSJAgIAlMBgQXoJFdUxfnlxIm2bRLBpHbjkRj7yIUBzwvZP97PeuIaB2oPzwspo5/bF6LwPuS4+kOT4AV+BIqpLE3r1HDE1c/HUHdYLdZvY5SP/eYPtHqRdjRVNdFPbi1yXONgou4XV21ZLgoCgoAgMA4Cn8b1uL6UWO8nxmm33pdJJO9DjquvPwzZoZ/GKNsm1B2WAPrt3mdj7A/N2S/0K1CM5S9G3dSmxfVsUUMTNNH3Kk7ZPhZUsBju48KGOE23NLNKEgQEAUHAEwLTUYqrruKaGD7iSYr6FToETT2OHEd/qVE5CDlIoq9SL3Iccm1Dvfx1X88U53NFrdjyenbGY1t0uqaWI44xvA31Bl0Qck1MMrGf/HGWtESS9SRyHOMwhHrr6euXNGxFHkFAEPCBAH8Zx/FFxDq/5EOOehY9AY3FZRJ9b8COfBz3xTEOA6h3MpxzXxNTf3TU+yrkpKa4tME0HQchybNxHwl2HM/WD1BvFH6HqCbydBJqjOsz/rnIpZUKBQFBoOkQ4JfjH5Dj+PKls/ZkOB57HaTXo2Ac2oY7UK9fTUML7onLrBGU8HnFcbxycfn8XDVegwm5zmeezt5xfKa+HKCPb4xJln+i3q4A8tTzFv54jOMzTg14ez07Im0JAoJA4yFAs1Q/ctSTwTrUuX8DwPHjGPpOE8LRPvt+OsrH4ST9S9Trl+z5FL1q8QW4GodzO8krt1JJepoPATchR/254sTud6HITTHIQVM2tcCNkH4AIaMeB5K2JJqoG2E8REZBYMog8E70NOovHxKFeq5UCzNYB+LmOLbeeJ9PoT6P8lGPA1cMHupTjqiKvwkVRd0fBsg8JSoB61DPG2PAgJ+tF/iQ/QCUjcNM9kkfMkx2Uf7Qi4PsctWkJEFAEBAExkUgDjPO/4zbWjLf+ADEipoM/M5HV2lSujcGGf7DhwxRF+UzEDWm10QtZMz1pVH/KuSocViJOr2mV6Jg1O0zDMI0rwIkpNy7YsDhftSZTUj/RAxBQBBIGAL7QZ6onV97UCe3Emmk1A1hn0KOciKiVmyWRxAORzk6okfZPk20kzUJdqDt9RH3h+ZGmrMbLb0YAkdt+l2FOuk76SV9C4WifK5YF1dKNlriM8mI+FFiQVeAIxsNCJFXEBAE6oPAv6CZKL9wWFejaRkcpKntiRIL+mgsdSqvcYxjtd2HarQZ59v0zeFKvyjx/G6cAsdYN/3fbo8Yi52ob64HmalBuyfitjegvski7mg6VHov7o7ymWRdrw0lkdzcVAhMhrNrUwHYZJ05NeL+5FHftyOus17V/QwNUUsSVaKG4USPlUU9DnvQLvszWel4NMzJPapEDdD3oqqszvWQaEctOzWjXrTE9L+idjTKdB0qi/JzEqVster6OQrsqlXI5/sn+ywvxZsYASFYTTy4AboW9Sqg2yDDQwHkSMItz0CIP0csyHEe61visZzXYregIJ16Jyt57bdX+R5GQWpiGjX9HwTngoMo07EeKiO5ovk7qlRERddHVdkk1EOz/c0Rt7s44vqkugZGQAhWAw9exKLTsTpq/4FG/vIlvL+OGGPiW8tXpgtlDo24XcYfm8zkRbviR77fozAn90ZN2yE4zYRRpkUeKot6HB5FmyS7jZxuilh4fnbp3yVJEJiUeDgCezIRoJlhXoSiMZbWXyKsbzKq+hsaZT+iSgeiIhKoidJcvDl7ogI+3+tD+Tt93hNl8RZUdlCUFaKuWyOubzKq+1PEjR7mob6ozYP8fDQy0SVkdyHzMxJV4md3TlSVST2NjYBosBp7/KKUnrFhpkdY4RrUtSHC+iajqqf/f3tnAnxXVd9xHMISVgFlMUDSGGEiEVmKhVqIQhGhboC4UC1VpJZBQURwtEBtEQsaqxXJqMXKTG1lWmgt1BaKQ1kFAVM2MRuLJAQCIRBAIDEw/X4hLzzj2+59v7ucez+/mW/+L+/e+zu/87nb755z7nkqdGFgwU5irUHmcTJZJ44c5G++FlbZPehjym+nRpnHk90V5axCP+7i9HisKPNxs8EQZzsPWZ51sZOT1M3nxj2BldhEvvyQhEGAFiyOgbUEnGBFDkSeI3+RN5C1gZb4wW++Rd7MnTgNSza8HyLNie7zkQ4z+tpK62+WcZtBq/9SC93FlrrdpwosC6zE1vI1jHPkjd/ntrsIUzef45H18BAAWrBSPyqC4qcFKwhkA9xEdksZx50NYOIqzA2shy++w1qwhiVgWcNxC1aVtqUKdzdhlLlVscqEMaoebonzIOso87ifQWN/Jmh5ZAu13xxcEhV8xX4iW7BclWHneMXVpfiyCJBglUW6/uX4CTjS7o90VqEv39AjzQnHIBu2fNC2vZY92OvLEr8b1qqSNZSHsm5Q0/WdJEa2xDmJdfdUP9tQCwYt77ddv++dYD3Zb2Fi30cnitHncGI4CbdDgASrQ4K/rw9E4An3Hg30V6WryG4c12NQK4OXR94E7c8tJVVaZOuV6/FElZUJLjsyQXH3vpOofubxWYOW99uu3/d++WNVv4WJfR99TE1JrP6EWxABEqyCwCbodkpgzH46fybQX5WufCOJtGEJh7sRI81jTKo0d01FWupvrXWzKHPfOAGLHGPp5KoJXbXeH9H7ITKRdXxYogRIsBLdcQWEHXljdwuW1QSLvolE3uRS4BvNLzphq5Jhmddf74fIl068H8qMv8j9FH1ORh/zRdYd3wUSaMoJUiCi1rh+LrCmPq6aciMc1uIUiK2RrqK7kSJnIq8a+LA50SLjcytNZOufu7Kb0lITfUz9MnLH4StdAiRY6e676MjvCHToJ8KmDPRsSj0Cd28mV9FdrJFTDWSqSPDKvvZGv7k7KEQnupHd9n4jMfoFhkHxF7ksemqUqsc9FskK3xkIkGBlgNXwVRcF1+81wf6qchd98a2qHlWV6wHEkS0nniyzCdctJ+6eHLQs8z7wm39R5vibcm5MjYKyxg8JVjDQVN014UKVKvu6xf1YcEC7BPuryt20qgpuSLlOsCJbsabIXxPmGXKiWGYLlooLnRbCQwCif9vQMZZtvgdODy70kWB/uEuUAAlWojuugLCXBvvcM9hfVe52q6rghpTrp/nI5N0TsTbhxr6X6lH2OMXoVuo3NeAYdSti5MPgs/IXOYFsAxC3twokWO3d9+vW3BcFXxyizDeQMgfxRsXd7cfdICRY3USyf/YxtTj7Zn238NuuM/suTWfBgRWEujC4zAPkL/oNvOAQh7r7Xa3h8zzK/DBBC1YUzcT9kGAlvgMDw/dFIXJSzZ3kb+/A+Kpw9UYV2pSxZFXw65Q5r/Mh6O9h8pPytcsDxN8axCKLm7lZVh5h3d21Tuqtie8coZ5ZVvEbhE9l2YB1m0sg5YtUc/dKNTXzReH+wKLd0nBkoL8qXP2RCnU9sPEI3D7e5r+1tRN339xTtYMV+KQKgp+vMiPHw3kKk8MrqEdUkVvL0aFRztb4uVN/mzIHYDCa9rkjwWrfPu9XY18UfHGItCPkzBexFG0TBf2eFAOvYcxzFFPkTcfzLx1Tw3qOGtKxo64YvJ67au8N9vkh+fO5kqL5/I5uob4lRRDEXAwBEqxiuKbq9afBgfvidXSwz7LcHaKCIge/lhV3Hcv5hYJaEhyYb+zRN8fgEHu620/fHthzSfFfeqqG6ARgV/lMsRXLSfoJwciL4BscIu7KJECCVSbt+pd1q0JcFRzmSfIXOYg0OLye7nxenNhzCV/mIbBCG/nYijS/TZjaPnJ38+cl//ByVfa/BRR8mnxOLMBvkS7fJ+d+ESfS7pGz+ZEO8ZU2ARKstPdfdPQL5DB6QPI0+fxUdKAF+/PYq5kFl9E291cUUOHj5XN6AX6LcukB1R6gX6Vdp8KfDg7A4+E+HuyzSHd+yeDMAgq4Wj5XFuAXl4kSIMFKdMcVFLabuK8qwPcp8uk38lKwTRXkFyUGt8furR/LXeQ0II5uC+mrUgpTBWyjOGdJVV9zH1AMN0nRdrocvi7aaUH+zigo1ssKihe3iRKo+mRPFFujw75UtYsckGxYm0vfkpy81N3cheMnciyWwEK5uzHW5YveDtW/KXQVOrmqQwLic/vfXiQX+48TyNmSxzbV2Xy8fLKAAJ24Xl+AX1xCAAINIuA3gtxN6AtxtL5Tc06++LqJP7re3f4+MYTBWcHlu1uqLnacAulmEfX5Gfk9qC6V7BGHb+hRde3nZ5XKmNGj7F5f7agvH5f6+Rrn+3N7FViT7zxcYVFB9f5GTepIGBCAQM0JnK34xrnIDtr2L2ta99crLr/pNij2iGVtTrC2Fd+lBTF+UH7r2PJ4hOJ6rqA6dx+PWRIshbPe9wuK6QX5jX47z/GOa/7dx1ulbmZRnz20Yp9xA2R7CECgHQSmq5puFYi6AK3rx91wdbKpCuZuad04i/h/mxMs7/PzCuTst7h2cyE1MbcePiUVcRyt6zNrgnWA4nq+oNiccHxUqos5ubpGWpdZ1P89bpXhNnXZ28QBgQQIXKwYoy5AvfzMkv8NasDBLVc/L7iu3fVve4LlBKjI5P1++d9Pqto+rAD8tl73vi/yc9YEyy8GXF1gfE6yTpaqtikKwGP/imTvVkoMAhCAwMgE/IS7WirywvQf8u/xIFXZ21RwUWMy+nFre4Llff2PUj8+Ed8vl/8PuaAKzA8NfyUV1TrUj0/WBMto3iH18xf1/TdVxmYurAJ7i8pcKEXVpZefW+V/IwmDAAQgMDIBT1PwI6nXRSXyu/tUxlEjRxWz4kS5OVMqY2zMuqxIsF4aK1VkK1aHud9cdfdQWebWuculTvll/s2TYBXditWpv1uQfq+snaByfH7/hVTGMfbeEutFURCAQIMIuKvFF+7OhbLIv5eonL1LYOdWq6K7DAZxIsF6aSfP1p9BnKKWLVA57q4rsjt6K/n3Dd0tZ1FxZ/WTJ8FSuOu9RXJ3Xtbysq7/K5VxrrS9VKQdIudlnd9Xq6wJRVYG3xCAQLMJfE/Vy3oxzbu+J6L02037S366jjJfBA+W3CX5gpQ3vojtSLC0A2TuGn5YimA6io+fqKwPSptLUeZkweOM5kujxFDkOnkTLLMousu2u96LVN4Z0mQXHGROnp1YXSaVdX6b95slDAIQgEBuAjtry6VS90Wy6M++SPop9FTJM8BvLGW1jbSBt/2sdLNUdMyj+ifB0s5YY8fr76jcotabpzL/Rvp9aVMpq22tDd4ufUd6SIqKa1w/4yRYk1WPss/xx1SmE7vDpe2krLahNuic37fo87j8sm5/ftaAWb99BPg5kPbt8zw1/jNt9O08GwZs4+4LD1S9TbpdWiD5xrZC8k3F5ifYLSW3KLxO8nxIe0q7SF5WJ/ukgvHA3352lhac3m9hju/fpW38ZF9Hc8vif0kHVxCcb6j3SP+3RvP1d4n0hORjzuYk3QmVW9umS3tJe0iTpLqZY3Z8d+UM7Fhtd0HObcfd7BE58Lk9R7pbekByAvac5P20vuTz24mYz28nVq7rrlIV57evRx4+sUzCIAABCIxFwBe4H0pZn/KKXN/JlQexWitrFtugetOCpZ3VZU6CH5UGMStzmY+lznHlY6zMsscpy7HOkPKa53H6V2mcGCK3dcLoIQPeF51EK9J/Xl+Oyy2YGASGEmBytKGIWEEEnpecGPjJsi7mJ9eJa7RhXYIijswE3HJ0suQbXh3Mx1LnuKqidaQqBu6WP1Fyq14dzK2bHhrgfeGWxLrYVxTI5XUJhjjqTYAEq977p07RLVYw7kbw0yQGgUgC35ezv4t0iK9cBNz1/hHJb/xhv03gv/WV5zjDIDASARKskTCx0hoCP9bfz0ADAgUQ+Jx8+gaGVUvgOhV/klSXFsVqabxc+i/00Q+Y7kLGIDASARKskTCxUhcBvz1zbtf/+QiBCAJuGT1G+lmEM3yMReC72pqWmpcRumXv/ZL/YhAYmQAJ1sioWLGLwOf1+dtd/+cjBCIIeLC7Z8Z2awFWLQEnWHTbvjR57PvE4s5qdwelp0iABCvFvVZ9zB4Q60HvVb3WXT0BIiiKwP1y/G5pblEF4HdkAp/WmueNvHbzVlyuKh0lXd+8qlGjMgiQYJVBuZllrFa1/lz6ejOrR60qJLBAZb9D8txIWHUE/CD1KWlWdSFUVrK7Aw+XrqosAgpOngAJVvK7sNIKePqGkyUPUPZnDAJRBDxdwKESN7goovn8OMk6Vfqs1JZz3K2nh0nXShgEchMgwcqNjg27CJyjzx+QPIYGg0AUAbciuLvwu1EO8ZObwJe15dGSZ1hvsl2pyh0s3dbkSlK3cgiQYJXDuQ2lXKxKHijd0IbKjlHHp4dsG91K4LfzUjbz+pjkSTCHsUu5ninE/i8K8g+lW1IINmOMbqn7qvQuaXHGbVkdAhCAQCkENlEpX5SelfL+HEWdtvNYM/8MSVRMb5WvQXacFkaV5Z/1eMOgwhJbtq/ivVmK4lOlH++bJwLr4mN0hlSGbaFC/Iahz40qGUaVfZ/q4fFWGAQgAIEkCLxZUXoMQ9RFsAo/8xS/f3fs0qB6LJOfbaVB5h+xjbpx3Stfmw0qLMFlrs9ZkluzqjgmIsr0K/+HSBcF1qHMBEthv2geI3e7FMGkCh9uLf4HaZKEQQACEEiKgH/XzS0yC6QqLqB5y/TNyhOqdpIhjwPK66t7ux/IzzAzM0+22b1d3s+uQ1PNiehlUl42VWznMYpnSFtKNne5RcVRRYLlOrg160zJDw9RdSnDz02K1w9PGAQgAIGkCWyt6E+T3KJSxsVznDKuVIz7S902Qf+5QhrHr2+A7uIaxf5UK41Tlrd9RpohNd08ZsY/7zIuryK3d1fgN6SpUrc1IcHq1GeaPsyWnpSKZDmu77sUn3/yZiMJgwAEINAYAk60jpc8SHbcC2Xk9i8onqsk36z7vfjhG8hiKW+5s7TtqOZWrP+R8pbl7c4etbAGrOcE2K2MZhbVvToO+862SxSP9/suUi9rUoLVqd90ffi69LDU4VCHvx6758RqMwmDAAQg0FgCG6hmB0l/Ly2SqroAL1XZ35NmSq+QhplboB6UssZ7sbbZeJjzdZZP1v/nSlnL8vqXSlnL0yaNMO+jb0oPSHnYjbvNr1XuDdIJ0vbSIGtigtWp72v04UTpRqmqpNddsv8kuSvQ1xwMAhCAQKsIuFXrnZK7F+6Qin770Dfei6QPSztIWW03bXCdNMqN2Dfbr0l5kx23mvkGNUpZnXU8zsvjYtpuPq6OkC6Uiu6a/pXKuEn6grS31K8VVIt+w5qcYHUqur4+7CP9tfRTyaw6x2oRf91qeIn0EWmShEGgMgKjPLVXFhwFt46Au8ZeK+0p+UY1Q/odaVtpc2nUG5dWXW+ltFx6UHJL0BzJXZMeg+ExMeOYE6ZjpY9Lb+jh6HF95y7H86RreizP8pXrfYrksga1iCzQcndHXSC5yxN7mYAZej/tJ71JcpK8o9QZbK6PI5vfPFsm3SfdJv1EcuKwUMrK3QnWUVKEOZnfS/LxXVfz+euHBu8D74s9pKnSqyR382Y1J2tOqOZJ7gL0vvBbjd4/GAQqJ0CCVfkuIIAhBCZq+TaSkyzLLROvlDaR/HRs85Pwc9JTkpMnX2DdPfCI5GTHy4swJ1q+qe0uudXoGck33jukRVKk7SBnb5cOkHxTctm+wfjm4mTO449WSNhwAk7kt5OcZO0kuTvr1ZKPq02lTiK/Wp+flnwMPSwtlrxf/TfiJn6x/BwpRVgKCVavevrcNv+dJbc4+SHC57iT4k63ns9fn1tPSubupMr7wfJ+cas3BgEIQAACEIAABF4kcKX+dfIQIScZu7zolX8gAIFaEOg8qdUiGIKAAAQg0BIC7hJzi2yUrZQjt/JgEIBATQiQYNVkRxAGBCDQKgJbqbbu9o0ydxdbGAQgUBMCeQYW1iR0woAABBpIwNckj2fzw58ThqaOr/HLGx5/FGXL5cjjxTAIQKAmBEiwarIjCAMCLSawkeruAfxHSH6D1G+VrS950L7fAL1C+nfJg5ubYvuoIpE9CGbjge4YBCAAAQhAAAIQWO9tYuBpDoYN9HYCcYrUebNMH5M2J4zD6pxl+eykaRA8BCAAAQhAAAJhBD4nT251yZJIODHxdAopm6eI8HQDWeo9bN0TUgZC7BCAAAQgAAEIxBA4TW6GJQ39ll+mbT0PWKr2UQXer255v/f8aBgEIAABCEAAAi0m4GRglZQ3mfB2pyfKz2PLbhiz7uty86S6r06UB2FDAAIQgAAEIBBAwGOorpPWTRKy/t8z9vtNvNTsEAXsn9vJWt9B63smf36VI7UjgXghAAEIQAACgQT2l68XpEEJw6jLzg+MqwxXfmv7mqC6dzM6s4zgKQMCEIAABCAAgfoS+JJC604Oxvnsmcs93UEqdowCHae+vbZ1a9i+qQAgTghAAAIQgAAEiiHwn3LbK1HI+9318ud5tOpu/mHpxVLeevbb7m75THnAf933G/FBAAIQgAAEkiBwo6Lslyzk/f6smtfcA9t/WEC9zeucmted8CAAAQhAAAIQKIHAtSojbyLVbzvPpfXeEmLPW8QXtGG/2Mf53m9ieuZ7DAIQgAAEIACBlhP4Z9V/nKSi37aPy+8f1JDtcYop+q3BDgO/PRj5czs1xEdIEIAABCAAAQiMQuBErdRJEKL/PiTf+40SREnreELRcef7GsTo/SXVg2IgAAEIQAACEKg5gWmK72lpUOIwzjJPunlYDRh8WjFk/RmgLPW+S/43qUE9CQECEIAABCAAgZoQuFBxZEkmsq77rPyfLFUx+eaWKvdbBdfPPD4mYRCAAAQgAAEIQGAtgen69JSUNXHKuv4lKsMtZmXZTBV0q5Q1zqzr36EyaL0qa69SDgQgAAEIQCAhAn+rWLMmFnnWf0Tl+IeltyqQzVT5ni2tlPLEmHWbIwusC64hAAEIQAACEEiYwHaKfZGUNbnIu/58lXWqtJMUZbvL0dekZVLeuLJu9yOVxZuDgoBBAAIQgAAEINCbwJ/o66wJxrjrOxn6gfRBaYqUJVnZUOu7e/N46QrJY73GjSfL9itU3m4SBgEIJECgikGgCWAhRAhAoAQCTm48Tuo9JZTVq4gn9aVbtn4uLZD8UzbLJXf12SZKr5J2lnaVZkivlar6aRq3wM2SMAhAAAIQgAAEIDCQwGQtdWKTpSWnjeu6xWyDgSRZCAEIQAACEIAABLoIvFufV0ttTJxGqbPHqk2RMAhAICEC/hFSDAIQgECVBOapcF+LZlYZRE3Ldnfl0dLPahofYUEAAhCAAAQgUGMCExTbRdIoLTptWucTNd5nhAYBCEAAAhCAQAIEtlCMV0ttSqAG1fVLCewzQoQABCAAAQhAIAEC2yvGW6RBiUcblp0vBlmmkEhg1xIiBCAAAQhAAAJVEpikwtucZHlWeMbHVnkEUjYEIAABCECgoQR2UL2uldrQWtVdx6+ozrRcNfSgploQgAAEIACBOhDw7wd6ItLuBKSpn3+ten6mDtCJAQIQgAAEIACB5hPw5JpflpqaWLleSyV+wFkQMAhAAAIQgAAEyiXwxyruEalpidb1qpN/ggeDAAQgAAEIQAAClRDwDy37J2OakGR5AtFzpE0lDAIQgAAEIAABCFRKwF2GJ0ruVks10bpJsc+UMAhAAAIQgAAEIFArAlMVzQWSW4JSSbT8m4InSRMlDAIQgAAEIAABCNSWwL6KzG8arpLqmmg9rNjOljz1BAYBCEAAAhCAAASSIeBE60LpcakuidYCxXK6tKOEQQACEIAABCAAgWQJuOvwNMkzwa+Wyk62VqjMS6UPSP5tRQwCEGgpgVe0tN5UGwIQaDaBCarentJh0kHSG6WiEp4l8n2zdLl0pXSvhEEAAi0nQILV8gOA6kOgJQQmq557SPus+TtNf7eTnHSN+tM0bhF7QloszZXmSG4pu1N6TMIgAAEIrCVAgrUWBR8gAIEWEdhYdd1GcpJl+fMrpZ2kzSXbMskD1D2u61HJU0NYTqaelzAIQAACEIAABCAAAQhAAAIQgAAEIAABCEAAAhCAAAQgAAEIQAACEIAABCAAAQhAAAIQgAAEIAABCEAAAhCAAAQgAAEIQAACEIAABCAAAQhAAAIQgAAEIAABCEAAAhCAAAQgAAEIQAACEIAABCAAAQhAAAIQgAAEIAABCEAAAhCAAAQgAAEIQAACEIAABCAAAQhAAAIQgAAEIAABCEAAAhCAAAQgAAEIQAACEIAABCAAAQhAAAIQgAAEIAABCEAAAhCAAAQgAAEIQAACEIAABCAAAQhAAAIQgAAEIAABCEAAAhCAAAQgAAEIQAACEIAABCAAAQhAAAIQgAAEIAABCEAAAhCAAAQgAAEIQAACEIAABCAAAQhAAAIQgAAEIAABCEAAAhCAAAQgAAEIQAACEIAABCAAAQhAAAIQgAAEIAABCEAAAhCAAAQgAAEIQAACEIAABCAAAQhAAAIQgAAEIAABCEAAAhCAAAQgAAEIQAACEIAABCAAAQhAAAIQgAAEIAABCEAAAhCAAAQgAAEIQAACEIAABCAAAQhAAAIQgAAEIAABCEAAAhCAAAQgAAEIQAACEIAABCAAAQhAAAIQgAAEIAABCEAAAhCAAAQgAAEIQAACEIAABCAAAQhAAAIQgAAEIAABCEAAAhCAAAQgAAEIQAACEIAABCAAAQhAAAIQgAAEIAABCEAAAhCAAAQgAAEIQAACEIAABCAAAQi0lMD/A/EN2AwMF71nAAAAAElFTkSuQmCC;strokeWidth=2;" parent="1" vertex="1">
          <mxGeometry x="130" y="468.5" width="80" height="80" as="geometry" />
        </mxCell>
        <mxCell id="1g3YXqRjLpghrbz_frLY-34" value="argocd-server&lt;div&gt;&lt;br&gt;&lt;div style=&quot;forced-color-adjust: none; padding: 0px; margin: 0px;&quot;&gt;&lt;br style=&quot;forced-color-adjust: none; padding: 0px; margin: 0px; color: rgb(0, 0, 0); font-family: Helvetica; font-size: 12px; font-style: normal; font-variant-ligatures: normal; font-variant-caps: normal; font-weight: 400; letter-spacing: normal; orphans: 2; text-align: center; text-indent: 0px; text-transform: none; widows: 2; word-spacing: 0px; -webkit-text-stroke-width: 0px; white-space: nowrap; background-color: rgb(251, 251, 251); text-decoration-thickness: initial; text-decoration-style: initial; text-decoration-color: initial;&quot;&gt;&lt;/div&gt;&lt;/div&gt;" style="aspect=fixed;sketch=0;html=1;dashed=0;whitespace=wrap;verticalLabelPosition=bottom;verticalAlign=top;fillColor=#2875E2;strokeColor=#ffffff;points=[[0.005,0.63,0],[0.1,0.2,0],[0.9,0.2,0],[0.5,0,0],[0.995,0.63,0],[0.72,0.99,0],[0.5,1,0],[0.28,0.99,0]];shape=mxgraph.kubernetes.icon2;kubernetesLabel=1;prIcon=sa;strokeWidth=2;" parent="1" vertex="1">
          <mxGeometry x="260" y="410" width="50" height="48" as="geometry" />
        </mxCell>
        <mxCell id="1g3YXqRjLpghrbz_frLY-35" value="argocd-application-controller" style="aspect=fixed;sketch=0;html=1;dashed=0;whitespace=wrap;verticalLabelPosition=bottom;verticalAlign=top;fillColor=#2875E2;strokeColor=#ffffff;points=[[0.005,0.63,0],[0.1,0.2,0],[0.9,0.2,0],[0.5,0,0],[0.995,0.63,0],[0.72,0.99,0],[0.5,1,0],[0.28,0.99,0]];shape=mxgraph.kubernetes.icon2;kubernetesLabel=1;prIcon=sa;strokeWidth=2;" parent="1" vertex="1">
          <mxGeometry x="470" y="406" width="50" height="48" as="geometry" />
        </mxCell>
        <mxCell id="KNtzJvYzham_NG5R33nQ-35" style="edgeStyle=orthogonalEdgeStyle;rounded=0;orthogonalLoop=1;jettySize=auto;html=1;strokeColor=#FF9933;strokeWidth=2;" parent="1" source="1g3YXqRjLpghrbz_frLY-36" target="1g3YXqRjLpghrbz_frLY-15" edge="1">
          <mxGeometry relative="1" as="geometry" />
        </mxCell>
        <mxCell id="1g3YXqRjLpghrbz_frLY-36" value="&lt;div style=&quot;forced-color-adjust: none; padding: 0px; margin: 0px;&quot;&gt;argocd-applicationset-controller&lt;/div&gt;" style="aspect=fixed;sketch=0;html=1;dashed=0;whitespace=wrap;verticalLabelPosition=bottom;verticalAlign=top;fillColor=#2875E2;strokeColor=#ffffff;points=[[0.005,0.63,0],[0.1,0.2,0],[0.9,0.2,0],[0.5,0,0],[0.995,0.63,0],[0.72,0.99,0],[0.5,1,0],[0.28,0.99,0]];shape=mxgraph.kubernetes.icon2;kubernetesLabel=1;prIcon=sa;strokeWidth=2;" parent="1" vertex="1">
          <mxGeometry x="370" y="458" width="50" height="48" as="geometry" />
        </mxCell>
        <mxCell id="1g3YXqRjLpghrbz_frLY-46" value="&lt;span style=&quot;font-family: Menlo, Monaco, &amp;quot;Courier New&amp;quot;, monospace; white-space-collapse: preserve;&quot;&gt;AWSIRSA_ArgoCDMaster&lt;/span&gt;" style="text;html=1;align=center;verticalAlign=middle;resizable=0;points=[];autosize=1;strokeColor=none;fillColor=none;strokeWidth=2;" parent="1" vertex="1">
          <mxGeometry x="231" y="216" width="170" height="30" as="geometry" />
        </mxCell>
        <mxCell id="1g3YXqRjLpghrbz_frLY-54" value="&lt;span style=&quot;color: rgb(51, 0, 0); font-family: Menlo, Monaco, &amp;quot;Courier New&amp;quot;, monospace; white-space-collapse: preserve;&quot;&gt;AWSIRSA&lt;/span&gt;&lt;span style=&quot;color: light-dark(rgb(51, 0, 0), rgb(255, 218, 218)); font-family: Menlo, Monaco, &amp;quot;Courier New&amp;quot;, monospace; white-space-collapse: preserve; background-color: transparent;&quot;&gt;_ArgoCDAgentAccess&lt;/span&gt;" style="text;html=1;align=center;verticalAlign=middle;resizable=0;points=[];autosize=1;strokeColor=none;fillColor=none;strokeWidth=2;" parent="1" vertex="1">
          <mxGeometry x="725" y="219" width="200" height="30" as="geometry" />
        </mxCell>
        <mxCell id="1g3YXqRjLpghrbz_frLY-55" value="" style="rounded=1;whiteSpace=wrap;html=1;labelBorderColor=#FF7F00;strokeColor=#FF9307;dashed=1;dashPattern=12 12;strokeWidth=2;" parent="1" vertex="1">
          <mxGeometry x="660" y="350" width="400" height="200" as="geometry" />
        </mxCell>
        <mxCell id="1g3YXqRjLpghrbz_frLY-14" value="aws-auth&lt;br&gt;configmap" style="aspect=fixed;sketch=0;html=1;dashed=0;whitespace=wrap;verticalLabelPosition=bottom;verticalAlign=top;fillColor=#2875E2;strokeColor=#ffffff;points=[[0.005,0.63,0],[0.1,0.2,0],[0.9,0.2,0],[0.5,0,0],[0.995,0.63,0],[0.72,0.99,0],[0.5,1,0],[0.28,0.99,0]];shape=mxgraph.kubernetes.icon2;prIcon=cm;strokeWidth=2;" parent="1" vertex="1">
          <mxGeometry x="720" y="426" width="50" height="48" as="geometry" />
        </mxCell>
        <mxCell id="1g3YXqRjLpghrbz_frLY-58" value="Amazon EKS" style="sketch=0;outlineConnect=0;fontColor=#232F3E;gradientColor=none;strokeColor=#ffffff;fillColor=#232F3E;dashed=0;verticalLabelPosition=middle;verticalAlign=bottom;align=center;html=1;whiteSpace=wrap;fontSize=10;fontStyle=1;spacing=3;shape=mxgraph.aws4.productIcon;prIcon=mxgraph.aws4.eks;strokeWidth=2;" parent="1" vertex="1">
          <mxGeometry x="130" y="350" width="40" height="70" as="geometry" />
        </mxCell>
        <mxCell id="1g3YXqRjLpghrbz_frLY-59" value="Amazon EKS" style="sketch=0;outlineConnect=0;fontColor=#232F3E;gradientColor=none;strokeColor=#ffffff;fillColor=#232F3E;dashed=0;verticalLabelPosition=middle;verticalAlign=bottom;align=center;html=1;whiteSpace=wrap;fontSize=10;fontStyle=1;spacing=3;shape=mxgraph.aws4.productIcon;prIcon=mxgraph.aws4.eks;strokeWidth=2;" parent="1" vertex="1">
          <mxGeometry x="660" y="350" width="40" height="70" as="geometry" />
        </mxCell>
        <mxCell id="KNtzJvYzham_NG5R33nQ-1" style="edgeStyle=orthogonalEdgeStyle;rounded=0;orthogonalLoop=1;jettySize=auto;html=1;entryX=0.995;entryY=0.63;entryDx=0;entryDy=0;entryPerimeter=0;startArrow=classic;startFill=1;strokeColor=#FF9933;dashed=1;strokeWidth=2;" parent="1" source="1g3YXqRjLpghrbz_frLY-13" target="1g3YXqRjLpghrbz_frLY-14" edge="1">
          <mxGeometry relative="1" as="geometry">
            <Array as="points">
              <mxPoint x="810" y="456" />
            </Array>
          </mxGeometry>
        </mxCell>
        <mxCell id="KNtzJvYzham_NG5R33nQ-5" value="" style="aspect=fixed;sketch=0;html=1;dashed=0;whitespace=wrap;verticalLabelPosition=bottom;verticalAlign=top;fillColor=#2875E2;strokeColor=#ffffff;points=[[0.005,0.63,0],[0.1,0.2,0],[0.9,0.2,0],[0.5,0,0],[0.995,0.63,0],[0.72,0.99,0],[0.5,1,0],[0.28,0.99,0]];shape=mxgraph.kubernetes.icon2;prIcon=deploy;strokeWidth=2;" parent="1" vertex="1">
          <mxGeometry x="827" y="377.5" width="50" height="48" as="geometry" />
        </mxCell>
        <mxCell id="KNtzJvYzham_NG5R33nQ-6" value="" style="aspect=fixed;sketch=0;html=1;dashed=0;whitespace=wrap;verticalLabelPosition=bottom;verticalAlign=top;fillColor=#2875E2;strokeColor=#ffffff;points=[[0.005,0.63,0],[0.1,0.2,0],[0.9,0.2,0],[0.5,0,0],[0.995,0.63,0],[0.72,0.99,0],[0.5,1,0],[0.28,0.99,0]];shape=mxgraph.kubernetes.icon2;prIcon=deploy;strokeWidth=2;" parent="1" vertex="1">
          <mxGeometry x="907" y="441.5" width="50" height="48" as="geometry" />
        </mxCell>
        <mxCell id="KNtzJvYzham_NG5R33nQ-7" value="" style="aspect=fixed;sketch=0;html=1;dashed=0;whitespace=wrap;verticalLabelPosition=bottom;verticalAlign=top;fillColor=#2875E2;strokeColor=#ffffff;points=[[0.005,0.63,0],[0.1,0.2,0],[0.9,0.2,0],[0.5,0,0],[0.995,0.63,0],[0.72,0.99,0],[0.5,1,0],[0.28,0.99,0]];shape=mxgraph.kubernetes.icon2;prIcon=deploy;strokeWidth=2;" parent="1" vertex="1">
          <mxGeometry x="827" y="441.5" width="50" height="48" as="geometry" />
        </mxCell>
        <mxCell id="KNtzJvYzham_NG5R33nQ-8" value="" style="aspect=fixed;sketch=0;html=1;dashed=0;whitespace=wrap;verticalLabelPosition=bottom;verticalAlign=top;fillColor=#2875E2;strokeColor=#ffffff;points=[[0.005,0.63,0],[0.1,0.2,0],[0.9,0.2,0],[0.5,0,0],[0.995,0.63,0],[0.72,0.99,0],[0.5,1,0],[0.28,0.99,0]];shape=mxgraph.kubernetes.icon2;prIcon=deploy;strokeWidth=2;" parent="1" vertex="1">
          <mxGeometry x="987" y="377.5" width="50" height="48" as="geometry" />
        </mxCell>
        <mxCell id="KNtzJvYzham_NG5R33nQ-9" value="" style="aspect=fixed;sketch=0;html=1;dashed=0;whitespace=wrap;verticalLabelPosition=bottom;verticalAlign=top;fillColor=#2875E2;strokeColor=#ffffff;points=[[0.005,0.63,0],[0.1,0.2,0],[0.9,0.2,0],[0.5,0,0],[0.995,0.63,0],[0.72,0.99,0],[0.5,1,0],[0.28,0.99,0]];shape=mxgraph.kubernetes.icon2;prIcon=deploy;strokeWidth=2;" parent="1" vertex="1">
          <mxGeometry x="907" y="377.5" width="50" height="48" as="geometry" />
        </mxCell>
        <mxCell id="KNtzJvYzham_NG5R33nQ-11" value="" style="aspect=fixed;sketch=0;html=1;dashed=0;whitespace=wrap;verticalLabelPosition=bottom;verticalAlign=top;fillColor=#2875E2;strokeColor=#ffffff;points=[[0.005,0.63,0],[0.1,0.2,0],[0.9,0.2,0],[0.5,0,0],[0.995,0.63,0],[0.72,0.99,0],[0.5,1,0],[0.28,0.99,0]];shape=mxgraph.kubernetes.icon2;prIcon=deploy;strokeWidth=2;" parent="1" vertex="1">
          <mxGeometry x="987" y="444.5" width="50" height="48" as="geometry" />
        </mxCell>
        <mxCell id="KNtzJvYzham_NG5R33nQ-12" value="Applications managed by ArgoCD" style="text;html=1;align=center;verticalAlign=middle;resizable=0;points=[];autosize=1;strokeColor=none;fillColor=none;strokeWidth=2;" parent="1" vertex="1">
          <mxGeometry x="832" y="493.5" width="200" height="30" as="geometry" />
        </mxCell>
        <mxCell id="KNtzJvYzham_NG5R33nQ-13" value="" style="sketch=0;outlineConnect=0;fontColor=#232F3E;gradientColor=none;fillColor=#DD344C;strokeColor=none;dashed=0;verticalLabelPosition=bottom;verticalAlign=top;align=center;html=1;fontSize=12;fontStyle=0;aspect=fixed;pointerEvents=1;shape=mxgraph.aws4.sts_alternate;strokeWidth=2;" parent="1" vertex="1">
          <mxGeometry x="480" y="246" width="47.69" height="60" as="geometry" />
        </mxCell>
        <mxCell id="KNtzJvYzham_NG5R33nQ-33" style="edgeStyle=orthogonalEdgeStyle;rounded=0;orthogonalLoop=1;jettySize=auto;html=1;entryX=0.005;entryY=0.63;entryDx=0;entryDy=0;entryPerimeter=0;exitX=0.5;exitY=0;exitDx=0;exitDy=0;exitPerimeter=0;strokeColor=#FF9933;strokeWidth=2;" parent="1" source="1g3YXqRjLpghrbz_frLY-34" target="1g3YXqRjLpghrbz_frLY-15" edge="1">
          <mxGeometry relative="1" as="geometry" />
        </mxCell>
        <mxCell id="KNtzJvYzham_NG5R33nQ-34" style="edgeStyle=orthogonalEdgeStyle;rounded=0;orthogonalLoop=1;jettySize=auto;html=1;entryX=0.995;entryY=0.63;entryDx=0;entryDy=0;entryPerimeter=0;exitX=0.5;exitY=0;exitDx=0;exitDy=0;exitPerimeter=0;fillColor=#ffe6cc;strokeColor=#d79b00;strokeWidth=2;" parent="1" source="1g3YXqRjLpghrbz_frLY-35" target="1g3YXqRjLpghrbz_frLY-15" edge="1">
          <mxGeometry relative="1" as="geometry" />
        </mxCell>
      </root>
    </mxGraphModel>
  </diagram>
</mxfile>
